<ttFont>
<head>
    <!-- Most of this table will be recalculated by the compiler -->
    <tableVersion value="1.0"/>
    <fontRevision value="0.0"/>
    <checkSumAdjustment value="0x2a338106"/>
    <magicNumber value="0x5f0f3cf5"/>
    <flags value="00000000 00001011"/>
    <unitsPerEm value="1000"/>
    <created value="Sat Feb 21 13:01:18 2015"/>
    <modified value="Sat Feb 21 13:01:18 2015"/>
    <xMin value="-175"/>
    <yMin value="-217"/>
    <xMax value="1194"/>
    <yMax value="1061"/>
    <macStyle value="00000000 00000000"/>
    <lowestRecPPEM value="8"/>
    <fontDirectionHint value="2"/>
    <indexToLocFormat value="0"/>
    <glyphDataFormat value="0"/>
  </head>
          <CharString index="0">
            77 0 10 185 -97 0 rlineto
            return
          </CharString>
          <CharString index="1">
            100 61 78 109 hvcurveto
            17 vlineto
            109 -61 70 -100 -100 -62 -78 -108 vhcurveto
            -17 vlineto
            -111 62 -69 100 vhcurveto
            return
          </CharString>
          <CharString index="2">
            109 -61 70 -100 -100 -62 -78 -108 vhcurveto
            -17 vlineto
            -111 62 -69 100 vhcurveto
            return
          </CharString>
          <CharString index="3">
            -54 -29 37 85 hvcurveto
            25 vlineto
            82 31 38 52 52 30 -39 -82 vhcurveto
            -25 vlineto
            -84 -28 -37 -54 vhcurveto
            return
          </CharString>
          <CharString index="4">
            77 0 33 185 -97 0 rlineto
            return
          </CharString>
          <CharString index="5">
            78 hlineto
            -93 103 -76 161 0 156 rrcurveto
            27 vlineto
            0 161 76 149 93 102 rrcurveto
            -78 hlineto
            -98 -96 -85 -143 0 -182 rrcurveto
            -17 vlineto
            0 -181 85 -144 98 -96 rrcurveto
            return
          </CharString>
          <CharString index="6">
            78 hlineto
            98 96 85 143 0 182 rrcurveto
            17 vlineto
            0 181 -85 144 -98 96 rrcurveto
            -78 hlineto
            93 -103 76 -161 0 -156 rrcurveto
            -27 vlineto
            0 -161 -76 -149 -93 -102 rrcurveto
            return
          </CharString>
          <CharString index="7">
            81 176 169 77 -169 176 -81 -176 -169 -77 169 hlineto
            return
          </CharString>
          <CharString index="8">
            154 97 74 130 hvcurveto
            0 103 -62 54 -93 18 rrcurveto
            3 vlineto
            return
          </CharString>
          <CharString index="9">
            0 88 -282 127 282 130 0 86 -376 -180 0 -71 rlineto
            return
          </CharString>
          <CharString index="10">
            416 74 -416 hlineto
            return
          </CharString>
          <CharString index="11">
            376 180 0 71 -376 180 0 -88 282 -127 -282 -130 rlineto
            return
          </CharString>
          <CharString index="12">
            86 0 69 195 271 0 70 -195 95 0 -250 693 -89 0 rlineto
            return
          </CharString>
          <CharString index="13">
            3 0 107 -300 -216 0 rlineto
            return
          </CharString>
          <CharString index="14">
            79 0 65 17 49 28 rrcurveto
            77 vlineto
            -44 -21 -53 -23 -84 0 rrcurveto
            -155 -63 101 171 hvcurveto
            38 vlineto
            179 90 72 124 vhcurveto
            68 0 51 -14 58 -22 rrcurveto
            76 vlineto
            -43 23 -55 15 -73 0 rrcurveto
            -175 -143 -94 -250 hvcurveto
            -24 vlineto
            -235 118 -114 186 vhcurveto
            return
          </CharString>
          <CharString index="15">
            211 hlineto
            224 100 130 216 hvcurveto
            20 vlineto
            220 -116 107 -210 vhcurveto
            -209 hlineto
            return
          </CharString>
          <CharString index="16">
            537 110 vlineto
            150 86 -61 -188 hvcurveto
            -34 vlineto
            -178 -69 -76 -155 vhcurveto
            return
          </CharString>
          <CharString index="17">
            416 77 -325 242 248 77 -248 220 322 77 -413 hlineto
            return
          </CharString>
          <CharString index="18">
            90 0 74 19 53 21 rrcurveto
            312 -235 -76 144 -180 vlineto
            -30 -11 -47 -8 -46 0 rrcurveto
            -183 -44 115 153 hvcurveto
            32 vlineto
            136 55 126 170 vhcurveto
            94 0 53 -23 42 -19 rrcurveto
            78 vlineto
            -41 22 -55 20 -86 0 rrcurveto
            -173 -157 -89 -265 hvcurveto
            -20 vlineto
            -240 128 -103 194 vhcurveto
            return
          </CharString>
          <CharString index="19">
            91 320 333 -320 91 693 -91 -296 -333 296 -91 hlineto
            return
          </CharString>
          <CharString index="20">
            91 693 -91 hlineto
            return
          </CharString>
          <CharString index="21">
            134 56 83 104 hvcurveto
            513 -92 -510 vlineto
            -71 -30 -41 -76 vhcurveto
            -53 0 -41 11 -31 11 rrcurveto
            -73 vlineto
            38 -18 37 -9 58 0 rrcurveto
            return
          </CharString>
          <CharString index="22">
            108 0 -274 364 260 329 -97 0 -266 -339 rlineto
            return
          </CharString>
          <CharString index="23">
            397 77 -306 616 -91 hlineto
            return
          </CharString>
          <CharString index="24">
            568 3 vlineto
            331 -568 94 0 0 693 -83 0 rlineto
            return
          </CharString>
          <CharString index="25">
            -539 -3 vlineto
            -318 539 -107 0 rlineto
            return
          </CharString>
          <CharString index="26">
            192 115 133 215 hvcurveto
            20 vlineto
            225 -115 124 -188 -193 -115 -133 -215 vhcurveto
            -20 vlineto
            -225 115 -124 189 vhcurveto
            return
          </CharString>
          <CharString index="27">
            -154 -55 115 161 hvcurveto
            34 vlineto
            146 65 111 140 vhcurveto
            155 -1 55 -113 0 -161 rrcurveto
            -34 vlineto
            -146 -66 -112 -140 vhcurveto
            return
          </CharString>
          <CharString index="28">
            91 293 124 hlineto
            167 -293 104 0 -181 310 0 5 rlineto
            81 29 50 53 0 99 rrcurveto
            130 -80 67 -152 vhcurveto
            -204 hlineto
            return
          </CharString>
          <CharString index="29">
            251 106 vlineto
            100 42 -35 -87 -88 -40 -41 -101 hvcurveto
            return
          </CharString>
          <CharString index="30">
            163 71 82 122 hvcurveto
            0 117 -64 45 -102 34 rrcurveto
            -72 24 rlineto
            -73 24 -22 28 0 63 0 64 46 37 79 0 76 0 55 -18 42 -19 rrcurveto
            77 vlineto
            -39 19 -47 19 -84 0 -145 0 -74 -78 0 -109 0 -107 56 -51 93 -31 rrcurveto
            72 -24 rlineto
            81 -27 29 -28 0 -66 0 -72 -45 -47 -101 0 -72 0 -68 18 -54 27 rrcurveto
            -77 vlineto
            47 -26 65 -20 87 0 rrcurveto
            return
          </CharString>
          <CharString index="31">
            91 616 205 77 -501 -77 205 hlineto
            return
          </CharString>
          <CharString index="32">
            167 84 78 179 hvcurveto
            449 -84 -445 vlineto
            -147 -53 -42 -110 -111 -60 43 145 vhcurveto
            446 -91 -452 vlineto
            -172 93 -82 165 vhcurveto
            return
          </CharString>
          <CharString index="33">
            88 0 154 540 3 0 149 -540 88 0 173 693 -84 0 rlineto
            return
          </CharString>
          <CharString index="34">
            -130 -550 -3 0 -154 550 -75 0 -157 -550 -3 0 -131 550 -92 0 rlineto
            return
          </CharString>
          <CharString index="35">
            91 268 hlineto
            225 425 -89 0 -175 -339 -3 0 -178 339 -97 0 226 -425 rlineto
            return
          </CharString>
          <CharString index="36">
            470 77 -361 3 hlineto
            374 545 0 68 -456 0 0 -77 346 0 0 -3 -373 -544 rlineto
            return
          </CharString>
          <CharString index="37">
            226 70 -138 719 138 70 -226 hlineto
            return
          </CharString>
          <CharString index="38">
            226 859 -226 -70 138 -719 -138 hlineto
            return
          </CharString>
          <CharString index="39">
            97 0 13 185 -77 0 rlineto
            return
          </CharString>
          <CharString index="40">
            68 0 41 24 25 29 rrcurveto
            6 0 rlineto
            return
          </CharString>
          <CharString index="41">
            9 -43 71 0 0 372 rlineto
            103 -65 48 -114 vhcurveto
            -62 0 -49 -10 -46 -18 rrcurveto
            -63 vlineto
            31 7 41 8 50 0 rrcurveto
            92 34 -19 -78 hvcurveto
            0 -48 -136 -17 rlineto
            -97 -12 -58 -48 0 -89 rrcurveto
            -99 67 -47 92 vhcurveto
            return
          </CharString>
          <CharString index="42">
            -55 -36 26 54 hvcurveto
            0 56 29 23 58 6 rrcurveto
            113 12 0 -142 rlineto
            -22 -20 -43 -15 -44 0 rrcurveto
            return
          </CharString>
          <CharString index="43">
            71 0 46 19 34 22 rrcurveto
            70 vlineto
            -26 -13 -46 -23 -69 0 rrcurveto
            -104 -54 54 129 hvcurveto
            27 vlineto
            111 56 62 91 vhcurveto
            68 0 32 -13 46 -19 rrcurveto
            73 vlineto
            -34 21 -39 13 -67 0 rrcurveto
            -135 -109 -80 -181 hvcurveto
            -17 vlineto
            -172 93 -83 146 vhcurveto
            return
          </CharString>
          <CharString index="44">
            68 0 49 21 30 30 rrcurveto
            5 0 rlineto
            return
          </CharString>
          <CharString index="45">
            9 -41 74 0 0 739 -88 0 0 -248 rlineto
            -27 16 -42 16 -62 0 rrcurveto
            -132 -96 -81 -188 hvcurveto
            -14 vlineto
            -189 113 -61 99 vhcurveto
            return
          </CharString>
          <CharString index="46">
            -89 -60 43 139 hvcurveto
            22 vlineto
            134 55 48 93 vhcurveto
            51 0 47 -13 22 -18 rrcurveto
            -314 vlineto
            -22 -18 -40 -23 -57 0 rrcurveto
            return
          </CharString>
          <CharString index="47">
            85 0 58 27 31 23 rrcurveto
            65 vlineto
            -47 -24 -44 -15 -69 0 -102 0 -60 43 -6 122 rrcurveto
            343 50 hlineto
            161 -67 81 -141 -119 -107 -80 -179 vhcurveto
            -15 vlineto
            -159 83 -100 162 vhcurveto
            return
          </CharString>
          <CharString index="48">
            78 41 -42 -108 hvcurveto
            -250 hlineto
            8 118 66 32 57 0 rrcurveto
            return
          </CharString>
          <CharString index="49">
            175 72 78 94 100 -69 35 -94 hvcurveto
            return
          </CharString>
          <CharString index="50">
            -141 hlineto
            -33 -15 16 28 hvcurveto
            0 16 9 16 12 11 26 -8 29 -4 31 0 rrcurveto
            108 87 54 111 hvcurveto
            10 vlineto
            0 37 -11 29 -21 23 rrcurveto
            87 67 -175 hlineto
            return
          </CharString>
          <CharString index="51">
            -23 6 -25 3 -26 0 rrcurveto
            -114 -82 -61 -108 hvcurveto
            -10 vlineto
            0 -60 25 -42 39 -26 rrcurveto
            return
          </CharString>
          <CharString index="52">
            -41 -30 -18 -34 0 -35 0 -35 22 -25 30 -11 rrcurveto
            -5 vlineto
            -53 -18 -43 -37 0 -55 rrcurveto
            -79 76 -51 156 vhcurveto
            return
          </CharString>
          <CharString index="53">
            -96 -41 24 47 hvcurveto
            0 41 27 27 35 12 rrcurveto
            145 hlineto
            66 21 -19 -46 -52 -41 -34 -116 hvcurveto
            return
          </CharString>
          <CharString index="54">
            -65 -42 31 65 hvcurveto
            15 vlineto
            60 39 35 68 65 42 -30 -67 vhcurveto
            -15 vlineto
            -63 -39 -31 -68 vhcurveto
            return
          </CharString>
          <CharString index="55">
            88 413 hlineto
            37 17 53 17 45 0 rrcurveto
            81 19 -25 -59 hvcurveto
            -363 88 382 vlineto
            99 -48 42 -101 vhcurveto
            -63 0 -64 -23 -42 -29 rrcurveto
            -5 268 -88 hlineto
            return
          </CharString>
          <CharString index="56">
            88 513 -88 hlineto
            return
          </CharString>
          <CharString index="57">
            100 42 61 83 hvcurveto
            568 -88 -563 vlineto
            -54 -29 -23 -48 vhcurveto
            -17 0 -20 3 -18 3 rrcurveto
            -61 vlineto
            20 -11 22 -6 36 0 rrcurveto
            return
          </CharString>
          <CharString index="58">
            88 739 -88 hlineto
            return
          </CharString>
          <CharString index="59">
            101 0 -197 271 181 242 -95 0 -182 -248 rlineto
            return
          </CharString>
          <CharString index="60">
            88 413 hlineto
            37 17 53 17 45 0 rrcurveto
            81 19 -25 -59 hvcurveto
            -363 88 382 vlineto
            99 -48 42 -101 vhcurveto
            -63 0 -67 -24 -43 -30 rrcurveto
            -5 hlineto
            return
          </CharString>
          <CharString index="61">
            141 94 98 162 hvcurveto
            16 vlineto
            161 -87 96 -147 -141 -94 -99 -161 vhcurveto
            -17 vlineto
            -161 86 -95 148 vhcurveto
            return
          </CharString>
          <CharString index="62">
            -80 -65 43 139 hvcurveto
            28 vlineto
            114 52 65 90 80 65 -44 -139 vhcurveto
            -28 vlineto
            -115 -53 -63 -89 vhcurveto
            return
          </CharString>
          <CharString index="63">
            88 400 hlineto
            36 24 49 16 48 0 9 0 17 -1 13 -2 rrcurveto
            return
          </CharString>
          <CharString index="64">
            -5 2 -14 2 -13 0 -55 0 -55 -29 -29 -34 rrcurveto
            -5 hlineto
            return
          </CharString>
          <CharString index="65">
            112 72 52 101 hvcurveto
            0 91 -41 33 -100 27 rrcurveto
            -49 13 rlineto
            -52 14 -22 17 0 42 0 45 34 23 66 0 57 0 53 -15 26 -12 rrcurveto
            71 vlineto
            -29 15 -42 15 -69 0 -123 0 -57 -61 0 -90 0 -89 54 -34 74 -20 rrcurveto
            49 -13 rlineto
            63 -17 21 -21 0 -42 0 -45 -33 -26 -76 0 -73 0 -37 15 -44 17 rrcurveto
            -70 vlineto
            43 -24 57 -12 66 0 rrcurveto
            return
          </CharString>
          <CharString index="66">
            46 0 21 11 21 10 rrcurveto
            59 vlineto
            -20 -5 -24 -3 -21 0 rrcurveto
            -58 -16 18 49 hvcurveto
            307 129 73 -129 122 -88 -122 -73 -73 73 -320 vlineto
            -91 57 -35 82 vhcurveto
            return
          </CharString>
          <CharString index="67">
            63 0 52 24 43 30 rrcurveto
            5 0 rlineto
            return
          </CharString>
          <CharString index="68">
            9 -44 75 0 0 513 -88 0 rlineto
            return
          </CharString>
          <CharString index="69">
            -410 vlineto
            -37 -19 -43 -18 -53 0 rrcurveto
            -74 -21 26 63 hvcurveto
            358 -88 -372 vlineto
            -99 56 -52 101 vhcurveto
            return
          </CharString>
          <CharString index="70">
            115 378 4 0 114 -378 89 0 145 513 -84 0 -101 -400 -4 0 -119 400 -77 0 -118 -400 -4 0 -101 400 -94 0 rlineto
            return
          </CharString>
          <CharString index="71">
            87 0 45 40 35 98 rrcurveto
            208 574 -87 0 -133 -387 -3 0 -145 387 -95 0 197 -503 -23 -59 rlineto
            -22 -55 -33 -22 -47 0 -19 0 -18 2 -13 2 rrcurveto
            -62 vlineto
            15 -8 27 -7 24 0 rrcurveto
            return
          </CharString>
          <CharString index="72">
            380 72 -273 3 hlineto
            274 375 0 63 -366 0 0 -72 259 0 0 -3 -274 -373 rlineto
            return
          </CharString>
          <CharString index="73">
            70 vlineto
            -88 6 -37 16 0 75 rrcurveto
            141 vlineto
            0 55 -17 50 -89 17 rrcurveto
            3 vlineto
            89 17 17 50 0 55 rrcurveto
            141 vlineto
            0 75 37 16 88 6 rrcurveto
            70 vlineto
            -179 -4 -34 -72 0 -87 rrcurveto
            -141 vlineto
            0 -64 -27 -23 -86 -5 rrcurveto
            -72 vlineto
            86 -5 27 -22 0 -64 rrcurveto
            -141 vlineto
            0 -87 34 -72 179 -4 rrcurveto
            return
          </CharString>
          <CharString index="74">
            179 4 34 72 0 87 rrcurveto
            141 vlineto
            0 64 27 23 86 5 rrcurveto
            72 vlineto
            -86 5 -27 22 0 64 rrcurveto
            141 vlineto
            0 87 -34 72 -179 4 rrcurveto
            -70 vlineto
            88 -6 37 -16 0 -75 rrcurveto
            -141 vlineto
            0 -55 17 -50 89 -17 rrcurveto
            -3 vlineto
            -89 -17 -17 -50 0 -55 rrcurveto
            -141 vlineto
            0 -75 -37 -16 -88 -6 rrcurveto
            return
          </CharString>
          <CharString index="75">
            74 0 511 753 -74 0 rlineto
            return
          </CharString>
          <CharString index="76">
            81 0 -100 197 100 196 -81 0 -102 -180 0 -33 rlineto
            return
          </CharString>
          <CharString index="77">
            81 0 102 180 0 33 -102 180 -81 0 100 -197 rlineto
            return
          </CharString>
          <CharString index="78">
            64 0 47 10 47 20 rrcurveto
            71 vlineto
            -45 -15 -31 -10 -61 0 -77 0 -46 24 0 72 0 59 18 26 44 36 rrcurveto
            return
          </CharString>
          <CharString index="79">
            67 56 37 28 0 71 rrcurveto
            49 -83 -43 vlineto
            0 -49 -28 -20 -47 -39 -75 -62 -29 -29 0 -85 rrcurveto
            -122 90 -48 108 vhcurveto
            return
          </CharString>
          <CharString index="80">
            78 0 -86 145 -99 0 rlineto
            return
          </CharString>
          <CharString index="81">
            78 0 107 145 -99 0 rlineto
            return
          </CharString>
          <CharString index="82">
            70 0 69 78 71 -78 70 0 -102 144 -76 0 rlineto
            return
          </CharString>
          <CharString index="83">
            60 hlineto
            5 25 12 12 19 0 rrcurveto
            return
          </CharString>
          <CharString index="84">
            28 0 35 -35 43 0 43 0 45 32 8 76 rrcurveto
            -60 hlineto
            -5 -25 -12 -12 -19 0 rrcurveto
            return
          </CharString>
          <CharString index="85">
            -28 0 -35 35 -43 0 rrcurveto
            -43 0 -45 -32 -8 -76 rrcurveto
            return
          </CharString>
          <CharString index="86">
            238 73 -238 hlineto
            return
          </CharString>
          <CharString index="87">
            76 0 53 52 3 74 rrcurveto
            -67 hlineto
            -6 -37 -19 -23 -40 0 -40 0 -19 23 -6 37 rrcurveto
            -67 hlineto
            4 -74 52 -52 76 0 rrcurveto
            return
          </CharString>
          <CharString index="88">
            55 41 42 50 50 -41 42 -55 -55 -41 -42 -50 -50 41 -42 55 hvcurveto
            return
          </CharString>
          <CharString index="89">
            -29 -19 19 30 29 19 20 29 29 19 -20 -29 -30 -19 -19 -29 hvcurveto
            return
          </CharString>
          <CharString index="90">
            74 0 69 145 -95 0 rlineto
            return
          </CharString>
          <CharString index="91">
            73 0 69 145 -95 0 rlineto
            return
          </CharString>
          <CharString index="92">
            76 0 102 144 -70 0 -69 -78 -71 78 -70 0 rlineto
            return
          </CharString>
          <CharString index="93">
            91 0 106 200 228 0 0 -200 416 0 0 77 -325 0 0 242 248 0 0 77 -248 0 0 220 322 0 0 77 -463 0 rlineto
            return
          </CharString>
          <CharString index="94">
            192 115 133 215 hvcurveto
            20 vlineto
            0 99 -23 79 -42 58 rrcurveto
            return
          </CharString>
          <CharString index="95">
            -42 -51 rlineto
            -50 41 -66 22 -76 0 rrcurveto
            -193 -115 -133 -215 hvcurveto
            -20 vlineto
            0 -95 21 -77 38 -57 rrcurveto
            -89 -108 88 0 rlineto
            return
          </CharString>
          <CharString index="96">
            46 56 rlineto
            51 -45 68 -23 81 0 rrcurveto
            return
          </CharString>
          <CharString index="97">
            -69 0 -48 21 -33 36 rrcurveto
            328 398 rlineto
            20 -44 8 -56 0 -63 rrcurveto
            -34 vlineto
            -146 -66 -112 -140 vhcurveto
            return
          </CharString>
          <CharString index="98">
            34 vlineto
            0 146 65 112 140 -1 64 -1 46 -19 33 -33 rrcurveto
            -325 -394 rlineto
            -17 43 -6 53 0 60 rrcurveto
            return
          </CharString>
          <CharString index="99">
            84 0 54 33 46 49 40 -53 65 -29 88 0 85 0 58 27 31 23 rrcurveto
            65 vlineto
            -47 -24 -44 -15 -69 0 -103 0 -60 44 -5 125 rrcurveto
            343 46 hlineto
            161 -67 81 -141 vhcurveto
            -66 0 -58 -26 -39 -53 -22 53 -52 26 -80 0 -62 0 -49 -10 -46 -18 rrcurveto
            return
          </CharString>
          <CharString index="100">
            -63 vlineto
            31 7 41 8 50 0 rrcurveto
            92 34 -19 -78 hvcurveto
            0 -49 -136 -17 rlineto
            -97 -12 -58 -47 0 -89 rrcurveto
            -99 67 -47 92 vhcurveto
            return
          </CharString>
          <CharString index="101">
            -38 -39 -45 -22 -50 0 -55 0 -36 26 0 54 0 56 29 24 58 6 rrcurveto
            113 14 rlineto
            1 -45 8 -40 15 -34 rrcurveto
            return
          </CharString>
          <CharString index="102">
            78 41 -42 -107 hvcurveto
            -249 hlineto
            8 117 66 32 56 0 rrcurveto
            return
          </CharString>
          <CharString index="103">
            0 68 -16 57 -30 43 rrcurveto
            69 79 -79 0 rlineto
            return
          </CharString>
          <CharString index="104">
            -31 -35 rlineto
            -38 29 -50 16 -59 0 rrcurveto
            -141 -94 -99 -161 hvcurveto
            -17 vlineto
            0 -66 14 -55 27 -41 rrcurveto
            -73 -84 79 0 rlineto
            return
          </CharString>
          <CharString index="105">
            34 39 rlineto
            38 -32 52 -17 63 0 rrcurveto
            return
          </CharString>
          <CharString index="106">
            -45 0 -35 10 -25 26 rrcurveto
            233 269 rlineto
            9 -26 5 -32 0 -40 rrcurveto
            -28 vlineto
            -115 -53 -64 -89 vhcurveto
            return
          </CharString>
          <CharString index="107">
            28 vlineto
            114 52 66 90 vhcurveto
            40 0 33 -10 25 -23 rrcurveto
            -230 -266 rlineto
            -7 25 -3 29 0 37 rrcurveto
            return
          </CharString>
          <CharString index="108">
            71 -309 211 hlineto
            224 100 130 216 hvcurveto
            20 vlineto
            220 -116 107 -210 vhcurveto
            -209 -307 -71 hlineto
            return
          </CharString>
          <CharString index="109">
            231 196 77 -196 229 110 vlineto
            150 86 -61 -188 hvcurveto
            -34 vlineto
            -178 -69 -76 -155 vhcurveto
            return
          </CharString>
          <CharString index="110">
            73 419 -38 hlineto
            -118 -44 0 -46 83 13 rlineto
            return
          </CharString>
          <CharString index="111">
            271 58 -184 1 hlineto
            62 57 rlineto
            72 67 41 46 0 71 0 76 -51 47 -89 0 -50 0 -35 -11 -30 -15 rrcurveto
            -55 vlineto
            25 12 35 10 39 0 51 0 27 -21 0 -50 0 -53 -34 -41 -57 -56 rrcurveto
            -93 -93 rlineto
            return
          </CharString>
          <CharString index="112">
            109 75 55 -75 252 -64 vlineto
            -200 -256 0 -51 192 0 rlineto
            return
          </CharString>
          <CharString index="113">
            0 3 118 149 3 0 0 -152 rlineto
            return
          </CharString>
          <CharString index="114">
            0 62 -36 31 -56 11 rrcurveto
            2 vlineto
            return
          </CharString>
          <CharString index="115">
            49 15 28 32 0 50 0 66 -54 38 -79 0 -41 0 -39 -7 -30 -14 rrcurveto
            -53 vlineto
            26 9 26 6 37 0 rrcurveto
            48 32 -13 -45 hvcurveto
            return
          </CharString>
          <CharString index="116">
            40 hlineto
            55 36 -19 -48 -48 -38 -21 -62 hvcurveto
            -33 0 -36 10 -28 11 rrcurveto
            -54 vlineto
            25 -14 37 -12 54 0 rrcurveto
            return
          </CharString>
          <CharString index="117">
            146 146 146 -146 53 53 -146 146 146 146 -53 53 -146 -146 -146 146 -53 -53 146 -146 -146 -146 rlineto
            return
          </CharString>
          <CharString index="118">
            202 154 161 197 197 -154 159 -202 -203 -151 -159 -197 -197 151 -161 203 hvcurveto
            return
          </CharString>
          <CharString index="119">
            -173 -121 129 179 179 121 127 173 172 124 -127 -179 -179 -124 -129 -172 hvcurveto
            return
          </CharString>
          <CharString index="120">
            78 0 94 125 -99 0 rlineto
            return
          </CharString>
          <CharString index="121">
            69 0 65 60 67 -60 69 0 -99 124 -72 0 rlineto
            return
          </CharString>
          <CharString index="122">
            78 0 -67 125 -99 0 rlineto
            return
          </CharString>
          <CharString index="123">
            60 hlineto
            5 23 12 10 19 0 rrcurveto
            return
          </CharString>
          <CharString index="124">
            28 0 35 -31 43 0 43 0 45 30 8 74 rrcurveto
            -60 hlineto
            -5 -23 -12 -10 -19 0 rrcurveto
            return
          </CharString>
          <CharString index="125">
            -28 0 -35 31 -43 0 -43 0 -45 -30 -8 -74 rrcurveto
            return
          </CharString>
          <CharString index="126">
            55 26 -7 -24 hvcurveto
            0 -23 -29 -12 -73 -6 rrcurveto
            -52 vlineto
            130 9 44 31 0 59 rrcurveto
            return
          </CharString>
          <CharString index="127">
            -69 0 -65 -60 -67 60 -69 0 99 -124 72 0 rlineto
            return
          </CharString>
          <CharString index="128">
            55 41 42 50 50 -41 42 -55 -55 -41 -42 -50 hvcurveto
            -50 41 -42 55 vhcurveto
            return
          </CharString>
          <CharString index="129">
            71 0 56 77 58 -77 71 0 -90 144 -76 0 rlineto
            return
          </CharString>
          <CharString index="130">
            101 59 49 71 hvcurveto
            0 58 -43 26 -49 20 rrcurveto
            return
          </CharString>
          <CharString index="131">
            43 22 32 35 0 45 rrcurveto
            66 -55 39 -88 -90 -55 -45 -65 vhcurveto
            0 -51 31 -29 42 -22 rrcurveto
            return
          </CharString>
          <CharString index="132">
            -45 -20 -41 -38 0 -49 rrcurveto
            -68 57 -44 101 vhcurveto
            return
          </CharString>
          <CharString index="133">
            -53 -33 21 41 hvcurveto
            0 37 28 24 36 18 73 -26 36 -13 0 -43 rrcurveto
            -37 -34 -22 -53 vhcurveto
            return
          </CharString>
          <CharString index="134">
            -56 23 -33 15 0 36 rrcurveto
            34 29 19 44 49 25 -22 -32 vhcurveto
            0 -36 -23 -18 -35 -19 rrcurveto
            return
          </CharString>
          <CharString index="135">
            97 60 54 83 90 -55 40 -91 hvcurveto
            -20 0 -15 -2 -14 -3 rrcurveto
            8 103 170 0 0 58 -225 0 -15 -221 rlineto
            21 6 29 4 31 0 rrcurveto
            63 36 -19 -56 -54 -39 -24 -60 hvcurveto
            -37 0 -34 9 -28 12 rrcurveto
            -54 vlineto
            26 -15 39 -11 53 0 rrcurveto
            return
          </CharString>
          <CharString index="136">
            83 0 159 362 0 54 -276 0 0 -60 200 0 0 -2 rlineto
            return
          </CharString>
          <CharString index="137">
            96 62 45 78 hvcurveto
            0 62 -36 31 -56 11 rrcurveto
            2 vlineto
            return
          </CharString>
          <CharString index="138">
            49 15 28 32 0 50 0 66 -54 38 -79 0 -41 0 -39 -7 -30 -14 rrcurveto
            -53 vlineto
            26 9 26 6 37 0 rrcurveto
            48 32 -13 -45 -43 -34 -20 -51 hvcurveto
            return
          </CharString>
          <CharString index="139">
            65 0 46 140 -99 0 rlineto
            return
          </CharString>
          <CharString index="140">
            33 163 -86 0 -10 -163 rlineto
            return
          </CharString>
          <CharString index="141">
            -65 0 -46 -140 99 0 rlineto
            return
          </CharString>
          <CharString index="142">
            71 0 71 145 -96 0 rlineto
            return
          </CharString>
          <CharString index="143">
            -28 0 -35 31 -43 0 rrcurveto
            -43 0 -45 -30 -8 -74 rrcurveto
            return
          </CharString>
          <CharString index="144">
            74 0 60 125 -95 0 rlineto
            return
          </CharString>
          <CharString index="145">
            73 0 60 125 -95 0 rlineto
            return
          </CharString>
          <CharString index="146">
            71 0 64 125 -96 0 rlineto
            return
          </CharString>
          <CharString index="147">
            55 26 -7 -24 hvcurveto
            0 -23 -29 -12 -73 -6 rrcurveto
            return
          </CharString>
          <CharString index="148">
            25 0 17 5 14 5 rrcurveto
            54 vlineto
            -7 -2 -13 -2 -13 0 -29 0 -23 6 0 30 rrcurveto
            return
          </CharString>
          <CharString index="149">
            191 -103 59 -96 vhcurveto
            -69 0 -47 -17 -39 -24 rrcurveto
            -5 242 hlineto
            -49 17 -50 7 -70 0 rrcurveto
            -111 -88 -53 -128 hvcurveto
            return
          </CharString>
          <CharString index="150">
            -54 -75 -73 75 -440 88 440 117 73 -117 47 vlineto
            83 41 32 75 vhcurveto
            32 0 23 -3 21 -4 rrcurveto
            return
          </CharString>
          <CharString index="151">
            341 vlineto
            24 10 46 19 48 0 rrcurveto
            103 47 -45 -136 hvcurveto
            -22 vlineto
            -144 -76 -40 -85 vhcurveto
            return
          </CharString>
          <CharString index="152">
            60 vlineto
            68 33 26 50 vhcurveto
            34 0 17 -3 14 -3 rrcurveto
            63 vlineto
            -17 8 -22 8 -42 0 rrcurveto
            -85 -70 -51 -109 hvcurveto
            -67 -75 -73 75 vlineto
            return
          </CharString>
          <CharString index="153">
            -54 -192 60 vlineto
            68 33 26 50 vhcurveto
            34 0 17 -3 14 -3 rrcurveto
            63 vlineto
            -17 8 -22 8 -42 0 rrcurveto
            -85 -70 -51 -109 hvcurveto
            -67 -75 -73 75 -440 88 440 192 -440 88 440 117 73 -117 47 vlineto
            return
          </CharString>
          <CharString index="154">
            413 vlineto
            37 17 53 17 45 0 rrcurveto
            81 19 -25 -59 hvcurveto
            -363 88 382 vlineto
            99 -48 42 -101 vhcurveto
            -63 0 -64 -23 -42 -29 rrcurveto
            -5 253 hlineto
            -49 17 -50 7 -70 0 rrcurveto
            -111 -88 -53 -128 hvcurveto
            return
          </CharString>
          <CharString index="155">
            68 vlineto
            68 33 26 50 vhcurveto
            31 0 14 -2 14 -3 rrcurveto
            63 vlineto
            -17 8 -19 7 -39 0 rrcurveto
            -85 -70 -51 -109 hvcurveto
            -75 -192 vlineto
            return
          </CharString>
          <CharString index="156">
            100 42 61 83 hvcurveto
            568 -280 vlineto
            return
          </CharString>
          <CharString index="157">
            88 440 192 -440 88 440 117 73 -117 47 hlineto
            83 41 32 75 vhcurveto
            32 0 23 -3 21 -4 rrcurveto
            -668 88 724 vlineto
            -49 17 -50 7 -70 0 rrcurveto
            -111 -88 -53 -128 hvcurveto
            -54 -192 vlineto
            return
          </CharString>
          <CharString index="158">
            724 vlineto
            -49 17 -50 7 -70 0 rrcurveto
            -111 -88 -53 -128 hvcurveto
            -54 -75 -73 75 -440 88 440 117 73 -117 47 vlineto
            83 41 32 75 vhcurveto
            32 0 23 -3 21 -4 rrcurveto
            -668 vlineto
            return
          </CharString>
          <CharString index="159">
            92 61 71 101 hvcurveto
            12 vlineto
            102 -61 62 -92 -92 -61 -70 -100 vhcurveto
            -13 vlineto
            -103 61 -62 92 vhcurveto
            return
          </CharString>
          <CharString index="160">
            -50 -26 31 78 hvcurveto
            20 vlineto
            76 28 31 48 48 28 -32 -76 vhcurveto
            -20 vlineto
            -77 -26 -31 -50 vhcurveto
            return
          </CharString>
          <CharString index="161">
            95 77 57 149 hvcurveto
            22 vlineto
            147 -77 57 -94 -92 -82 -57 -151 vhcurveto
            -21 vlineto
            -144 76 -59 97 vhcurveto
            return
          </CharString>
          <CharString index="162">
            -66 -29 48 98 hvcurveto
            29 vlineto
            99 30 44 66 66 29 -48 -98 vhcurveto
            -30 vlineto
            -101 -29 -41 -67 vhcurveto
            return
          </CharString>
          <CharString index="163">
            72 109 75 55 -75 252 -64 hlineto
            -200 -256 0 -51 192 0 rlineto
            return
          </CharString>
          <CharString index="164">
            -61 -25 51 76 hvcurveto
            11 vlineto
            21 12 28 11 35 0 rrcurveto
            45 33 -14 -64 -52 -27 -31 -49 hvcurveto
            return
          </CharString>
          <CharString index="165">
            113 82 58 161 hvcurveto
            26 vlineto
            124 -65 63 -97 -100 -50 -64 -79 -84 53 -43 78 vhcurveto
            45 0 36 13 23 15 -3 -106 -48 -25 -83 0 -30 0 -33 7 -16 6 rrcurveto
            -55 vlineto
            19 -11 34 -6 42 0 rrcurveto
            return
          </CharString>
          <CharString index="166">
            -45 -32 14 64 52 25 31 51 56 29 -45 -82 hvcurveto
            -10 vlineto
            -21 -12 -27 -12 -36 0 rrcurveto
            return
          </CharString>
          <CharString index="167">
            98 51 65 79 83 -53 44 -77 hvcurveto
            -45 0 -37 -13 -23 -15 6 111 58 19 70 0 30 0 30 -6 16 -5 rrcurveto
            55 vlineto
            -19 10 -31 5 -41 0 rrcurveto
            -104 -92 -57 -161 hvcurveto
            -26 vlineto
            -114 59 -74 104 vhcurveto
            return
          </CharString>
          <CharString index="168">
            150 86 54 144 hvcurveto
            return
          </CharString>
          <CharString index="169">
            -9 -29 -5 0 rlineto
            -27 18 -42 21 -62 0 rrcurveto
            -132 -96 -80 -182 hvcurveto
            -14 vlineto
            -183 113 -60 99 vhcurveto
            68 0 44 19 30 29 rrcurveto
            5 -49 hlineto
            -100 -61 -34 -104 vhcurveto
            -69 0 -66 20 -26 11 rrcurveto
            -65 vlineto
            34 -23 73 -17 71 0 rrcurveto
            return
          </CharString>
          <CharString index="170">
            -89 -60 40 135 hvcurveto
            22 vlineto
            130 55 44 93 vhcurveto
            51 0 47 -18 22 -18 rrcurveto
            -294 vlineto
            -22 -18 -40 -23 -57 0 rrcurveto
            return
          </CharString>
          <CharString index="171">
            38 0 18 7 20 9 rrcurveto
            61 vlineto
            -19 -5 -17 -1 -16 0 rrcurveto
            -30 -17 12 49 hvcurveto
            613 -88 -623 vlineto
            -91 45 -31 66 vhcurveto
            return
          </CharString>
        <CharString name=".notdef">
          26 endchar
        </CharString>
        <CharString name="A">
          134 21 -21 195 77 300 121 0 -20 hstemhm
          7 591 hintmask 11011000
          7 hmoveto
          -95 callsubr
          hintmask 11101000
          36 -121 rmoveto
          -94 callsubr
          endchar
        </CharString>
        <CharString name="AE">
          422 0 77 123 77 42 77 220 77 -71 71 hstemhm
          425 91 hintmask 11110100
          0 vmoveto
          -14 callsubr
          hintmask 11101100
          46 -71 rmoveto
          4 -345 -187 hlineto
          endchar
        </CharString>
        <CharString name="AEacute">
          422 0 77 123 77 42 77 220 77 -71 71 47 125 hstemhm
          425 91 hintmask 11110110
          0 vmoveto
          -14 callsubr
          hintmask 11101110
          46 -71 rmoveto
          4 -345 -187 hlineto
          315 463 rmoveto
          13 callsubr
          endchar
        </CharString>
        <CharString name="Aacute">
          134 21 -21 195 77 300 121 0 -20 67 125 hstemhm
          7 591 hintmask 11011100
          7 hmoveto
          -95 callsubr
          hintmask 11101100
          36 -121 rmoveto
          -94 callsubr
          68 468 rmoveto
          13 callsubr
          endchar
        </CharString>
        <CharString name="Abreve">
          134 21 -21 195 77 300 121 0 -20 65 66 hstemhm
          7 591 hintmask 11011100
          7 hmoveto
          -95 callsubr
          hintmask 11101100
          36 -121 rmoveto
          -94 callsubr
          113 466 rmoveto
          -20 callsubr
          endchar
        </CharString>
        <CharString name="Acircumflex">
          134 21 -21 195 77 300 121 0 -20 67 124 hstemhm
          7 591 hintmask 11011100
          7 hmoveto
          -95 callsubr
          hintmask 11101100
          36 -121 rmoveto
          -94 callsubr
          -22 468 rmoveto
          14 callsubr
          endchar
        </CharString>
        <CharString name="Adieresis">
          134 21 -21 195 77 300 121 0 -20 73 89 hstemhm
          172 86 88 86 hintmask 11011110
          7 hmoveto
          -95 callsubr
          hintmask 11101110
          36 -121 rmoveto
          -94 callsubr
          157 474 rmoveto
          86 89 -86 hlineto
          -174 -89 rmoveto
          86 89 -86 hlineto
          endchar
        </CharString>
        <CharString name="Agrave">
          134 21 -21 195 77 300 121 0 -20 67 125 hstemhm
          7 591 hintmask 11011100
          7 hmoveto
          -95 callsubr
          hintmask 11101100
          36 -121 rmoveto
          -94 callsubr
          86 468 rmoveto
          15 callsubr
          endchar
        </CharString>
        <CharString name="Amacron">
          134 21 -21 195 77 300 121 0 -20 75 73 hstemhm
          7 591 -415 238 hintmask 11011100
          7 hmoveto
          -95 callsubr
          hintmask 11101100
          36 -121 rmoveto
          -94 callsubr
          hintmask 11011010
          -6 476 rmoveto
          -21 callsubr
          endchar
        </CharString>
        <CharString name="Aogonek">
          134 -200 60 161 -21 195 77 300 121 0 -20 hstemhm
          437 78 hintmask 11101100
          544 -200 rmoveto
          25 0 17 5 14 5 rrcurveto
          54 vlineto
          -7 -2 -13 -2 -13 0 -29 0 -23 6 0 30 0 35 34 38 48 34 rrcurveto
          -249 690 -89 0 -252 -693 86 0 69 195 271 0 70 -195 rlineto
          -28 -21 -38 -46 0 -48 rrcurveto
          -52 39 -33 68 vhcurveto
          hintmask 11110100
          -249 772 rmoveto
          -94 callsubr
          endchar
        </CharString>
        <CharString name="Aring">
          134 21 -21 195 77 300 121 0 -20 56 43 98 43 hstemhm
          206 48 96 48 hintmask 11011111
          7 hmoveto
          -95 callsubr
          hintmask 11101111
          36 -121 rmoveto
          -94 callsubr
          113 457 rmoveto
          -19 callsubr
          43 vmoveto
          -18 callsubr
          endchar
        </CharString>
        <CharString name="Aringacute">
          134 21 -21 195 77 300 121 0 -20 56 43 98 43 23 125 hstemhm
          206 48 96 48 hintmask 1101110110000000
          7 hmoveto
          -95 callsubr
          hintmask 1110110110000000
          36 -121 rmoveto
          -94 callsubr
          113 457 rmoveto
          -19 callsubr
          43 vmoveto
          -18 callsubr
          hintmask 1101111110000000
          -42 164 rmoveto
          13 callsubr
          endchar
        </CharString>
        <CharString name="Atilde">
          134 21 -21 195 77 300 121 0 -20 74 71 -40 71 hstemhm
          7 591 hintmask 11011010
          7 hmoveto
          -95 callsubr
          hintmask 11100110
          36 -121 rmoveto
          -94 callsubr
          -36 473 rmoveto
          16 callsubr
          hintmask 11011010
          17 callsubr
          hintmask 11010110
          18 callsubr
          endchar
        </CharString>
        <CharString name="B">
          114 0 76 246 73 221 77 hstemhm
          78 91 255 94 -66 96 hintmask 11110100
          78 hmoveto
          233 hlineto
          158 79 83 114 hvcurveto
          0 100 -56 51 -87 16 rrcurveto
          4 vlineto
          hintmask 11111000
          84 27 29 54 0 69 rrcurveto
          109 -63 66 -162 vhcurveto
          -215 hlineto
          91 -617 rmoveto
          246 130 vlineto
          hintmask 11110100
          98 55 -34 -87 -84 -50 -41 -97 hvcurveto
          -136 319 rmoveto
          221 116 vlineto
          hintmask 11111000
          91 48 -25 -85 -86 -63 -25 -83 hvcurveto
          endchar
        </CharString>
        <CharString name="C">
          94 -12 78 561 78 hstem
          38 98 vstem
          342 -12 rmoveto
          -93 callsubr
          endchar
        </CharString>
        <CharString name="Cacute">
          94 -12 78 561 78 35 125 hstem
          38 98 vstem
          342 -12 rmoveto
          -93 callsubr
          -53 752 rmoveto
          13 callsubr
          endchar
        </CharString>
        <CharString name="Cacute.pl">
          94 -12 78 561 78 35 125 hstem
          38 98 vstem
          342 -12 rmoveto
          -93 callsubr
          -42 752 rmoveto
          39 callsubr
          endchar
        </CharString>
        <CharString name="Ccaron">
          94 -12 78 561 78 35 124 hstem
          38 98 vstem
          342 -12 rmoveto
          -93 callsubr
          127 876 rmoveto
          20 callsubr
          endchar
        </CharString>
        <CharString name="Ccedilla">
          94 -217 52 72 45 36 78 -50 -21 632 78 hstemhm
          38 98 132 57 24 72 hintmask 11101110
          342 -12 rmoveto
          79 0 65 17 49 28 rrcurveto
          77 vlineto
          -44 -21 -53 -23 -84 0 rrcurveto
          -155 -63 101 171 hvcurveto
          38 vlineto
          179 90 72 124 vhcurveto
          68 0 51 -14 58 -22 rrcurveto
          76 vlineto
          -43 23 -55 15 -73 0 rrcurveto
          -175 -143 -94 -250 hvcurveto
          -24 vlineto
          hintmask 11011110
          0 -202 87 -113 143 -27 rrcurveto
          -88 vlineto
          hintmask 11101111
          19 callsubr
          hintmask 11101110
          0 44 -36 23 -60 3 rrcurveto
          36 vlineto
          endchar
        </CharString>
        <CharString name="Ccircumflex">
          94 -12 78 561 78 35 124 hstem
          38 98 vstem
          342 -12 rmoveto
          -93 callsubr
          -143 752 rmoveto
          14 callsubr
          endchar
        </CharString>
        <CharString name="Cdotaccent">
          94 -12 78 561 78 41 91 hstem
          38 98 153 90 vstem
          342 -12 rmoveto
          -93 callsubr
          -53 758 rmoveto
          90 91 -90 hlineto
          endchar
        </CharString>
        <CharString name="D">
          180 0 78 537 78 hstem
          78 91 346 98 vstem
          78 hmoveto
          -92 callsubr
          91 -615 rmoveto
          -91 callsubr
          endchar
        </CharString>
        <CharString name="Dcaron">
          180 0 78 537 78 47 124 hstem
          78 91 346 98 vstem
          78 hmoveto
          -92 callsubr
          91 -615 rmoveto
          -91 callsubr
          154 786 rmoveto
          20 callsubr
          endchar
        </CharString>
        <CharString name="Dcroat">
          180 0 78 231 77 229 78 hstem
          78 91 346 98 vstem
          7 309 rmoveto
          1 callsubr
          162 -308 rmoveto
          2 callsubr
          endchar
        </CharString>
        <CharString name="E">
          76 0 77 242 77 220 77 hstem
          78 91 vstem
          78 hmoveto
          -90 callsubr
          endchar
        </CharString>
        <CharString name="Eacute">
          76 0 77 242 77 220 77 47 125 hstem
          78 91 vstem
          78 hmoveto
          -90 callsubr
          166 47 rmoveto
          13 callsubr
          endchar
        </CharString>
        <CharString name="Ebreve">
          76 0 77 242 77 220 77 45 66 hstem
          78 91 vstem
          78 hmoveto
          -90 callsubr
          211 45 rmoveto
          -20 callsubr
          endchar
        </CharString>
        <CharString name="Ecaron">
          76 0 77 242 77 220 77 47 124 hstem
          78 91 vstem
          78 hmoveto
          -90 callsubr
          350 171 rmoveto
          20 callsubr
          endchar
        </CharString>
        <CharString name="Ecircumflex">
          76 0 77 242 77 220 77 47 124 hstem
          78 91 vstem
          78 hmoveto
          -90 callsubr
          76 47 rmoveto
          14 callsubr
          endchar
        </CharString>
        <CharString name="Edieresis">
          76 0 77 242 77 220 77 53 89 hstemhm
          78 91 -10 86 88 86 hintmask 11111010
          78 hmoveto
          -90 callsubr
          255 53 rmoveto
          86 89 -86 hlineto
          hintmask 11110110
          -174 -89 rmoveto
          86 89 -86 hlineto
          endchar
        </CharString>
        <CharString name="Edotaccent">
          76 0 77 242 77 220 77 53 91 hstem
          78 91 79 90 vstem
          78 hmoveto
          -90 callsubr
          170 53 rmoveto
          90 91 -90 hlineto
          endchar
        </CharString>
        <CharString name="Egrave">
          76 0 77 242 77 220 77 47 125 hstem
          78 91 vstem
          78 hmoveto
          -90 callsubr
          184 47 rmoveto
          15 callsubr
          endchar
        </CharString>
        <CharString name="Emacron">
          76 0 77 242 77 220 77 55 73 hstem
          78 91 1 238 vstem
          78 hmoveto
          -90 callsubr
          92 55 rmoveto
          -21 callsubr
          endchar
        </CharString>
        <CharString name="Eng">
          196 -177 76 122 -21 568 125 0 -20 hstemhm
          78 83 345 83 hintmask 11011100
          418 -177 rmoveto
          121 50 74 96 hvcurveto
          700 -83 -539 -3 vlineto
          -318 539 -107 0 0 -693 83 0 rlineto
          hintmask 11101100
          568 3 vlineto
          341 -585 rlineto
          -5 -56 -36 -28 -60 0 -38 0 -33 7 -26 8 rrcurveto
          -68 vlineto
          31 -15 31 -8 49 0 rrcurveto
          endchar
        </CharString>
        <CharString name="Eogonek">
          76 -200 60 140 77 242 77 220 77 hstem
          78 91 119 78 vstem
          78 hmoveto
          288 hlineto
          -34 -22 -44 -41 0 -52 0 -52 39 -33 68 0 25 0 17 5 14 5 rrcurveto
          54 vlineto
          -7 -2 -13 -2 -13 0 -29 0 -23 6 0 30 0 35 34 36 42 33 rrcurveto
          52 77 -325 242 248 77 -248 220 322 77 -413 hlineto
          endchar
        </CharString>
        <CharString name="Eth">
          180 0 78 231 77 229 78 hstem
          78 91 346 98 vstem
          7 309 rmoveto
          1 callsubr
          162 -308 rmoveto
          2 callsubr
          endchar
        </CharString>
        <CharString name="Euro">
          103 -12 78 166 73 78 73 171 78 hstem
          93 97 vstem
          23 383 rmoveto
          70 -78 -70 -73 77 hlineto
          31 -186 121 -58 122 0 70 0 56 16 49 28 rrcurveto
          77 vlineto
          -44 -21 -45 -22 -74 0 -95 0 -72 34 -22 132 rrcurveto
          213 73 -220 78 220 73 -216 hlineto
          19 142 82 29 81 0 65 0 42 -12 58 -22 rrcurveto
          76 vlineto
          -43 23 -47 13 -69 0 -120 0 -134 -53 -29 -196 rrcurveto
          -76 hlineto
          endchar
        </CharString>
        <CharString name="Euro.old">
          68 -11 73 153 69 71 69 156 75 hstem
          89 90 vstem
          24 355 rmoveto
          65 -71 -65 -69 72 hlineto
          26 -156 98 -70 131 0 65 0 52 15 45 26 rrcurveto
          71 vlineto
          -41 -19 -41 -20 -69 0 -106 0 -53 51 -17 102 rrcurveto
          198 69 -205 71 205 69 -201 hlineto
          17 121 67 35 85 0 61 0 39 -11 54 -21 rrcurveto
          71 vlineto
          -40 22 -44 14 -64 0 -126 0 -112 -60 -26 -171 rrcurveto
          -70 hlineto
          endchar
        </CharString>
        <CharString name="F">
          40 21 -21 306 77 233 77 hstem
          78 91 vstem
          78 hmoveto
          91 306 240 77 -240 233 311 77 -402 hlineto
          endchar
        </CharString>
        <CharString name="G">
          162 -12 77 199 76 287 78 hstem
          38 98 350 91 vstem
          360 -12 rmoveto
          -89 callsubr
          endchar
        </CharString>
        <CharString name="Gbreve">
          162 -12 77 199 76 287 78 33 66 hstem
          38 98 350 91 vstem
          360 -12 rmoveto
          -89 callsubr
          -16 750 rmoveto
          -20 callsubr
          endchar
        </CharString>
        <CharString name="Gcircumflex">
          162 -12 77 199 76 287 78 35 124 hstem
          38 98 350 91 vstem
          360 -12 rmoveto
          -89 callsubr
          -151 752 rmoveto
          14 callsubr
          endchar
        </CharString>
        <CharString name="Gcommaaccent">
          162 -182 140 30 77 199 76 287 78 hstem
          38 98 350 91 vstem
          360 -12 rmoveto
          -89 callsubr
          -72 -170 rmoveto
          32 callsubr
          endchar
        </CharString>
        <CharString name="Gdotaccent">
          162 -12 77 199 76 287 78 41 91 hstem
          38 98 163 90 97 91 vstem
          360 -12 rmoveto
          -89 callsubr
          -61 758 rmoveto
          90 91 -90 hlineto
          endchar
        </CharString>
        <CharString name="H">
          200 21 -21 320 77 296 -20 hstem
          78 91 333 91 vstem
          78 hmoveto
          -88 callsubr
          endchar
        </CharString>
        <CharString name="Hbar">
          200 21 -21 320 77 105 65 -65 191 hstemhm
          78 91 333 91 hintmask 11101100
          20 502 rmoveto
          58 -502 91 320 333 -320 91 502 58 65 -58 hlineto
          hintmask 11011100
          126 -91 vlineto
          hintmask 11101100
          -126 -333 vlineto
          hintmask 11011100
          126 -91 vlineto
          hintmask 11101100
          -126 -58 vlineto
          149 -170 rmoveto
          105 333 -105 vlineto
          endchar
        </CharString>
        <CharString name="Hcircumflex">
          200 21 -21 320 77 296 -20 67 124 hstem
          78 91 333 91 vstem
          78 hmoveto
          -88 callsubr
          122 47 rmoveto
          14 callsubr
          endchar
        </CharString>
        <CharString name="I">
          -218 21 -21 693 -20 hstem
          81 91 vstem
          81 hmoveto
          -87 callsubr
          endchar
        </CharString>
        <CharString name="IJ">
          153 -7 78 -50 -21 693 -20 hstemhm
          81 91 287 92 hintmask 01111000
          81 hmoveto
          -87 callsubr
          hintmask 10111000
          167 -682 rmoveto
          32 -12 33 -6 48 0 rrcurveto
          134 56 83 104 hvcurveto
          513 -92 -510 vlineto
          -71 -30 -41 -76 vhcurveto
          -43 0 -35 6 -28 9 rrcurveto
          endchar
        </CharString>
        <CharString name="Iacute">
          -218 21 -21 693 -20 67 125 hstem
          81 91 vstem
          81 hmoveto
          -87 callsubr
          47 vmoveto
          13 callsubr
          endchar
        </CharString>
        <CharString name="Ibreve">
          -218 21 -21 693 -20 65 66 hstem
          81 91 vstem
          81 hmoveto
          -87 callsubr
          45 45 rmoveto
          -20 callsubr
          endchar
        </CharString>
        <CharString name="Icircumflex">
          -218 21 -21 693 -20 67 124 hstem
          81 91 vstem
          81 hmoveto
          -87 callsubr
          -90 47 rmoveto
          14 callsubr
          endchar
        </CharString>
        <CharString name="Idieresis">
          -218 21 -21 693 -20 73 89 hstemhm
          6 86 -11 91 -12 86 hintmask 11110100
          160 746 rmoveto
          86 89 -86 hlineto
          -154 -89 rmoveto
          86 89 -86 hlineto
          hintmask 11101000
          75 -835 rmoveto
          -87 callsubr
          endchar
        </CharString>
        <CharString name="Idotaccent">
          -218 21 -21 693 -20 73 91 hstem
          81 91 vstem
          81 hmoveto
          -87 callsubr
          53 vmoveto
          90 91 -90 hlineto
          endchar
        </CharString>
        <CharString name="Igrave">
          -218 21 -21 693 -20 67 125 hstem
          81 91 vstem
          81 hmoveto
          -87 callsubr
          18 47 rmoveto
          15 callsubr
          endchar
        </CharString>
        <CharString name="Imacron">
          -218 21 -21 693 -20 75 73 hstem
          81 91 vstem
          31 748 rmoveto
          190 73 -190 hlineto
          50 -821 rmoveto
          -87 callsubr
          endchar
        </CharString>
        <CharString name="Iogonek">
          -218 -200 60 833 -20 hstemhm
          17 78 -14 91 hintmask 11100000
          17 -114 rmoveto
          -52 37 -34 68 vhcurveto
          25 0 17 5 14 5 rrcurveto
          54 vlineto
          -7 -2 -13 -2 -13 0 -29 0 -21 8 0 29 rrcurveto
          hintmask 11010000
          0 35 32 36 45 34 rrcurveto
          691 -91 -696 vlineto
          -32 -24 -32 -40 0 -47 rrcurveto
          endchar
        </CharString>
        <CharString name="Itilde">
          -218 21 -21 693 -20 74 71 -40 71 hstemhm
          81 91 hintmask 11101000
          81 hmoveto
          -87 callsubr
          hintmask 11011000
          -104 52 rmoveto
          16 callsubr
          hintmask 11101000
          17 callsubr
          hintmask 11011000
          36 callsubr
          endchar
        </CharString>
        <CharString name="J">
          -49 -7 78 622 -20 hstem
          257 92 vstem
          159 -7 rmoveto
          -86 callsubr
          endchar
        </CharString>
        <CharString name="Jcircumflex">
          -49 -7 78 622 -20 67 124 hstem
          257 92 vstem
          159 -7 rmoveto
          -86 callsubr
          8 747 rmoveto
          14 callsubr
          endchar
        </CharString>
        <CharString name="K">
          115 21 -21 693 -20 hstem
          78 91 vstem
          466 hmoveto
          -85 callsubr
          -119 -354 rmoveto
          -87 callsubr
          endchar
        </CharString>
        <CharString name="Kcommaaccent">
          115 -182 140 63 -21 693 -20 hstem
          78 91 vstem
          466 hmoveto
          -85 callsubr
          -119 -354 rmoveto
          -87 callsubr
          170 -875 rmoveto
          32 callsubr
          endchar
        </CharString>
        <CharString name="L">
          27 0 77 616 -20 hstem
          78 91 vstem
          78 hmoveto
          -84 callsubr
          endchar
        </CharString>
        <CharString name="Lacute">
          27 0 77 616 -20 67 125 hstem
          78 91 vstem
          78 hmoveto
          -84 callsubr
          2 47 rmoveto
          13 callsubr
          endchar
        </CharString>
        <CharString name="Lcaron">
          27 0 77 437 179 hstem
          78 91 vstem
          78 hmoveto
          -84 callsubr
          291 -179 rmoveto
          34 179 -86 0 -11 -179 rlineto
          endchar
        </CharString>
        <CharString name="Lcommaaccent">
          27 -182 140 42 77 616 -20 hstem
          78 91 vstem
          78 hmoveto
          -84 callsubr
          143 -875 rmoveto
          32 callsubr
          endchar
        </CharString>
        <CharString name="Ldot">
          27 0 77 238 101 277 -20 hstem
          78 91 184 100 vstem
          78 hmoveto
          -84 callsubr
          275 -378 rmoveto
          100 101 -100 hlineto
          endchar
        </CharString>
        <CharString name="Lslash">
          31 0 77 616 -20 hstem
          78 91 vstem
          1 214 rmoveto
          77 33 0 -247 397 0 0 77 -306 0 0 209 205 88 0 78 -205 -88 0 329 -91 0 0 -368 -77 -33 rlineto
          endchar
        </CharString>
        <CharString name="M">
          334 21 -21 0 119 454 120 hstemhm
          78 83 475 91 hintmask 10111000
          78 hmoveto
          83 573 3 hlineto
          191 -573 86 0 192 573 3 0 0 -573 91 0 0 693 -133 0 rlineto
          hintmask 01111000
          -189 -574 -3 0 -190 574 -134 0 rlineto
          endchar
        </CharString>
        <CharString name="N">
          196 21 -21 0 154 414 125 0 -20 hstemhm
          78 83 345 83 hintmask 10011100
          78 hmoveto
          83 hlineto
          hintmask 10101100
          -83 callsubr
          hintmask 01011100
          -82 callsubr
          endchar
        </CharString>
        <CharString name="Nacute">
          196 21 -21 0 154 414 125 0 -20 67 125 hstemhm
          78 83 345 83 hintmask 10011110
          78 hmoveto
          83 hlineto
          hintmask 10101110
          -83 callsubr
          hintmask 01011110
          -82 callsubr
          229 47 rmoveto
          13 callsubr
          endchar
        </CharString>
        <CharString name="Nacute.pl">
          196 21 -21 0 154 414 125 0 -20 67 125 hstemhm
          78 83 345 83 hintmask 10011110
          78 hmoveto
          83 hlineto
          hintmask 10101110
          -83 callsubr
          hintmask 01011110
          -82 callsubr
          240 47 rmoveto
          39 callsubr
          endchar
        </CharString>
        <CharString name="Ncaron">
          196 21 -21 0 154 414 125 0 -20 67 124 hstemhm
          78 83 345 83 hintmask 10011110
          78 hmoveto
          83 hlineto
          hintmask 10101110
          -83 callsubr
          hintmask 01011110
          -82 callsubr
          409 171 rmoveto
          20 callsubr
          endchar
        </CharString>
        <CharString name="Ncommaaccent">
          196 -182 140 63 -21 0 154 414 125 0 -20 hstemhm
          78 83 345 83 hintmask 11001110
          78 hmoveto
          83 hlineto
          hintmask 11010110
          -83 callsubr
          hintmask 10101110
          -82 callsubr
          195 -875 rmoveto
          32 callsubr
          endchar
        </CharString>
        <CharString name="Ntilde">
          196 21 -21 0 154 414 125 0 -20 74 71 -40 71 hstemhm
          78 83 345 83 hintmask 10011011
          78 hmoveto
          83 hlineto
          hintmask 10101011
          -83 callsubr
          hintmask 01010111
          -82 callsubr
          125 52 rmoveto
          16 callsubr
          hintmask 10011011
          17 callsubr
          hintmask 10010111
          18 callsubr
          endchar
        </CharString>
        <CharString name="O">
          216 -12 75 567 75 hstem
          38 98 415 98 vstem
          342 -12 rmoveto
          -81 callsubr
          3 75 rmoveto
          -80 callsubr
          endchar
        </CharString>
        <CharString name="OE">
          463 0 77 242 77 220 77 hstem
          38 98 329 91 vstem
          359 hmoveto
          522 77 -325 242 248 77 -248 220 322 77 -521 hlineto
          -219 -100 -130 -216 hvcurveto
          -20 vlineto
          -220 116 -107 205 vhcurveto
          8 78 rmoveto
          -145 -86 61 188 hvcurveto
          34 vlineto
          178 69 76 150 vhcurveto
          110 -537 hlineto
          endchar
        </CharString>
        <CharString name="Oacute">
          216 -12 75 567 75 35 125 hstem
          38 98 415 98 vstem
          342 -12 rmoveto
          -81 callsubr
          3 75 rmoveto
          -80 callsubr
          -47 677 rmoveto
          13 callsubr
          endchar
        </CharString>
        <CharString name="Oacute.pl">
          216 -12 75 567 75 35 125 hstem
          38 98 415 98 vstem
          342 -12 rmoveto
          -81 callsubr
          3 75 rmoveto
          -80 callsubr
          -36 677 rmoveto
          39 callsubr
          endchar
        </CharString>
        <CharString name="Obreve">
          216 -12 75 567 75 33 66 hstem
          38 98 415 98 vstem
          342 -12 rmoveto
          -81 callsubr
          3 75 rmoveto
          -80 callsubr
          -2 675 rmoveto
          -20 callsubr
          endchar
        </CharString>
        <CharString name="Ocircumflex">
          216 -12 75 567 75 35 124 hstem
          38 98 415 98 vstem
          342 -12 rmoveto
          -81 callsubr
          3 75 rmoveto
          -80 callsubr
          -137 677 rmoveto
          14 callsubr
          endchar
        </CharString>
        <CharString name="Odieresis">
          216 -12 75 567 75 41 89 hstem
          38 98 77 86 88 86 78 98 vstem
          342 -12 rmoveto
          -81 callsubr
          3 75 rmoveto
          -80 callsubr
          42 683 rmoveto
          86 89 -86 hlineto
          -174 -89 rmoveto
          86 89 -86 hlineto
          endchar
        </CharString>
        <CharString name="Ograve">
          216 -12 75 567 75 35 125 hstem
          38 98 415 98 vstem
          342 -12 rmoveto
          -81 callsubr
          3 75 rmoveto
          -80 callsubr
          -29 677 rmoveto
          15 callsubr
          endchar
        </CharString>
        <CharString name="Ohungarumlaut">
          216 -12 75 567 75 35 125 hstem
          38 98 415 98 vstem
          342 -12 rmoveto
          -81 callsubr
          3 75 rmoveto
          -80 callsubr
          -121 677 rmoveto
          37 callsubr
          119 -125 rmoveto
          38 callsubr
          endchar
        </CharString>
        <CharString name="Omacron">
          216 -12 75 567 75 43 73 hstem
          38 98 88 238 89 98 vstem
          342 -12 rmoveto
          -81 callsubr
          3 75 rmoveto
          -80 callsubr
          -121 685 rmoveto
          -21 callsubr
          endchar
        </CharString>
        <CharString name="Oslash">
          216 -12 75 -42 -21 592 -20 58 75 -12 -20 hstemhm
          38 98 415 98 hintmask 10110110
          342 -12 rmoveto
          -13 callsubr
          hintmask 10101110
          83 101 -87 0 rlineto
          hintmask 01110110
          -12 callsubr
          hintmask 10110110
          -11 callsubr
          3 75 rmoveto
          -10 callsubr
          -209 276 rmoveto
          -9 callsubr
          endchar
        </CharString>
        <CharString name="Oslashacute">
          216 -12 75 -42 -21 592 -20 58 75 -12 -20 67 125 hstemhm
          38 98 415 98 hintmask 10110111
          342 -12 rmoveto
          -13 callsubr
          hintmask 10101111
          83 101 -87 0 rlineto
          hintmask 01110111
          -12 callsubr
          hintmask 10110111
          -11 callsubr
          3 75 rmoveto
          -10 callsubr
          -209 276 rmoveto
          -9 callsubr
          157 401 rmoveto
          13 callsubr
          endchar
        </CharString>
        <CharString name="Otilde">
          216 -12 75 567 75 42 71 -40 71 hstemhm
          38 98 415 98 hintmask 11011100
          342 -12 rmoveto
          -81 callsubr
          3 75 rmoveto
          -80 callsubr
          -151 682 rmoveto
          16 callsubr
          hintmask 11101100
          17 callsubr
          hintmask 11011100
          18 callsubr
          endchar
        </CharString>
        <CharString name="P">
          83 21 -21 273 76 267 77 hstem
          78 91 264 97 vstem
          78 hmoveto
          91 273 139 hlineto
          131 91 74 140 131 -78 75 -153 hvcurveto
          -221 hlineto
          91 -344 rmoveto
          267 121 vlineto
          104 39 -39 -97 -89 -41 -42 -104 hvcurveto
          endchar
        </CharString>
        <CharString name="Q">
          216 630 75 hstem
          38 98 415 98 vstem
          649 336 rmoveto
          20 vlineto
          225 -115 124 -188 -193 -115 -133 -215 vhcurveto
          -20 vlineto
          0 -190 76 -110 143 -43 rrcurveto
          393 -117 23 81 -232 56 rlineto
          134 37 74 109 0 176 rrcurveto
          -304 -275 rmoveto
          -154 -55 117 161 hvcurveto
          34 vlineto
          146 65 111 140 vhcurveto
          155 -1 55 -113 0 -161 rrcurveto
          -34 vlineto
          -146 -66 -114 -140 vhcurveto
          endchar
        </CharString>
        <CharString name="R">
          107 21 -21 293 72 251 77 hstem
          78 91 248 97 vstem
          78 hmoveto
          -79 callsubr
          91 -328 rmoveto
          -78 callsubr
          endchar
        </CharString>
        <CharString name="Racute">
          107 21 -21 293 72 251 77 47 125 hstem
          78 91 248 97 vstem
          78 hmoveto
          -79 callsubr
          91 -328 rmoveto
          -78 callsubr
          -37 375 rmoveto
          13 callsubr
          endchar
        </CharString>
        <CharString name="Rcaron">
          107 21 -21 293 72 251 77 47 124 hstem
          78 91 248 97 vstem
          78 hmoveto
          -79 callsubr
          91 -328 rmoveto
          -78 callsubr
          143 499 rmoveto
          20 callsubr
          endchar
        </CharString>
        <CharString name="Rcommaaccent">
          107 -182 140 63 -21 293 72 251 77 hstem
          78 91 248 97 vstem
          78 hmoveto
          -79 callsubr
          91 -328 rmoveto
          -78 callsubr
          -27 -547 rmoveto
          32 callsubr
          endchar
        </CharString>
        <CharString name="S">
          26 -13 78 562 78 hstem
          37 91 240 93 vstem
          227 -13 rmoveto
          -77 callsubr
          endchar
        </CharString>
        <CharString name="Sacute">
          26 -13 78 562 78 35 125 hstem
          37 91 240 93 vstem
          227 -13 rmoveto
          -77 callsubr
          -24 753 rmoveto
          13 callsubr
          endchar
        </CharString>
        <CharString name="Sacute.pl">
          26 -13 78 562 78 35 125 hstem
          37 91 240 93 vstem
          227 -13 rmoveto
          -77 callsubr
          -13 753 rmoveto
          39 callsubr
          endchar
        </CharString>
        <CharString name="Scaron">
          26 -13 78 562 78 35 124 hstem
          37 91 240 93 vstem
          227 -13 rmoveto
          -77 callsubr
          156 877 rmoveto
          20 callsubr
          endchar
        </CharString>
        <CharString name="Scedilla">
          26 -217 52 72 45 35 78 -76 76 562 78 hstemhm
          37 91 55 57 24 72 32 93 hintmask 1110111010000000
          162 -217 rmoveto
          hintmask 1110111110000000
          130 9 44 31 0 59 rrcurveto
          hintmask 1110111010000000
          0 44 -36 23 -60 3 rrcurveto
          35 vlineto
          154 5 67 80 0 119 0 117 -64 45 -102 34 rrcurveto
          -72 24 rlineto
          -73 24 -22 28 0 63 0 64 46 37 79 0 76 0 55 -18 42 -19 rrcurveto
          77 vlineto
          -39 19 -47 19 -84 0 -145 0 -74 -78 0 -109 0 -107 56 -51 93 -31 rrcurveto
          72 -24 rlineto
          81 -27 29 -28 0 -66 0 -72 -45 -47 -101 0 -72 0 -68 18 -54 27 rrcurveto
          hintmask 1101111010000000
          -77 vlineto
          38 -22 51 -16 66 -6 rrcurveto
          -82 vlineto
          hintmask 1110111110000000
          40 callsubr
          endchar
        </CharString>
        <CharString name="Scircumflex">
          26 -13 78 562 78 35 124 hstem
          37 91 240 93 vstem
          227 -13 rmoveto
          -77 callsubr
          -114 753 rmoveto
          14 callsubr
          endchar
        </CharString>
        <CharString name="Scommaaccent">
          26 -182 140 29 78 562 78 hstem
          37 91 240 93 vstem
          227 -13 rmoveto
          -77 callsubr
          -50 -169 rmoveto
          32 callsubr
          endchar
        </CharString>
        <CharString name="T">
          66 21 -21 616 77 hstem
          223 91 vstem
          223 hmoveto
          -76 callsubr
          endchar
        </CharString>
        <CharString name="Tbar">
          66 21 -21 357 63 196 77 hstem
          223 91 vstem
          84 357 rmoveto
          139 -357 91 357 139 63 -139 196 205 77 -501 -77 205 -196 -139 hlineto
          endchar
        </CharString>
        <CharString name="Tcaron">
          66 21 -21 616 77 47 124 hstem
          223 91 vstem
          223 hmoveto
          -76 callsubr
          180 248 rmoveto
          20 callsubr
          endchar
        </CharString>
        <CharString name="Tcommaaccent">
          66 -182 140 63 -21 616 77 hstem
          223 91 vstem
          223 hmoveto
          -76 callsubr
          -15 -798 rmoveto
          32 callsubr
          endchar
        </CharString>
        <CharString name="Thorn">
          83 21 -21 165 76 254 77 121 -20 hstem
          78 91 266 95 vstem
          78 hmoveto
          91 165 139 hlineto
          131 91 72 136 127 -78 72 -153 hvcurveto
          -130 121 -91 hlineto
          91 -452 rmoveto
          254 121 vlineto
          104 41 -35 -94 -86 -43 -39 -104 hvcurveto
          endchar
        </CharString>
        <CharString name="U">
          184 -13 72 634 -20 hstem
          73 91 334 84 vstem
          331 -13 rmoveto
          -75 callsubr
          endchar
        </CharString>
        <CharString name="Uacute">
          184 -13 72 634 -20 67 125 hstem
          73 91 334 84 vstem
          331 -13 rmoveto
          -75 callsubr
          -45 753 rmoveto
          13 callsubr
          endchar
        </CharString>
        <CharString name="Ubreve">
          184 -13 72 634 -20 65 66 hstem
          73 91 334 84 vstem
          331 -13 rmoveto
          -75 callsubr
          751 vmoveto
          -20 callsubr
          endchar
        </CharString>
        <CharString name="Ucircumflex">
          184 -13 72 634 -20 67 124 hstem
          73 91 334 84 vstem
          331 -13 rmoveto
          -75 callsubr
          -135 753 rmoveto
          14 callsubr
          endchar
        </CharString>
        <CharString name="Udieresis">
          184 -13 72 634 -20 73 89 hstem
          73 91 37 86 88 86 37 84 vstem
          331 -13 rmoveto
          -75 callsubr
          44 759 rmoveto
          86 89 -86 hlineto
          -174 -89 rmoveto
          86 89 -86 hlineto
          endchar
        </CharString>
        <CharString name="Ugrave">
          184 -13 72 634 -20 67 125 hstem
          73 91 334 84 vstem
          331 -13 rmoveto
          -75 callsubr
          -27 753 rmoveto
          15 callsubr
          endchar
        </CharString>
        <CharString name="Uhungarumlaut">
          184 -13 72 634 -20 67 125 hstem
          73 91 334 84 vstem
          331 -13 rmoveto
          -75 callsubr
          -119 753 rmoveto
          37 callsubr
          119 -125 rmoveto
          38 callsubr
          endchar
        </CharString>
        <CharString name="Umacron">
          184 -13 72 634 -20 75 73 hstem
          73 91 48 238 48 84 vstem
          331 -13 rmoveto
          -75 callsubr
          -119 761 rmoveto
          -21 callsubr
          endchar
        </CharString>
        <CharString name="Uogonek">
          184 -200 60 127 72 634 -20 hstem
          73 91 95 78 161 84 vstem
          366 -200 rmoveto
          25 0 17 5 14 5 rrcurveto
          54 vlineto
          -7 -2 -13 -2 -13 0 -29 0 -23 6 0 30 0 36 28 31 44 22 42 21 36 8 39 42 37 40 19 61 0 87 rrcurveto
          449 -84 -445 vlineto
          -147 -53 -42 -110 -111 -60 43 145 vhcurveto
          446 -91 -452 vlineto
          0 -170 90 -81 160 -3 -31 -21 -33 -35 0 -46 0 -52 39 -33 68 0 rrcurveto
          endchar
        </CharString>
        <CharString name="Uring">
          184 -13 72 634 -20 36 43 98 43 hstem
          73 91 71 48 96 48 71 84 vstem
          331 -13 rmoveto
          -75 callsubr
          722 vmoveto
          21 callsubr
          43 vmoveto
          -18 callsubr
          endchar
        </CharString>
        <CharString name="Utilde">
          184 -13 72 634 -20 74 71 -40 71 hstemhm
          73 91 334 84 hintmask 11101100
          331 -13 rmoveto
          -75 callsubr
          hintmask 11011100
          -149 758 rmoveto
          16 callsubr
          hintmask 11101100
          17 callsubr
          hintmask 11011100
          36 callsubr
          endchar
        </CharString>
        <CharString name="V">
          128 21 -21 0 122 571 -20 hstemhm
          8 583 hintmask 10110000
          257 hmoveto
          85 0 249 693 -86 0 rlineto
          hintmask 01110000
          -199 -571 -3 0 -200 571 -95 0 rlineto
          endchar
        </CharString>
        <CharString name="W">
          390 21 -21 0 143 550 -20 hstemhm
          16 829 hintmask 10110000
          190 hmoveto
          -74 callsubr
          hintmask 01110000
          -73 callsubr
          endchar
        </CharString>
        <CharString name="Wacute">
          390 21 -21 0 143 550 -20 67 125 hstemhm
          16 829 hintmask 10111000
          190 hmoveto
          -74 callsubr
          hintmask 01111000
          -73 callsubr
          375 47 rmoveto
          13 callsubr
          endchar
        </CharString>
        <CharString name="Wcircumflex">
          390 21 -21 0 143 550 -20 67 124 hstemhm
          16 829 hintmask 10111000
          190 hmoveto
          -74 callsubr
          hintmask 01111000
          -73 callsubr
          285 47 rmoveto
          14 callsubr
          endchar
        </CharString>
        <CharString name="Wdieresis">
          390 21 -21 0 143 550 -20 73 89 hstemhm
          306 86 88 86 hintmask 10111100
          190 hmoveto
          -74 callsubr
          hintmask 01111100
          -73 callsubr
          464 53 rmoveto
          86 89 -86 hlineto
          -174 -89 rmoveto
          86 89 -86 hlineto
          endchar
        </CharString>
        <CharString name="Wgrave">
          390 21 -21 0 143 550 -20 67 125 hstemhm
          16 829 hintmask 10111000
          190 hmoveto
          -74 callsubr
          hintmask 01111000
          -73 callsubr
          393 47 rmoveto
          15 callsubr
          endchar
        </CharString>
        <CharString name="X">
          129 21 -21 693 -20 hstem
          22 556 vstem
          22 hmoveto
          94 0 179 286 3 0 178 -286 102 0 -219 352 207 341 -94 0 -160 -272 -4 0 -172 272 -102 0 215 -340 rlineto
          endchar
        </CharString>
        <CharString name="Y">
          83 21 -21 693 -20 hstem
          232 91 vstem
          232 hmoveto
          -72 callsubr
          endchar
        </CharString>
        <CharString name="Yacute">
          83 21 -21 693 -20 67 125 hstem
          232 91 vstem
          232 hmoveto
          -72 callsubr
          5 472 rmoveto
          13 callsubr
          endchar
        </CharString>
        <CharString name="Ycircumflex">
          83 21 -21 693 -20 67 124 hstem
          232 91 vstem
          232 hmoveto
          -72 callsubr
          -85 472 rmoveto
          14 callsubr
          endchar
        </CharString>
        <CharString name="Ydieresis">
          83 21 -21 693 -20 73 89 hstemhm
          152 86 -6 91 3 86 hintmask 11101000
          232 hmoveto
          -72 callsubr
          hintmask 11110100
          94 478 rmoveto
          86 89 -86 hlineto
          -174 -89 rmoveto
          86 89 -86 hlineto
          endchar
        </CharString>
        <CharString name="Ygrave">
          83 21 -21 693 -20 67 125 hstem
          232 91 vstem
          232 hmoveto
          -72 callsubr
          23 472 rmoveto
          15 callsubr
          endchar
        </CharString>
        <CharString name="Z">
          64 0 77 539 77 hstem
          27 109 264 110 vstem
          27 hmoveto
          -71 callsubr
          endchar
        </CharString>
        <CharString name="Zacute">
          64 0 77 539 77 47 125 hstem
          27 109 264 110 vstem
          27 hmoveto
          -71 callsubr
          205 671 rmoveto
          13 callsubr
          endchar
        </CharString>
        <CharString name="Zacute.pl">
          64 0 77 539 77 47 125 hstem
          27 109 264 110 vstem
          27 hmoveto
          -71 callsubr
          217 671 rmoveto
          39 callsubr
          endchar
        </CharString>
        <CharString name="Zcaron">
          64 0 77 539 77 47 124 hstem
          27 109 264 110 vstem
          27 hmoveto
          -71 callsubr
          393 795 rmoveto
          20 callsubr
          endchar
        </CharString>
        <CharString name="Zdotaccent">
          64 0 77 539 77 53 91 hstem
          27 109 96 90 78 110 vstem
          27 hmoveto
          -71 callsubr
          205 677 rmoveto
          90 91 -90 hlineto
          endchar
        </CharString>
        <CharString name="a">
          -2 -10 68 -37 -21 447 76 hstemhm
          30 91 200 88 hintmask 10111000
          189 -10 rmoveto
          -67 callsubr
          hintmask 01111000
          -66 callsubr
          23 68 rmoveto
          -65 callsubr
          endchar
        </CharString>
        <CharString name="aacute">
          -2 -10 68 -37 -21 447 76 64 145 hstemhm
          30 91 200 88 hintmask 10111100
          189 -10 rmoveto
          -67 callsubr
          hintmask 01111100
          -66 callsubr
          23 68 rmoveto
          -65 callsubr
          -29 529 rmoveto
          -26 callsubr
          endchar
        </CharString>
        <CharString name="abreve">
          -2 -10 68 -37 -21 447 76 70 66 hstemhm
          30 91 200 88 hintmask 10111100
          189 -10 rmoveto
          -67 callsubr
          hintmask 01111100
          -66 callsubr
          23 68 rmoveto
          -65 callsubr
          24 535 rmoveto
          -20 callsubr
          endchar
        </CharString>
        <CharString name="acircumflex">
          -2 -10 68 -37 -21 447 76 64 144 hstemhm
          30 91 200 88 hintmask 10111100
          189 -10 rmoveto
          -67 callsubr
          hintmask 01111100
          -66 callsubr
          23 68 rmoveto
          -65 callsubr
          -116 529 rmoveto
          -25 callsubr
          endchar
        </CharString>
        <CharString name="acute">
          587 145 hstem
          205 185 vstem
          205 587 rmoveto
          -26 callsubr
          endchar
        </CharString>
        <CharString name="acute.pl">
          587 145 hstem
          245 142 vstem
          245 587 rmoveto
          35 callsubr
          endchar
        </CharString>
        <CharString name="acute.uc">
          740 125 hstem
          205 172 vstem
          205 740 rmoveto
          13 callsubr
          endchar
        </CharString>
        <CharString name="acute.ucpl">
          740 125 hstem
          238 135 vstem
          238 740 rmoveto
          39 callsubr
          endchar
        </CharString>
        <CharString name="adieresis">
          -2 -10 68 -37 -21 447 76 92 89 hstemhm
          30 91 -12 86 84 86 -44 88 hintmask 10111001
          189 -10 rmoveto
          -67 callsubr
          hintmask 01111001
          -66 callsubr
          23 68 rmoveto
          -65 callsubr
          hintmask 10110110
          67 557 rmoveto
          86 89 -86 hlineto
          -170 -89 rmoveto
          86 89 -86 hlineto
          endchar
        </CharString>
        <CharString name="ae">
          315 -10 68 -68 76 169 68 144 76 -71 71 hstemhm
          30 91 200 92 249 93 hintmask 01101111
          189 -10 rmoveto
          -8 callsubr
          hintmask 01110111
          -7 callsubr
          hintmask 10101111
          156 129 rmoveto
          -6 callsubr
          198 333 rmoveto
          -5 callsubr
          endchar
        </CharString>
        <CharString name="aeacute">
          315 -10 68 -68 76 169 68 144 76 -71 71 64 145 hstemhm
          30 91 200 92 249 93 hintmask 0110101110000000
          189 -10 rmoveto
          -8 callsubr
          hintmask 0111001110000000
          -7 callsubr
          hintmask 1010111110000000
          156 129 rmoveto
          -6 callsubr
          198 333 rmoveto
          -5 callsubr
          -182 135 rmoveto
          -26 callsubr
          endchar
        </CharString>
        <CharString name="agrave">
          -2 -10 68 -37 -21 447 76 64 145 hstemhm
          30 91 200 88 hintmask 10111100
          189 -10 rmoveto
          -67 callsubr
          hintmask 01111100
          -66 callsubr
          23 68 rmoveto
          -65 callsubr
          -16 529 rmoveto
          -27 callsubr
          endchar
        </CharString>
        <CharString name="amacron">
          -2 -10 68 -37 -21 447 76 97 73 hstemhm
          30 91 -6 238 -32 88 hintmask 10111010
          189 -10 rmoveto
          -67 callsubr
          hintmask 01111010
          -66 callsubr
          23 68 rmoveto
          -65 callsubr
          hintmask 10110100
          -97 562 rmoveto
          -21 callsubr
          endchar
        </CharString>
        <CharString name="ampersand">
          173 -12 73 -40 -21 635 70 hstemhm
          37 94 -7 93 166 90 35 83 hintmask 10110110
          281 -12 rmoveto
          74 0 63 27 49 44 rrcurveto
          hintmask 01101110
          50 -59 110 0 -104 125 rlineto
          38 58 24 73 6 78 rrcurveto
          -83 hlineto
          -4 -55 -12 -51 -20 -42 rrcurveto
          -153 185 rlineto
          81 39 73 47 0 97 rrcurveto
          95 -75 56 -94 -89 -91 -49 -115 vhcurveto
          0 -53 21 -46 43 -52 rrcurveto
          hintmask 10110110
          -87 -42 -64 -58 0 -103 rrcurveto
          -131 92 -68 152 vhcurveto
          -1 73 rmoveto
          -100 -49 54 82 hvcurveto
          0 71 42 39 59 31 rrcurveto
          189 -224 rlineto
          -36 -34 -47 -19 -58 0 rrcurveto
          hintmask 10101110
          -63 485 rmoveto
          60 37 29 49 47 33 -32 -51 vhcurveto
          0 -69 -55 -34 -52 -27 rrcurveto
          -13 16 rlineto
          -29 35 -17 34 0 39 rrcurveto
          endchar
        </CharString>
        <CharString name="aogonek">
          -2 -200 60 130 68 -37 -21 447 76 hstemhm
          30 91 134 78 -12 88 hintmask 11011100
          362 -200 rmoveto
          41 callsubr
          hintmask 10111010
          0 35 34 36 42 33 rrcurveto
          372 vlineto
          103 -65 48 -114 vhcurveto
          -62 0 -49 -10 -46 -18 rrcurveto
          -63 vlineto
          31 7 41 8 50 0 rrcurveto
          92 34 -19 -78 hvcurveto
          0 -48 -136 -17 rlineto
          -97 -12 -58 -48 0 -89 rrcurveto
          hintmask 11011100
          -99 67 -47 92 vhcurveto
          68 0 41 24 25 29 rrcurveto
          6 0 9 -41 rlineto
          -36 -21 -47 -41 0 -55 rrcurveto
          -52 39 -33 68 vhcurveto
          hintmask 11011010
          -150 258 rmoveto
          -65 callsubr
          endchar
        </CharString>
        <CharString name="aring">
          -2 -10 68 -37 -21 447 76 53 43 98 43 hstemhm
          30 91 13 48 96 48 -5 88 hintmask 1011111010000000
          189 -10 rmoveto
          -67 callsubr
          hintmask 0111111010000000
          -66 callsubr
          23 68 rmoveto
          -65 callsubr
          hintmask 1011101100000000
          18 518 rmoveto
          21 callsubr
          43 vmoveto
          -18 callsubr
          endchar
        </CharString>
        <CharString name="aringacute">
          -2 -10 68 -37 -21 447 76 53 43 98 43 45 125 hstemhm
          30 91 13 48 96 48 -5 88 hintmask 1011111101000000
          189 -10 rmoveto
          -67 callsubr
          hintmask 0111111101000000
          -66 callsubr
          23 68 rmoveto
          -65 callsubr
          hintmask 1011110110000000
          18 518 rmoveto
          21 callsubr
          43 vmoveto
          -18 callsubr
          -45 186 rmoveto
          13 callsubr
          endchar
        </CharString>
        <CharString name="asciicircum">
          -18 452 241 -81 81 hstemhm
          44 365 hintmask 10100000
          44 452 rmoveto
          78 0 rlineto
          hintmask 01100000
          105 160 rlineto
          hintmask 10100000
          104 -160 78 0 -145 241 -74 0 rlineto
          endchar
        </CharString>
        <CharString name="asciitilde">
          -79 242 74 -38 74 hstemhm
          36 320 hintmask 01100000
          36 240 rmoveto
          64 hlineto
          5 25 15 13 19 0 rrcurveto
          hintmask 10100000
          30 0 38 -36 45 0 48 0 45 27 11 85 rrcurveto
          -64 hlineto
          -5 -25 -15 -13 -19 0 rrcurveto
          hintmask 01100000
          -30 0 -38 36 -45 0 rrcurveto
          -48 0 -45 -27 -11 -85 rrcurveto
          endchar
        </CharString>
        <CharString name="asterisk">
          -93 693 -20 hstem
          157 63.5 vstem
          155 385 rmoveto
          67 0 -3 107 87 -57 33 58 -92 46 92 46 -33 58 -87 -57 3 107 -67 0 4 -107 -87 57 -33 -58 92 -46 -92 -46 rlineto
          33 -58 87 57 rlineto
          endchar
        </CharString>
        <CharString name="at">
          422 -155 63 124 63 -63 68 311 69 135 65 hstemhm
          48 74 124 89 439 74 hintmask 11011111
          448 -155 rmoveto
          89 0 77 20 59 25 rrcurveto
          57 vlineto
          -46 -15 -83 -24 -95 0 rrcurveto
          -220 -107 118 193 220 125 176 240 194 93 -119 -172 -147 -51 -82 -86 hvcurveto
          -36 0 -10 21 6 32 rrcurveto
          61 323 -82 0 -6 -30 -5 0 rlineto
          -21 21 -39 18 -46 0 rrcurveto
          -132 -81 -111 -172 hvcurveto
          hintmask 10111111
          -101 50 -64 89 vhcurveto
          54 0 42 30 27 32 rrcurveto
          5 hlineto
          hintmask 11011111
          10 -39 35 -23 65 0 rrcurveto
          141 84 111 187 201 -139 149 -220 -289 -152 -228 -234 hvcurveto
          -235 146 -138 254 vhcurveto
          hintmask 10111111
          -39 255 rmoveto
          -48 -26 33 65 125 30 88 94 hvcurveto
          43 0 34 -16 16 -19 rrcurveto
          -41 -229 rlineto
          -25 -24 -32 -23 -45 0 rrcurveto
          endchar
        </CharString>
        <CharString name="at.uc">
          317 -12 58 104 58 -58 62 259 61 113 60 hstemhm
          47 69 102 84 370 69 hintmask 11011111
          392 -12 rmoveto
          80 0 66 17 51 23 rrcurveto
          52 vlineto
          -41 -14 -72 -20 -83 0 rrcurveto
          -185 -92 97 167 188 109 147 202 167 78 -100 -146 -122 -42 -69 -71 hvcurveto
          -31 0 -8 18 5 27 rrcurveto
          52 272 -78 0 -5 -24 -4 0 rlineto
          -18 17 -34 14 -39 0 rrcurveto
          -112 -69 -95 -147 hvcurveto
          hintmask 10111111
          -88 45 -52 75 vhcurveto
          47 0 36 25 23 28 rrcurveto
          4 hlineto
          hintmask 11011111
          9 -34 31 -19 57 0 rrcurveto
          121 75 93 161 175 -121 126 -190 -248 -135 -192 -204 hvcurveto
          -205 128 -116 217 vhcurveto
          hintmask 10111111
          -30 224 rmoveto
          -39 -21 27 53 103 26 76 76 hvcurveto
          34 0 27 -13 13 -15 rrcurveto
          -35 -194 rlineto
          -20 -18 -25 -19 -36 0 rrcurveto
          endchar
        </CharString>
        <CharString name="atilde">
          -2 -10 68 -37 -21 447 76 83 71 -36 71 hstemhm
          30 91 -34 60 174 88 -84 60 hintmask 1011010100000000
          189 -10 rmoveto
          -67 callsubr
          hintmask 0111010100000000
          -66 callsubr
          23 68 rmoveto
          -65 callsubr
          hintmask 1010101100000000
          -125 546 rmoveto
          -24 callsubr
          hintmask 1011010010000000
          -23 callsubr
          hintmask 1010101100000000
          -22 callsubr
          endchar
        </CharString>
        <CharString name="b">
          73 -13 74 387 75 216 -20 hstem
          63 88 268 91 vstem
          252 -13 rmoveto
          169 89 100 171 hvcurveto
          15 vlineto
          191 -103 59 -96 vhcurveto
          -69 0 -47 -17 -39 -24 rrcurveto
          -5 257 -88 -724 hlineto
          44 -17 86 -11 59 0 rrcurveto
          6 74 rmoveto
          -51 0 -34 9 -22 8 rrcurveto
          341 vlineto
          24 10 46 19 48 0 rrcurveto
          103 47 -45 -136 hvcurveto
          -22 vlineto
          -144 -76 -40 -85 vhcurveto
          endchar
        </CharString>
        <CharString name="backslash">
          -125 739 -20 hstem
          22 319 vstem
          262 -120 rmoveto
          79 0 -240 859 -79 0 rlineto
          endchar
        </CharString>
        <CharString name="backslash.uc">
          -125 -60 793 hstem
          22 302 vstem
          324 -60 rmoveto
          -223 793 -79 0 223 -793 rlineto
          endchar
        </CharString>
        <CharString name="bar">
          -181 739 -20 hstem
          107 76 vstem
          107 -120 rmoveto
          76 859 -76 hlineto
          endchar
        </CharString>
        <CharString name="bar.uc">
          -181 -60 793 hstem
          107 76 vstem
          107 -60 rmoveto
          76 793 -76 hlineto
          endchar
        </CharString>
        <CharString name="braceleft">
          -97 -122 70 325 72 326 70 hstem
          16 95 18 88 vstem
          342 -122 rmoveto
          -34 callsubr
          endchar
        </CharString>
        <CharString name="braceleft.uc">
          -97 -93 70 325 72 326 70 hstem
          16 95 18 88 vstem
          342 -93 rmoveto
          -34 callsubr
          endchar
        </CharString>
        <CharString name="braceright">
          -97 -122 70 326 72 325 70 hstem
          157 88 18 95 vstem
          32 -122 rmoveto
          -33 callsubr
          endchar
        </CharString>
        <CharString name="braceright.uc">
          -97 -93 70 326 72 325 70 hstem
          157 88 18 95 vstem
          32 -93 rmoveto
          -33 callsubr
          endchar
        </CharString>
        <CharString name="bracketleft">
          -135 -120 70 719 70 hstem
          78 88 vstem
          78 -120 rmoveto
          -70 callsubr
          endchar
        </CharString>
        <CharString name="bracketleft.uc">
          -135 -91 70 719 70 hstem
          78 88 vstem
          78 -91 rmoveto
          -70 callsubr
          endchar
        </CharString>
        <CharString name="bracketright">
          -135 -120 70 719 70 hstem
          170 88 vstem
          32 -120 rmoveto
          -69 callsubr
          endchar
        </CharString>
        <CharString name="bracketright.uc">
          -135 -91 70 719 70 hstem
          170 88 vstem
          32 -91 rmoveto
          -69 callsubr
          endchar
        </CharString>
        <CharString name="breve">
          593 66 hstem
          115 264 vstem
          247 593 rmoveto
          -20 callsubr
          endchar
        </CharString>
        <CharString name="breve.uc">
          738 66 hstem
          115 264 vstem
          247 738 rmoveto
          -20 callsubr
          endchar
        </CharString>
        <CharString name="brokenbar">
          -176 -120 853 hstem
          107 81 vstem
          107 -120 rmoveto
          81 395 -81 hlineto
          77 vmoveto
          81 381 -81 hlineto
          endchar
        </CharString>
        <CharString name="bullet">
          -118 192 262 hstem
          47 259 vstem
          175 192 rmoveto
          70 61 59 72 74 -61 57 -70 -71 -57 -57 -74 -72 57 -59 71 hvcurveto
          endchar
        </CharString>
        <CharString name="c">
          -28 -10 75 383 75 hstem
          31 91 vstem
          270 -10 rmoveto
          -64 callsubr
          endchar
        </CharString>
        <CharString name="cacute">
          -28 -10 75 383 75 64 145 hstem
          31 91 vstem
          270 -10 rmoveto
          -64 callsubr
          -59 597 rmoveto
          -26 callsubr
          endchar
        </CharString>
        <CharString name="cacute.pl">
          -28 -10 75 383 75 64 145 hstem
          31 91 vstem
          270 -10 rmoveto
          -64 callsubr
          -47 597 rmoveto
          35 callsubr
          endchar
        </CharString>
        <CharString name="caron">
          587 144 hstem
          107 280 vstem
          209 587 rmoveto
          -15 callsubr
          endchar
        </CharString>
        <CharString name="caron.alt">
          17 576 163 hstem
          216 96 vstem
          279 576 rmoveto
          33 callsubr
          endchar
        </CharString>
        <CharString name="caron.uc">
          740 124 hstem
          112 270 vstem
          382 864 rmoveto
          20 callsubr
          endchar
        </CharString>
        <CharString name="ccaron">
          -28 -10 75 383 75 64 144 hstem
          31 91 vstem
          270 -10 rmoveto
          -64 callsubr
          -50 597 rmoveto
          -15 callsubr
          endchar
        </CharString>
        <CharString name="ccedilla">
          -28 -217 52 72 45 38 75 -46 -21 450 75 hstemhm
          31 91 77 57 24 72 hintmask 11101110
          270 -10 rmoveto
          71 0 46 19 34 22 rrcurveto
          70 vlineto
          -26 -13 -46 -23 -69 0 rrcurveto
          -104 -54 54 129 hvcurveto
          27 vlineto
          111 56 62 91 vhcurveto
          68 0 32 -13 46 -19 rrcurveto
          73 vlineto
          -34 21 -39 13 -67 0 rrcurveto
          -135 -109 -80 -181 hvcurveto
          -17 vlineto
          hintmask 11011110
          0 -142 63 -82 105 -23 rrcurveto
          -91 vlineto
          hintmask 11101111
          19 callsubr
          hintmask 11101110
          0 44 -36 23 -60 3 rrcurveto
          38 vlineto
          endchar
        </CharString>
        <CharString name="ccircumflex">
          -28 -10 75 383 75 64 144 hstem
          31 91 vstem
          270 -10 rmoveto
          -64 callsubr
          -152 597 rmoveto
          -25 callsubr
          endchar
        </CharString>
        <CharString name="cdotaccent">
          -28 -10 75 383 75 92 91 hstem
          31 91 91 90 vstem
          270 -10 rmoveto
          -64 callsubr
          -57 625 rmoveto
          90 91 -90 hlineto
          endchar
        </CharString>
        <CharString name="cedilla">
          -217 52 72 93 hstem
          224 57 24 72 vstem
          203 -217 rmoveto
          130 9 44 31 0 59 rrcurveto
          0 44 -36 23 -60 3 rrcurveto
          48 -57 -93 vlineto
          55 26 -7 -24 hvcurveto
          0 -23 -29 -12 -73 -6 rrcurveto
          endchar
        </CharString>
        <CharString name="cent">
          -32 -10 72 -43 -21 452 136 -68 -20 hstemhm
          31 91 hintmask 10011000
          179 -119 rmoveto
          66 0 16 109 9 0 rlineto
          71 0 46 19 34 23 rrcurveto
          63 vlineto
          -26 -11 -46 -22 -69 0 rrcurveto
          -9 0 57 383 rlineto
          32 -5 24 -10 31 -12 rrcurveto
          71 vlineto
          -22 13 -23 10 -31 6 rrcurveto
          hintmask 01101000
          10 68 -67 0 -10 -63 rlineto
          -134 -1 -107 -80 0 -180 rrcurveto
          -17 vlineto
          0 -141 62 -81 103 -25 rrcurveto
          -74 250 rmoveto
          27 vlineto
          0 108 53 64 87 3 rrcurveto
          -55 -376 rlineto
          -56 23 -29 56 0 95 rrcurveto
          endchar
        </CharString>
        <CharString name="circumflex">
          587 144 hstem
          107 280 vstem
          107 587 rmoveto
          -25 callsubr
          endchar
        </CharString>
        <CharString name="circumflex.uc">
          740 124 hstem
          112 270 vstem
          112 740 rmoveto
          14 callsubr
          endchar
        </CharString>
        <CharString name="colon">
          -209 0 101 199 101 hstem
          81 100 vstem
          81 300 rmoveto
          100 101 -100 hlineto
          -401 vmoveto
          100 101 -100 hlineto
          endchar
        </CharString>
        <CharString name="comma">
          -219 -92 193 hstem
          65 119 vstem
          65 -92 rmoveto
          76 0 43 193 -103 0 rlineto
          endchar
        </CharString>
        <CharString name="copyright">
          329 -14 50 110 65 265 66 108 50 hstem
          45 60 126 83 381 60 vstem
          399 -14 rmoveto
          11 callsubr
          50 vmoveto
          12 callsubr
          9 110 rmoveto
          45 0 36 13 25 14 rrcurveto
          63 vlineto
          -23 -12 -27 -13 -46 0 rrcurveto
          -73 -31 43 85 hvcurveto
          20 vlineto
          83 39 34 57 vhcurveto
          40 0 29 -7 31 -12 rrcurveto
          63 vlineto
          -20 11 -32 11 -44 0 rrcurveto
          -99 -84 -53 -138 hvcurveto
          -12 vlineto
          -130 71 -63 106 vhcurveto
          endchar
        </CharString>
        <CharString name="d">
          73 -10 72 -41 -21 448 75 216 -20 hstemhm
          34 91 268 88 hintmask 10111100
          246 -10 rmoveto
          -63 callsubr
          hintmask 01111100
          -62 callsubr
          28 72 rmoveto
          -61 callsubr
          endchar
        </CharString>
        <CharString name="dagger">
          0 420 77 196 -20 hstem
          195 81 vstem
          195 -69 rmoveto
          81 489 160 77 -160 196 -81 -196 -160 -77 160 hlineto
          endchar
        </CharString>
        <CharString name="daggerdbl">
          6 127 77 216 77 196 -20 hstem
          198 81 vstem
          38 127 rmoveto
          160 -196 81 196 160 77 -160 216 160 77 -160 196 -81 -196 -160 hlineto
          -77 160 -216 -160 vlineto
          endchar
        </CharString>
        <CharString name="dcaron">
          73 -10 72 -41 -21 448 75 53 163 hstemhm
          34 91 268 88 hintmask 10111100
          246 -10 rmoveto
          -63 callsubr
          hintmask 01111100
          -62 callsubr
          28 72 rmoveto
          -61 callsubr
          316 514 rmoveto
          33 callsubr
          endchar
        </CharString>
        <CharString name="dcroat">
          73 -10 72 -41 -21 448 75 65 61 -61 151 hstemhm
          34 91 268 88 hintmask 10101110
          247 588 rmoveto
          146 -97 hlineto
          -27 16 -42 16 -62 0 rrcurveto
          -132 -96 -81 -188 hvcurveto
          -14 vlineto
          -189 113 -61 99 vhcurveto
          68 0 49 21 30 30 rrcurveto
          5 0 rlineto
          hintmask 01101110
          9 -41 74 0 0 588 64 0 rlineto
          hintmask 10110110
          61 -64 vlineto
          hintmask 10101110
          90 -88 vlineto
          hintmask 10110110
          -90 -146 vlineto
          27 -587 rmoveto
          -61 callsubr
          endchar
        </CharString>
        <CharString name="degree">
          -113 429 54 167 54 hstem
          40 67 144 67 vstem
          179 429 rmoveto
          81 58 63 74 75 -58 63 -81 -81 -58 -63 -75 -74 58 -63 81 hvcurveto
          54 vmoveto
          -46 -26 36 47 47 26 37 46 46 26 -37 -47 -47 -26 -36 -46 hvcurveto
          endchar
        </CharString>
        <CharString name="dieresis">
          615 89 hstem
          119 86 84 86 vstem
          289 615 rmoveto
          86 89 -86 hlineto
          -170 -89 rmoveto
          86 89 -86 hlineto
          endchar
        </CharString>
        <CharString name="dieresis.uc">
          746 89 hstem
          117 86 88 86 vstem
          291 746 rmoveto
          86 89 -86 hlineto
          -174 -89 rmoveto
          86 89 -86 hlineto
          endchar
        </CharString>
        <CharString name="divide">
          45 127 101 67 77 67 101 hstem
          208 100 vstem
          49 295 rmoveto
          418 77 -418 hlineto
          159 -245 rmoveto
          100 101 -100 hlineto
          211 vmoveto
          100 101 -100 hlineto
          endchar
        </CharString>
        <CharString name="divide.old">
          83 99 101 67 77 67 101 hstem
          227 100 vstem
          68 267 rmoveto
          418 77 -418 hlineto
          159 -245 rmoveto
          100 101 -100 hlineto
          211 vmoveto
          100 101 -100 hlineto
          endchar
        </CharString>
        <CharString name="dollar">
          42 -118 181 -55 -21 24 -21 0 73 567 135 -64 -20 24 -20 hstemhm
          43 89 51.5 65.5 15 65.5 50.5 91 hintmask 1000001110100000
          178 -118 rmoveto
          66 0 rlineto
          hintmask 0100001110100000
          10 105 rlineto
          151 6 66 78 0 117 0 118 -62 44 -105 35 rrcurveto
          -9 3 rlineto
          hintmask 0010010111100000
          24 238 rlineto
          46 -7 37 -13 30 -13 rrcurveto
          74 vlineto
          -28 13 -32 14 -46 7 rrcurveto
          hintmask 0010100111100000
          7 64 -66 0 rlineto
          hintmask 0001001111100000
          -6 -60 rlineto
          -145 -1 -73 -78 0 -108 0 -107 56 -48 96 -32 rrcurveto
          27 -9 -26 -259 rlineto
          -58 5 -55 16 -45 23 rrcurveto
          -72 vlineto
          hintmask 0010001110100000
          38 -21 49 -18 64 -6 rrcurveto
          191 191 rmoveto
          hintmask 0001001110100000
          0 -64 -38 -45 -80 -9 rrcurveto
          24 237 rlineto
          71 -27 23 -30 0 -62 rrcurveto
          -248 345 rmoveto
          hintmask 0010100110100000
          0 62 45 40 76 2 rrcurveto
          -22 -221 rlineto
          -81 27 -18 27 0 63 rrcurveto
          endchar
        </CharString>
        <CharString name="dollar.old">
          12 -108 170 -53 -21 23 -21 0 72 520 73 hstemhm
          42 85 44 62 30 61.5 30.5 89 hintmask 1000111010000000
          165 -108 rmoveto
          62 0 rlineto
          hintmask 0100111010000000
          12 96 rlineto
          139 5 66 75 0 110 0 108 -56 41 -102 33 rrcurveto
          -2 0 rlineto
          hintmask 0001111110000000
          27 217 rlineto
          43 -6 37 -12 26 -12 rrcurveto
          72 vlineto
          -25 12 -30 12 -42 7 rrcurveto
          9 69 -62 0 -8 -64 -9 0 rlineto
          -139 -69 -73 -103 hvcurveto
          0 -103 58 -43 85 -27 rrcurveto
          30 -10 -29 -234 rlineto
          -59 4 -50 17 -44 21 rrcurveto
          -72 vlineto
          hintmask 0010111010000000
          36 -20 49 -16 59 -6 rrcurveto
          -50 497 rmoveto
          59 46 36 76 vhcurveto
          1 0 -25 -203 -5 2 rlineto
          -72 23 -21 26 0 57 rrcurveto
          228 -316 rmoveto
          0 -57 -34 -42 -73 -9 rrcurveto
          26 214 rlineto
          64 -24 17 -28 0 -54 rrcurveto
          endchar
        </CharString>
        <CharString name="dotaccent">
          615 91 hstem
          202 90 vstem
          202 615 rmoveto
          90 91 -90 hlineto
          endchar
        </CharString>
        <CharString name="dotaccent.uc">
          746 91 hstem
          202 90 vstem
          202 746 rmoveto
          90 91 -90 hlineto
          endchar
        </CharString>
        <CharString name="dotlessi">
          -251 21 -21 513 -20 hstem
          66 88 vstem
          66 hmoveto
          -51 callsubr
          endchar
        </CharString>
        <CharString name="e">
          25 -10 76 165 71 150 71 hstem
          31 91 250 93 vstem
          276 -10 rmoveto
          -60 callsubr
          -23 462 rmoveto
          -59 callsubr
          endchar
        </CharString>
        <CharString name="eacute">
          25 -10 76 165 71 150 71 64 145 hstem
          31 91 250 93 vstem
          276 -10 rmoveto
          -60 callsubr
          -23 462 rmoveto
          -59 callsubr
          -43 135 rmoveto
          -26 callsubr
          endchar
        </CharString>
        <CharString name="ebreve">
          25 -10 76 165 71 150 71 70 66 hstem
          31 91 250 93 vstem
          276 -10 rmoveto
          -60 callsubr
          -23 462 rmoveto
          -59 callsubr
          4 141 rmoveto
          -20 callsubr
          endchar
        </CharString>
        <CharString name="ecaron">
          25 -10 76 165 71 150 71 64 144 hstem
          31 91 250 93 vstem
          276 -10 rmoveto
          -60 callsubr
          -23 462 rmoveto
          -59 callsubr
          -34 135 rmoveto
          -15 callsubr
          endchar
        </CharString>
        <CharString name="ecircumflex">
          25 -10 76 165 71 150 71 64 144 hstem
          31 91 250 93 vstem
          276 -10 rmoveto
          -60 callsubr
          -23 462 rmoveto
          -59 callsubr
          -136 135 rmoveto
          -25 callsubr
          endchar
        </CharString>
        <CharString name="edieresis">
          25 -10 76 165 71 150 71 92 89 hstemhm
          31 91 7 86 84 86 -13 93 hintmask 11111010
          276 -10 rmoveto
          85 0 58 27 31 23 rrcurveto
          65 vlineto
          -47 -24 -44 -15 -69 0 -102 0 -60 43 -6 122 rrcurveto
          hintmask 11111001
          343 50 hlineto
          161 -67 81 -141 -119 -107 -80 -179 vhcurveto
          -15 vlineto
          -159 83 -100 162 vhcurveto
          -23 462 rmoveto
          -59 callsubr
          46 163 rmoveto
          86 89 -86 hlineto
          hintmask 11110110
          -170 -89 rmoveto
          86 89 -86 hlineto
          endchar
        </CharString>
        <CharString name="edotaccent">
          25 -10 76 165 71 150 71 92 91 hstem
          31 91 90 90 70 93 vstem
          276 -10 rmoveto
          -60 callsubr
          -23 462 rmoveto
          -59 callsubr
          -41 163 rmoveto
          90 91 -90 hlineto
          endchar
        </CharString>
        <CharString name="egrave">
          25 -10 76 165 71 150 71 64 145 hstem
          31 91 250 93 vstem
          276 -10 rmoveto
          -60 callsubr
          -23 462 rmoveto
          -59 callsubr
          -30 135 rmoveto
          -27 callsubr
          endchar
        </CharString>
        <CharString name="eight">
          117 -13 76 566 76 hstemhm
          43 93 -73 97 262 95 -69 97 hintmask 11100100
          294 -13 rmoveto
          160 91 83 112 hvcurveto
          0 100 -76 42 -81 34 rrcurveto
          hintmask 11011000
          71 38 58 57 0 80 rrcurveto
          108 -91 64 -136 -139 -88 -75 -103 vhcurveto
          0 -86 57 -48 69 -35 rrcurveto
          hintmask 11100100
          -75 -34 -71 -65 0 -86 rrcurveto
          -115 94 -71 157 vhcurveto
          -2 76 rmoveto
          -94 -62 39 75 hvcurveto
          0 69 55 47 63 31 128 -47 66 -26 0 -79 rrcurveto
          -68 -62 -41 -94 vhcurveto
          hintmask 11011000
          26 327 rmoveto
          -99 42 -59 32 0 67 rrcurveto
          63 51 35 80 89 42 -43 -58 vhcurveto
          0 -65 -39 -37 -65 -36 rrcurveto
          endchar
        </CharString>
        <CharString name="eight.den">
          -103 -7 55 321 55 hstemhm
          25 70 -57 72 147 69 -58 75 hintmask 11100100
          183 -7 rmoveto
          23 callsubr
          hintmask 11011000
          24 callsubr
          hintmask 11100100
          25 callsubr
          -2 55 rmoveto
          26 callsubr
          hintmask 11011000
          18 194 rmoveto
          27 callsubr
          endchar
        </CharString>
        <CharString name="eight.num">
          -103 270 55 194 -20 147 55 hstemhm
          25 70 -57 72 147 69 -58 75 hintmask 11110010
          183 270 rmoveto
          23 callsubr
          hintmask 11101100
          24 callsubr
          hintmask 11110010
          25 callsubr
          -2 55 rmoveto
          26 callsubr
          hintmask 11101100
          18 194 rmoveto
          27 callsubr
          endchar
        </CharString>
        <CharString name="eight.old">
          80 -13 71 576 71 hstemhm
          39 86 -61 89 248 88 -66 89 hintmask 11101000
          276 -13 rmoveto
          hintmask 11100100
          147 89 83 112 hvcurveto
          0 100 -63 43 -88 32 rrcurveto
          hintmask 11011000
          80 38 48 58 0 80 rrcurveto
          108 -87 64 -126 -128 -84 -75 -103 vhcurveto
          0 -86 48 -47 71 -35 rrcurveto
          hintmask 11101000
          -87 -37 -57 -63 0 -86 rrcurveto
          -115 92 -71 145 vhcurveto
          hintmask 11100100
          -2 71 rmoveto
          -90 -59 44 75 hvcurveto
          0 69 51 50 63 31 141 -52 43 -24 0 -79 rrcurveto
          -68 -60 -46 -89 vhcurveto
          hintmask 11011000
          29 329 rmoveto
          -111 42 -39 35 0 67 rrcurveto
          63 49 40 75 88 36 -48 -58 vhcurveto
          0 -65 -31 -40 -67 -36 rrcurveto
          endchar
        </CharString>
        <CharString name="eight.sub">
          -103 -127 55 321 55 hstemhm
          25 70 -57 72 147 69 -58 75 hintmask 11100100
          183 -127 rmoveto
          23 callsubr
          hintmask 11011000
          24 callsubr
          hintmask 11100100
          25 callsubr
          -2 55 rmoveto
          26 callsubr
          hintmask 11011000
          18 194 rmoveto
          27 callsubr
          endchar
        </CharString>
        <CharString name="eight.sup">
          -103 315 55 321 55 hstemhm
          25 70 -57 72 147 69 -58 75 hintmask 11100100
          183 315 rmoveto
          23 callsubr
          hintmask 11011000
          24 callsubr
          hintmask 11100100
          25 callsubr
          -2 55 rmoveto
          26 callsubr
          hintmask 11011000
          18 194 rmoveto
          27 callsubr
          endchar
        </CharString>
        <CharString name="ellipsis">
          257 0 101 hstem
          76 100 138 100 138 100 vstem
          552 hmoveto
          100 101 -100 hlineto
          -476 -101 rmoveto
          100 101 -100 hlineto
          238 -101 rmoveto
          100 101 -100 hlineto
          endchar
        </CharString>
        <CharString name="emacron">
          25 -10 76 165 71 150 71 97 73 hstemhm
          31 91 16 238 -4 93 hintmask 11111010
          276 -10 rmoveto
          -60 callsubr
          -23 462 rmoveto
          -59 callsubr
          hintmask 11111100
          -115 168 rmoveto
          -21 callsubr
          endchar
        </CharString>
        <CharString name="emdash">
          229 252 70 hstem
          35 630 vstem
          35 252 rmoveto
          630 70 -630 hlineto
          endchar
        </CharString>
        <CharString name="emdash.uc">
          245 302 70 hstem
          43 630 vstem
          43 302 rmoveto
          630 70 -630 hlineto
          endchar
        </CharString>
        <CharString name="endash">
          -46 252 70 hstem
          35 355 vstem
          35 252 rmoveto
          355 70 -355 hlineto
          endchar
        </CharString>
        <CharString name="endash.uc">
          -30 302 70 hstem
          43 355 vstem
          43 302 rmoveto
          355 70 -355 hlineto
          endchar
        </CharString>
        <CharString name="eng">
          63 -199 72 148 -21 447 76 -10 -20 hstemhm
          63 88 235 88 hintmask 11101100
          332 -199 rmoveto
          100 42 61 83 hvcurveto
          437 vlineto
          99 -48 42 -101 vhcurveto
          -63 0 -67 -24 -43 -30 rrcurveto
          -5 hlineto
          hintmask 11011100
          44 -84 -513 88 vlineto
          hintmask 11101100
          413 vlineto
          37 17 53 17 45 0 rrcurveto
          81 19 -25 -59 hvcurveto
          -413 vlineto
          -54 -29 -23 -48 vhcurveto
          -17 0 -20 3 -18 3 rrcurveto
          -61 vlineto
          20 -11 22 -6 36 0 rrcurveto
          endchar
        </CharString>
        <CharString name="eogonek">
          25 -200 60 130 76 165 71 150 71 hstem
          31 91 100 78 72 93 vstem
          291 -10 rmoveto
          -33 -21 -36 -36 0 -48 0 -52 39 -33 68 0 25 0 17 5 14 5 rrcurveto
          54 vlineto
          -7 -2 -13 -2 -13 0 -29 0 -23 6 0 30 0 35 32 34 39 27 29 20 30 12 20 16 rrcurveto
          65 vlineto
          -47 -24 -44 -15 -69 0 -102 0 -60 43 -6 122 rrcurveto
          343 50 hlineto
          161 -67 81 -141 -119 -107 -80 -179 vhcurveto
          -15 vlineto
          -159 83 -100 162 vhcurveto
          -23 462 rmoveto
          -59 callsubr
          endchar
        </CharString>
        <CharString name="equal">
          57 180 74 103 74 hstem
          56 416 vstem
          56 357 rmoveto
          -97 callsubr
          -251 vmoveto
          -97 callsubr
          endchar
        </CharString>
        <CharString name="equal.old">
          83 152 74 103 74 hstem
          69 416 vstem
          69 329 rmoveto
          -97 callsubr
          -251 vmoveto
          -97 callsubr
          endchar
        </CharString>
        <CharString name="eth">
          61 -10 72 388 51 -51 73 130 86 0 -20 hstemhm
          31 91 285 91 hintmask 10101110
          114 606 rmoveto
          21 -52 137 57 rlineto
          hintmask 11001110
          35 -35 28 -36 22 -39 rrcurveto
          -7 hlineto
          hintmask 10101110
          -24 13 -28 9 -35 0 rrcurveto
          -140 -92 -99 -161 hvcurveto
          -17 vlineto
          -161 84 -95 148 141 94 93 183 vhcurveto
          29 vlineto
          0 158 -68 114 -76 78 rrcurveto
          70 29 -21 52 -95 -40 rlineto
          -26 22 -26 17 -23 14 rrcurveto
          -116 hlineto
          hintmask 10110110
          41 -30 37 -28 32 -28 rrcurveto
          180 -366 rmoveto
          -25 vlineto
          -137 -53 -63 -89 -80 -63 43 139 vhcurveto
          28 vlineto
          114 52 64 97 vhcurveto
          53 0 39 -15 27 -18 11 -39 6 -43 0 -48 rrcurveto
          endchar
        </CharString>
        <CharString name="exclam">
          -192 0 101 592 -20 hstemhm
          90 100 -95.5 89 hintmask 11010000
          100 208 rmoveto
          78 0 11 485 -100 0 rlineto
          hintmask 11100000
          1 -693 rmoveto
          100 101 -100 hlineto
          endchar
        </CharString>
        <CharString name="exclamdown">
          -192 472 101 hstemhm
          89 100 -93.5 89 hintmask 10100000
          90 -120 rmoveto
          100 0 -11 485 -78 0 rlineto
          hintmask 11000000
          -12 107 rmoveto
          100 101 -100 hlineto
          endchar
        </CharString>
        <CharString name="exclamdown.uc">
          -192 21 -21 592 101 hstemhm
          89 100 -93.5 89 hintmask 11010000
          90 hmoveto
          100 0 -11 485 -78 0 rlineto
          hintmask 11100000
          -12 107 rmoveto
          100 101 -100 hlineto
          endchar
        </CharString>
        <CharString name="f">
          -157 21 -21 440 73 162 73 hstem
          92 88 vstem
          92 hmoveto
          88 440 117 73 -117 66 hlineto
          68 32 28 57 vhcurveto
          35 0 23 -5 14 -3 rrcurveto
          63 vlineto
          -18 9 -28 9 -42 0 rrcurveto
          -93 -68 -49 -113 hvcurveto
          -73 -75 -73 75 vlineto
          endchar
        </CharString>
        <CharString name="f_b">
          382 -13 74 -40 -21 440 73 -65 75 152 73 hstemhm
          92 88 192 88 268 91 hintmask 10101111
          561 -13 rmoveto
          169 89 100 171 hvcurveto
          15 vlineto
          hintmask 10011111
          42 callsubr
          hintmask 01101111
          43 callsubr
          hintmask 10101111
          -653 vlineto
          44 -17 86 -11 59 0 rrcurveto
          6 74 rmoveto
          -51 0 -34 9 -22 8 rrcurveto
          hintmask 10011111
          44 callsubr
          endchar
        </CharString>
        <CharString name="f_f">
          123 21 -21 440 73 154 73 -65 73 hstemhm
          92 88 192 88 hintmask 11011100
          92 hmoveto
          88 440 192 -440 88 440 117 73 -117 66 hlineto
          68 32 28 57 vhcurveto
          35 0 23 -5 14 -3 rrcurveto
          63 vlineto
          -18 9 -28 9 -42 0 rrcurveto
          -93 -68 -49 -113 hvcurveto
          -73 -192 vlineto
          hintmask 11101100
          45 callsubr
          endchar
        </CharString>
        <CharString name="f_f_b">
          662 -13 74 -40 -21 440 73 -65 75 144 73 -65 73 hstemhm
          92 88 192 88 192 88 268 91 hintmask 1010011111000000
          841 -13 rmoveto
          169 89 100 171 hvcurveto
          15 vlineto
          hintmask 1001011111000000
          42 callsubr
          hintmask 0110101111000000
          46 callsubr
          hintmask 1010011111000000
          83 41 32 75 vhcurveto
          32 0 23 -3 21 -4 rrcurveto
          -653 vlineto
          44 -17 86 -11 59 0 rrcurveto
          6 74 rmoveto
          -51 0 -34 9 -22 8 rrcurveto
          hintmask 1001011111000000
          44 callsubr
          endchar
        </CharString>
        <CharString name="f_f_h">
          652 21 -21 440 73 -66 76 144 73 -65 73 hstemhm
          92 88 192 88 192 88 235 88 hintmask 1100111110000000
          652 hmoveto
          88 hlineto
          hintmask 1010111110000000
          47 callsubr
          hintmask 1101011110000000
          46 callsubr
          hintmask 1100111110000000
          83 41 32 75 vhcurveto
          32 0 23 -3 21 -4 rrcurveto
          endchar
        </CharString>
        <CharString name="f_f_i">
          335 21 -21 440 73 102 91 -39 73 -65 73 hstemhm
          92 88 192 88 192 88 hintmask 11100111
          92 hmoveto
          88 440 192 -440 88 440 192 -440 88 513 -280 hlineto
          hintmask 11001111
          48 callsubr
          hintmask 11010111
          45 callsubr
          hintmask 11100111
          559 175 rmoveto
          90 91 -90 hlineto
          endchar
        </CharString>
        <CharString name="f_f_j">
          335 -199 72 148 -21 440 73 102 91 -39 73 -65 73 hstemhm
          92 88 192 88 192 88 hintmask 1111001110000000
          598 -199 rmoveto
          49 callsubr
          hintmask 1110011110000000
          48 callsubr
          hintmask 1110101110000000
          60 vlineto
          68 33 26 50 vhcurveto
          34 0 17 -3 14 -3 rrcurveto
          63 vlineto
          -17 8 -22 8 -42 0 rrcurveto
          -85 -70 -51 -109 hvcurveto
          -67 -75 -73 75 -440 88 440 192 -440 88 440 192 -490 vlineto
          -54 -29 -23 -48 vhcurveto
          -17 0 -20 3 -18 3 rrcurveto
          -61 vlineto
          20 -11 22 -6 36 0 rrcurveto
          53 814 rmoveto
          90 91 -90 hlineto
          endchar
        </CharString>
        <CharString name="f_f_k">
          596 21 -21 440 73 154 73 -65 73 hstemhm
          92 88 192 88 192 88 hintmask 11011110
          92 hmoveto
          50 callsubr
          hintmask 11101110
          45 callsubr
          864 -440 rmoveto
          -48 callsubr
          endchar
        </CharString>
        <CharString name="f_f_l">
          335 21 -21 440 73 154 73 -65 73 hstemhm
          92 88 192 88 192 88 hintmask 11011110
          92 hmoveto
          50 callsubr
          hintmask 11101110
          45 callsubr
          endchar
        </CharString>
        <CharString name="f_f_l.alt">
          379 -6 71 -44 -21 440 73 154 73 -65 73 hstemhm
          92 88 192 88 192 88 hintmask 10101111
          763 -6 rmoveto
          38 0 18 7 20 9 rrcurveto
          61 vlineto
          -19 -5 -17 -1 -16 0 rrcurveto
          -30 -17 12 49 hvcurveto
          598 vlineto
          -49 17 -50 7 -70 0 rrcurveto
          -111 -88 -53 -128 hvcurveto
          -54 -192 vlineto
          hintmask 01110111
          60 vlineto
          68 33 26 50 vhcurveto
          34 0 17 -3 14 -3 rrcurveto
          63 vlineto
          -17 8 -22 8 -42 0 rrcurveto
          -85 -70 -51 -109 hvcurveto
          -67 -75 -73 75 -440 88 440 192 -440 88 440 117 73 -117 47 vlineto
          hintmask 01101111
          83 41 32 75 vhcurveto
          32 0 23 -3 21 -4 rrcurveto
          -552 vlineto
          -91 45 -31 66 vhcurveto
          endchar
        </CharString>
        <CharString name="f_h">
          372 21 -21 440 73 -66 76 152 73 hstemhm
          92 88 192 88 235 88 hintmask 11011110
          372 hmoveto
          88 hlineto
          hintmask 10111110
          47 callsubr
          hintmask 11011110
          43 callsubr
          endchar
        </CharString>
        <CharString name="f_i">
          55 21 -21 440 73 102 91 -31 73 hstemhm
          92 88 192 88 hintmask 11101100
          92 hmoveto
          88 440 192 -440 88 513 -280 hlineto
          hintmask 11011100
          68 vlineto
          68 33 26 50 vhcurveto
          31 0 14 -2 14 -3 rrcurveto
          63 vlineto
          -17 8 -19 7 -39 0 rrcurveto
          -85 -70 -51 -109 hvcurveto
          -75 -75 -73 75 vlineto
          hintmask 11101100
          279 175 rmoveto
          90 91 -90 hlineto
          endchar
        </CharString>
        <CharString name="f_j">
          55 -199 72 148 -21 440 73 102 91 -31 73 hstemhm
          92 88 192 88 hintmask 11110110
          318 -199 rmoveto
          49 callsubr
          hintmask 11101110
          68 vlineto
          68 33 26 50 vhcurveto
          31 0 14 -2 14 -3 rrcurveto
          63 vlineto
          -17 8 -19 7 -39 0 rrcurveto
          -85 -70 -51 -109 hvcurveto
          -75 -75 -73 75 -440 88 440 192 -490 vlineto
          -54 -29 -23 -48 vhcurveto
          -17 0 -20 3 -18 3 rrcurveto
          -61 vlineto
          20 -11 22 -6 36 0 rrcurveto
          53 814 rmoveto
          90 91 -90 hlineto
          endchar
        </CharString>
        <CharString name="f_k">
          316 21 -21 440 73 162 73 hstem
          92 88 192 88 vstem
          676 hmoveto
          -48 callsubr
          -24 -265 rmoveto
          51 callsubr
          endchar
        </CharString>
        <CharString name="f_l">
          55 21 -21 440 73 162 73 hstem
          92 88 192 88 vstem
          460 hmoveto
          51 callsubr
          endchar
        </CharString>
        <CharString name="f_l.alt">
          99 -6 71 -44 -21 440 73 162 73 hstemhm
          92 88 192 88 hintmask 10111100
          483 -6 rmoveto
          38 0 18 7 20 9 rrcurveto
          61 vlineto
          -19 -5 -17 -1 -16 0 rrcurveto
          -30 -17 12 49 hvcurveto
          598 vlineto
          -49 17 -50 7 -70 0 rrcurveto
          -111 -88 -53 -128 hvcurveto
          -54 -75 -73 75 vlineto
          hintmask 01111100
          -440 88 440 117 73 -117 47 vlineto
          83 41 32 75 vhcurveto
          32 0 23 -3 21 -4 rrcurveto
          -552 vlineto
          -91 45 -31 66 vhcurveto
          endchar
        </CharString>
        <CharString name="five">
          38 -11 78 287 77 185 77 hstem
          364 97 vstem
          213 -11 rmoveto
          155 93 89 137 149 -92 67 -150 hvcurveto
          -32 0 -23 -3 -22 -5 rrcurveto
          15 193 283 0 0 77 -357 0 -26 -357 rlineto
          33 10 49 8 54 0 rrcurveto
          109 62 -36 -104 -103 -66 -44 -105 hvcurveto
          -63 0 -55 15 -47 23 rrcurveto
          -72 vlineto
          42 -26 59 -18 84 0 rrcurveto
          endchar
        </CharString>
        <CharString name="five.den">
          -139 -7 59 153 55 98 58 hstem
          48.5 58.5 114 77 vstem
          141 -7 rmoveto
          28 callsubr
          endchar
        </CharString>
        <CharString name="five.num">
          -139 270 59 153 55 98 58 hstem
          48.5 58.5 114 77 vstem
          141 270 rmoveto
          28 callsubr
          endchar
        </CharString>
        <CharString name="five.old">
          15 -111 73 292 73 193 73 hstem
          354 91 vstem
          208 -111 rmoveto
          146 91 94 134 149 -88 61 -143 hvcurveto
          -32 0 -26 -4 -22 -5 rrcurveto
          15 202 286 0 0 73 -357 0 -26 -357 rlineto
          33 10 49 8 54 0 rrcurveto
          109 57 -34 -104 -103 -61 -51 -105 hvcurveto
          -66 0 -50 15 -49 23 rrcurveto
          -66 vlineto
          42 -26 55 -19 88 0 rrcurveto
          endchar
        </CharString>
        <CharString name="five.sub">
          -139 -127 59 153 55 98 58 hstem
          48.5 58.5 114 77 vstem
          141 -127 rmoveto
          28 callsubr
          endchar
        </CharString>
        <CharString name="five.sup">
          -139 315 59 153 55 98 58 hstem
          48.5 58.5 114 77 vstem
          141 315 rmoveto
          28 callsubr
          endchar
        </CharString>
        <CharString name="fiveeighths">
          370 -7 55 222 59 40 55 58 55 98 58 hstemhm
          53.5 58.5 114 77 192 70 -57 72 147 69 -58 75 hintmask 1111111100100000
          146 270 rmoveto
          28 callsubr
          -46 -310 rmoveto
          -32 callsubr
          42 -720 rmoveto
          23 callsubr
          hintmask 1111111011000000
          24 callsubr
          hintmask 1111111100100000
          25 callsubr
          -2 55 rmoveto
          26 callsubr
          hintmask 1111111011000000
          18 194 rmoveto
          27 callsubr
          endchar
        </CharString>
        <CharString name="florin">
          -52 -183 73 489 76 220 73 hstem
          -114 530 vstem
          34 379 rmoveto
          81 0 -71 -398 rlineto
          -12 -67 -41 -24 -49 0 -21 0 -22 5 -13 3 rrcurveto
          -64 vlineto
          16 -9 25 -8 42 0 80 0 61 37 21 118 rrcurveto
          72 407 136 0 0 76 -123 0 20 110 rlineto
          15 82 39 28 62 0 26 0 17 -2 21 -4 rrcurveto
          66 vlineto
          -17 7 -23 6 -44 0 -92 0 -68 -46 -22 -126 rrcurveto
          -22 -121 -94 0 rlineto
          endchar
        </CharString>
        <CharString name="four">
          101 21 -21 188 75 430 -20 hstem
          13 95 229 89 vstem
          337 hmoveto
          89 188 133 75 -133 430 -76 hlineto
          -337 -437 0 -68 324 0 rlineto
          -229 75 rmoveto
          0 3 225 291 4 0 0 -294 rlineto
          endchar
        </CharString>
        <CharString name="four.den">
          -102 0 164 -55 55 152 100 hstemhm
          19 72 121 71 hintmask 10001000
          211 hmoveto
          72 hlineto
          hintmask 01111000
          5 callsubr
          -120 55 rmoveto
          6 callsubr
          endchar
        </CharString>
        <CharString name="four.num">
          -102 386 55 252 -20 hstem
          19 72 121 71 vstem
          211 277 rmoveto
          56 callsubr
          -120 55 rmoveto
          6 callsubr
          endchar
        </CharString>
        <CharString name="four.old">
          94 88 73 432 -20 hstem
          16 93 231 86 vstem
          340 -100 rmoveto
          86 188 123 73 -123 432 -73 hlineto
          -337 -439 0 -66 324 0 rlineto
          -231 73 rmoveto
          0 3 227 296 4 0 0 -299 rlineto
          endchar
        </CharString>
        <CharString name="four.sub">
          -102 -11 55 152 100 hstem
          19 72 121 71 vstem
          211 -120 rmoveto
          56 callsubr
          -120 55 rmoveto
          6 callsubr
          endchar
        </CharString>
        <CharString name="four.sup">
          -102 431 55 252 -20 hstem
          19 72 121 71 vstem
          211 322 rmoveto
          56 callsubr
          -120 55 rmoveto
          6 callsubr
          endchar
        </CharString>
        <CharString name="fraction">
          -235 -40 753 hstem
          -175 585 vstem
          -175 -40 rmoveto
          -32 callsubr
          endchar
        </CharString>
        <CharString name="g">
          32 -199 72 151 84 75 67 197 67 -58 67 hstemhm
          12 93 -54 88 214 88 -42 92 hintmask 1111010010000000
          244 -199 rmoveto
          -58 callsubr
          hintmask 1111001100000000
          -57 callsubr
          hintmask 1110101100000000
          -56 callsubr
          hintmask 1111010100000000
          -55 callsubr
          -2 72 rmoveto
          -54 callsubr
          hintmask 1110101100000000
          4 377 rmoveto
          -53 callsubr
          endchar
        </CharString>
        <CharString name="g.alt">
          73 -205 74 135 72 371 76 -10 -20 hstemhm
          34 91 268 88 hintmask 11101100
          245 -205 rmoveto
          61 callsubr
          hintmask 11011100
          520 -74 vlineto
          hintmask 11101100
          62 callsubr
          29 281 rmoveto
          63 callsubr
          endchar
        </CharString>
        <CharString name="gbreve">
          32 -199 72 151 84 75 67 197 67 -58 67 70 66 hstemhm
          12 93 -54 88 214 88 -42 92 hintmask 1111011001000000
          244 -199 rmoveto
          -58 callsubr
          hintmask 1111010110000000
          -57 callsubr
          hintmask 1110110110000000
          -56 callsubr
          hintmask 1111011010000000
          -55 callsubr
          -2 72 rmoveto
          -54 callsubr
          hintmask 1110110110000000
          4 377 rmoveto
          -53 callsubr
          14 343 rmoveto
          -20 callsubr
          endchar
        </CharString>
        <CharString name="gbreve.alt">
          73 -205 74 135 72 371 76 -10 -20 100 66 hstemhm
          34 91 268 88 hintmask 11101110
          245 -205 rmoveto
          61 callsubr
          hintmask 11011110
          520 -74 vlineto
          hintmask 11101110
          62 callsubr
          29 281 rmoveto
          63 callsubr
          -3 517 rmoveto
          -20 callsubr
          endchar
        </CharString>
        <CharString name="gcircumflex">
          32 -199 72 151 84 75 67 197 67 -58 67 64 144 hstemhm
          12 93 -54 88 214 88 -42 92 hintmask 1111011001000000
          244 -199 rmoveto
          -58 callsubr
          hintmask 1111010110000000
          -57 callsubr
          hintmask 1110110110000000
          -56 callsubr
          hintmask 1111011010000000
          -55 callsubr
          -2 72 rmoveto
          -54 callsubr
          hintmask 1110110110000000
          4 377 rmoveto
          -53 callsubr
          -126 337 rmoveto
          -25 callsubr
          endchar
        </CharString>
        <CharString name="gcircumflex.alt">
          73 -205 74 135 72 371 76 -10 -20 94 144 hstemhm
          34 91 268 88 hintmask 11101110
          245 -205 rmoveto
          61 callsubr
          hintmask 11011110
          520 -74 vlineto
          hintmask 11101110
          62 callsubr
          29 281 rmoveto
          63 callsubr
          -143 511 rmoveto
          -25 callsubr
          endchar
        </CharString>
        <CharString name="gcommaaccent">
          32 -199 72 151 84 75 67 197 67 -58 67 83 140 hstemhm
          12 93 -54 88 214 88 -42 92 hintmask 1111011001000000
          244 -199 rmoveto
          -58 callsubr
          hintmask 1111010110000000
          -57 callsubr
          hintmask 1110110110000000
          -56 callsubr
          hintmask 1111011010000000
          -55 callsubr
          -2 72 rmoveto
          -54 callsubr
          hintmask 1110110110000000
          4 377 rmoveto
          -53 callsubr
          71 496 rmoveto
          34 callsubr
          endchar
        </CharString>
        <CharString name="gcommaaccent.alt">
          73 -205 74 135 72 371 76 -10 -20 113 140 hstemhm
          34 91 268 88 hintmask 11101110
          245 -205 rmoveto
          61 callsubr
          hintmask 11011110
          520 -74 vlineto
          hintmask 11101110
          62 callsubr
          29 281 rmoveto
          63 callsubr
          54 670 rmoveto
          34 callsubr
          endchar
        </CharString>
        <CharString name="gdotaccent">
          32 -199 72 151 84 75 67 197 67 -58 67 92 91 hstemhm
          12 93 -54 88 76 90 48 88 -42 92 hintmask 1111011010100000
          244 -199 rmoveto
          -58 callsubr
          hintmask 1111010111000000
          -57 callsubr
          hintmask 1110110111000000
          -56 callsubr
          hintmask 1111011011000000
          -55 callsubr
          -2 72 rmoveto
          -54 callsubr
          hintmask 1110110111000000
          4 377 rmoveto
          -53 callsubr
          -31 365 rmoveto
          90 91 -90 hlineto
          endchar
        </CharString>
        <CharString name="gdotaccent.alt">
          73 -205 74 135 72 371 76 -10 -20 122 91 hstemhm
          34 91 101 90 77 88 hintmask 11101111
          245 -205 rmoveto
          61 callsubr
          hintmask 11011111
          520 -74 vlineto
          hintmask 11101111
          62 callsubr
          29 281 rmoveto
          63 callsubr
          -48 539 rmoveto
          90 91 -90 hlineto
          endchar
        </CharString>
        <CharString name="germandbls">
          85 -10 74 -43 -21 676 72 hstemhm
          63 88 90 83 60 86 -26 87 hintmask 10111100
          359 -10 rmoveto
          hintmask 10111010
          102 70 50 96 hvcurveto
          0 66 -35 37 -64 36 rrcurveto
          -52 29 rlineto
          -38 21 -18 18 0 33 rrcurveto
          hintmask 01111100
          0 60 146 52 0 115 rrcurveto
          93 -70 52 -121 -106 -110 -61 -141 vhcurveto
          -546 88 538 vlineto
          94 52 44 76 65 40 -27 -52 vhcurveto
          0 -78 -143 -53 0 -100 0 -66 31 -31 64 -36 rrcurveto
          hintmask 10111010
          45 -25 rlineto
          45 -25 18 -20 0 -33 0 -40 -34 -26 -62 0 -49 0 -28 8 -42 15 rrcurveto
          -71 vlineto
          40 -19 35 -7 55 0 rrcurveto
          endchar
        </CharString>
        <CharString name="grave">
          587 145 hstem
          104 185 vstem
          211 587 rmoveto
          -27 callsubr
          endchar
        </CharString>
        <CharString name="grave.uc">
          740 125 hstem
          123 166 vstem
          211 740 rmoveto
          15 callsubr
          endchar
        </CharString>
        <CharString name="greater">
          10 104 431 hstem
          60 376 vstem
          60 104 rmoveto
          -96 callsubr
          endchar
        </CharString>
        <CharString name="greater.old">
          40 76 431 hstem
          73 376 vstem
          73 76 rmoveto
          -96 callsubr
          endchar
        </CharString>
        <CharString name="guillemotleft">
          -25 56 393 hstem
          40 363 vstem
          322 56 rmoveto
          -31 callsubr
          -78 -180 rmoveto
          -31 callsubr
          endchar
        </CharString>
        <CharString name="guillemotleft.uc">
          -25 86 393 hstem
          40 363 vstem
          322 86 rmoveto
          -31 callsubr
          -78 -180 rmoveto
          -31 callsubr
          endchar
        </CharString>
        <CharString name="guillemotright">
          -25 56 393 hstem
          43 363 vstem
          223 56 rmoveto
          -30 callsubr
          -280 -196 rmoveto
          -30 callsubr
          endchar
        </CharString>
        <CharString name="guillemotright.uc">
          -25 86 393 hstem
          43 363 vstem
          223 86 rmoveto
          -30 callsubr
          -280 -196 rmoveto
          -30 callsubr
          endchar
        </CharString>
        <CharString name="guilsinglleft">
          -205 56 393 hstem
          40 183 vstem
          142 56 rmoveto
          -31 callsubr
          endchar
        </CharString>
        <CharString name="guilsinglleft.uc">
          -205 86 393 hstem
          40 183 vstem
          142 86 rmoveto
          -31 callsubr
          endchar
        </CharString>
        <CharString name="guilsinglright">
          -205 56 393 hstem
          43 183 vstem
          43 56 rmoveto
          -30 callsubr
          endchar
        </CharString>
        <CharString name="guilsinglright.uc">
          -205 86 393 hstem
          43 183 vstem
          43 86 rmoveto
          -30 callsubr
          endchar
        </CharString>
        <CharString name="h">
          63 21 -21 447 76 216 -20 hstem
          63 88 235 88 vstem
          63 hmoveto
          -52 callsubr
          endchar
        </CharString>
        <CharString name="hbar">
          63 21 -21 447 76 65 61 -61 151 hstemhm
          63 88 235 88 hintmask 11011100
          63 hmoveto
          88 413 hlineto
          37 17 53 17 45 0 rrcurveto
          81 19 -25 -59 hvcurveto
          -363 88 382 vlineto
          99 -48 42 -101 vhcurveto
          -63 0 -64 -23 -42 -29 rrcurveto
          -5 117 146 hlineto
          hintmask 11101100
          61 -146 vlineto
          hintmask 11011100
          90 -88 vlineto
          hintmask 11101100
          -90 -64 vlineto
          hintmask 11011100
          -61 64 vlineto
          endchar
        </CharString>
        <CharString name="hcircumflex">
          63 21 -21 447 76 216 -20 71 124 hstem
          63 88 235 88 vstem
          63 hmoveto
          -52 callsubr
          76 51 rmoveto
          14 callsubr
          endchar
        </CharString>
        <CharString name="hungarumlaut">
          587 145 hstem
          115 300 vstem
          115 587 rmoveto
          -17 callsubr
          110 -145 rmoveto
          -16 callsubr
          endchar
        </CharString>
        <CharString name="hungarumlaut.uc">
          740 125 hstem
          115 291 vstem
          115 740 rmoveto
          37 callsubr
          119 -125 rmoveto
          38 callsubr
          endchar
        </CharString>
        <CharString name="hyphen">
          -151 238 76 hstem
          63 194 vstem
          63 238 rmoveto
          194 76 -194 hlineto
          endchar
        </CharString>
        <CharString name="hyphen.uc">
          -131 298 76 hstem
          63 214 vstem
          63 298 rmoveto
          214 76 -214 hlineto
          endchar
        </CharString>
        <CharString name="i">
          -251 21 -21 513 -20 122 91 hstem
          66 88 vstem
          66 hmoveto
          -51 callsubr
          -1 102 rmoveto
          90 91 -90 hlineto
          endchar
        </CharString>
        <CharString name="iacute">
          -251 21 -21 513 -20 94 145 hstem
          66 88 vstem
          66 hmoveto
          -51 callsubr
          -3 74 rmoveto
          -26 callsubr
          endchar
        </CharString>
        <CharString name="ibreve">
          -251 21 -21 513 -20 100 66 hstem
          -14 67 13 88 13 67 vstem
          66 hmoveto
          -51 callsubr
          44 80 rmoveto
          74 0 48 52 2 74 rrcurveto
          -67 hlineto
          -3 -37 -19 -23 -35 0 -35 0 -19 23 -3 37 rrcurveto
          -67 hlineto
          1 -74 47 -52 76 0 rrcurveto
          endchar
        </CharString>
        <CharString name="icircumflex">
          -251 21 -21 513 -20 94 144 hstem
          66 88 vstem
          66 hmoveto
          -51 callsubr
          -84 74 rmoveto
          22 callsubr
          endchar
        </CharString>
        <CharString name="idieresis">
          -251 21 -21 513 -20 122 89 hstemhm
          -8 86 -12 88 -12 86 hintmask 11110100
          142 615 rmoveto
          86 89 -86 hlineto
          -150 -89 rmoveto
          86 89 -86 hlineto
          hintmask 11101000
          74 -704 rmoveto
          -51 callsubr
          endchar
        </CharString>
        <CharString name="idotaccent">
          -251 21 -21 513 -20 122 91 hstem
          66 88 vstem
          66 hmoveto
          -51 callsubr
          -1 102 rmoveto
          90 91 -90 hlineto
          endchar
        </CharString>
        <CharString name="igrave">
          -251 21 -21 513 -20 94 145 hstem
          66 88 vstem
          66 hmoveto
          -51 callsubr
          10 74 rmoveto
          -27 callsubr
          endchar
        </CharString>
        <CharString name="ij">
          -31 -199 72 148 -21 513 -20 122 91 hstem
          66 88 132 88 vstem
          66 hmoveto
          -51 callsubr
          -1 102 rmoveto
          90 91 -90 hlineto
          167 -905 rmoveto
          -50 callsubr
          53 814 rmoveto
          90 91 -90 hlineto
          endchar
        </CharString>
        <CharString name="imacron">
          -251 21 -21 513 -20 127 73 hstemhm
          15 190 -139 88 hintmask 11110000
          15 620 rmoveto
          190 73 -190 hlineto
          hintmask 11101000
          51 -693 rmoveto
          -51 callsubr
          endchar
        </CharString>
        <CharString name="iogonek">
          -251 -200 60 162 -21 512 -20 122 91 hstemhm
          3 78 -15 88 hintmask 11111000
          3 -113 rmoveto
          -52 38 -35 66 vhcurveto
          25 0 17 5 14 5 rrcurveto
          54 vlineto
          -7 -2 -13 -2 -13 0 -26 0 -23 8 0 30 rrcurveto
          hintmask 11110100
          0 35 31 35 42 33 rrcurveto
          512 -88 -518 vlineto
          -32 -25 -31 -37 0 -46 rrcurveto
          62 728 rmoveto
          90 91 -90 hlineto
          endchar
        </CharString>
        <CharString name="itilde">
          -251 21 -21 513 -20 113 71 -36 71 hstemhm
          -27 60 33 88 33 60 hintmask 11100100
          66 hmoveto
          -51 callsubr
          hintmask 11011100
          -93 91 rmoveto
          60 hlineto
          4 25 9 12 17 0 rrcurveto
          hintmask 11100110
          22 0 33 -35 42 0 38 0 42 32 7 76 rrcurveto
          -60 hlineto
          -4 -25 -9 -12 -17 0 rrcurveto
          hintmask 11011100
          -23 0 -32 35 -42 0 rrcurveto
          -38 0 -42 -32 -7 -76 rrcurveto
          endchar
        </CharString>
        <CharString name="j">
          -251 -199 72 640 -20 122 91 hstem
          66 88 vstem
          12 -199 rmoveto
          -50 callsubr
          53 814 rmoveto
          90 91 -90 hlineto
          endchar
        </CharString>
        <CharString name="jcircumflex">
          -251 -199 72 640 -20 94 144 hstem
          66 88 vstem
          -17 587 rmoveto
          22 callsubr
          -61 -930 rmoveto
          -50 callsubr
          endchar
        </CharString>
        <CharString name="k">
          7 21 -21 513 -20 246 -20 hstem
          63 88 vstem
          63 hmoveto
          -49 callsubr
          304 -739 rmoveto
          -48 callsubr
          endchar
        </CharString>
        <CharString name="kcommaaccent">
          7 -182 140 63 -21 513 -20 246 -20 hstem
          63 88 vstem
          63 hmoveto
          -49 callsubr
          304 -739 rmoveto
          -48 callsubr
          21 -447 rmoveto
          32 callsubr
          endchar
        </CharString>
        <CharString name="l">
          -251 21 -21 739 -20 hstem
          66 88 vstem
          66 hmoveto
          -49 callsubr
          endchar
        </CharString>
        <CharString name="l.alt">
          -207 -6 71 674 -20 hstem
          66 88 vstem
          177 -6 rmoveto
          64 callsubr
          endchar
        </CharString>
        <CharString name="lacute">
          -251 21 -21 739 -20 71 125 hstem
          66 88 vstem
          66 hmoveto
          -49 callsubr
          3 51 rmoveto
          13 callsubr
          endchar
        </CharString>
        <CharString name="lacute.alt">
          -207 -6 71 674 -20 71 125 hstem
          66 88 vstem
          177 -6 rmoveto
          64 callsubr
          -108 796 rmoveto
          13 callsubr
          endchar
        </CharString>
        <CharString name="lcaron">
          -251 21 -21 576 163 hstem
          66 88 vstem
          66 hmoveto
          -49 callsubr
          197 -163 rmoveto
          33 callsubr
          endchar
        </CharString>
        <CharString name="lcaron.alt">
          -207 -6 71 511 163 hstem
          66 88 vstem
          177 -6 rmoveto
          64 callsubr
          86 582 rmoveto
          33 callsubr
          endchar
        </CharString>
        <CharString name="lcommaaccent">
          -251 -182 140 63 -21 739 -20 hstem
          66 88 vstem
          66 hmoveto
          -49 callsubr
          -16 -921 rmoveto
          32 callsubr
          endchar
        </CharString>
        <CharString name="lcommaaccent.alt">
          -207 -182 140 36 71 674 -20 hstemhm
          66 88 -52 151 hintmask 11110000
          177 -6 rmoveto
          hintmask 11101000
          38 0 18 7 20 9 rrcurveto
          61 vlineto
          hintmask 11110000
          -19 -5 -17 -1 -16 0 rrcurveto
          -30 -17 12 49 hvcurveto
          613 -88 -623 vlineto
          -91 45 -31 66 vhcurveto
          hintmask 11101000
          -81 -176 rmoveto
          32 callsubr
          endchar
        </CharString>
        <CharString name="ldot">
          -191 21 -21 309 91 339 -20 hstem
          66 88 51 90 vstem
          66 hmoveto
          -49 callsubr
          139 -430 rmoveto
          90 91 -90 hlineto
          endchar
        </CharString>
        <CharString name="ldot.alt">
          -191 -6 71 244 91 339 -20 hstem
          66 88 51 90 vstem
          177 -6 rmoveto
          64 callsubr
          28 315 rmoveto
          90 91 -90 hlineto
          endchar
        </CharString>
        <CharString name="less">
          10 104 431 hstem
          45 376 vstem
          421 104 rmoveto
          -98 callsubr
          endchar
        </CharString>
        <CharString name="less.old">
          40 76 431 hstem
          62 376 vstem
          438 76 rmoveto
          -98 callsubr
          endchar
        </CharString>
        <CharString name="lslash">
          -225 21 -21 739 -20 hstem
          79 88 vstem
          8 294 rmoveto
          71 40 0 -334 88 0 0 384 80 46 0 80 -80 -46 0 275 -88 0 0 -325 -71 -40 rlineto
          endchar
        </CharString>
        <CharString name="lslash.alt">
          -198 -6 71 674 -20 hstem
          75 88 vstem
          8 291 rmoveto
          67 36 0 -211 rlineto
          -91 45 -31 66 vhcurveto
          38 0 18 7 20 9 rrcurveto
          61 vlineto
          -19 -5 -17 -1 -16 0 rrcurveto
          -30 -17 12 49 hvcurveto
          0 249 101 55 0 80 -101 -55 0 284 -88 0 0 -332 -67 -36 rlineto
          endchar
        </CharString>
        <CharString name="m">
          338 21 -21 447 76 -10 -20 hstemhm
          63 88 211 88 211 88 cntrmask 00011100
          hintmask 11011100
          63 hmoveto
          88 413 hlineto
          37 18 44 16 41 0 rrcurveto
          68 21 -25 -59 hvcurveto
          -363 88 382 vlineto
          0 11 -1 9 -1 10 44 21 42 14 38 0 rrcurveto
          68 21 -25 -59 hvcurveto
          -363 88 382 vlineto
          99 -52 42 -90 vhcurveto
          -58 0 -59 -21 -54 -36 rrcurveto
          -5 hlineto
          -24 39 -41 18 -58 0 -57 0 -56 -25 -43 -29 rrcurveto
          -5 hlineto
          hintmask 10111100
          44 -84 vlineto
          endchar
        </CharString>
        <CharString name="macron">
          620 73 hstem
          128 238 vstem
          128 620 rmoveto
          -21 callsubr
          endchar
        </CharString>
        <CharString name="macron.uc">
          748 73 hstem
          128 238 vstem
          128 748 rmoveto
          -21 callsubr
          endchar
        </CharString>
        <CharString name="minus">
          46 295 77 hstem
          49 419 vstem
          49 295 rmoveto
          419 77 -419 hlineto
          endchar
        </CharString>
        <CharString name="minus.old">
          84 267 77 hstem
          68 419 vstem
          68 267 rmoveto
          419 77 -419 hlineto
          endchar
        </CharString>
        <CharString name="multiply">
          78 522 -20 hstem
          73 398 vstem
          126 124 rmoveto
          10 callsubr
          endchar
        </CharString>
        <CharString name="multiply.old">
          84 96 398 hstem
          76 398 vstem
          129 96 rmoveto
          10 callsubr
          endchar
        </CharString>
        <CharString name="n">
          63 21 -21 447 76 -10 -20 hstemhm
          63 88 235 88 hintmask 11011000
          63 hmoveto
          -47 callsubr
          hintmask 10111000
          44 -84 vlineto
          endchar
        </CharString>
        <CharString name="nacute">
          63 21 -21 447 76 -10 -20 94 145 hstemhm
          63 88 235 88 hintmask 11011100
          63 hmoveto
          -47 callsubr
          hintmask 10111100
          44 -84 vlineto
          160 74 rmoveto
          -26 callsubr
          endchar
        </CharString>
        <CharString name="nacute.pl">
          63 21 -21 447 76 -10 -20 94 145 hstemhm
          63 88 235 88 hintmask 11011100
          63 hmoveto
          -47 callsubr
          hintmask 10111100
          44 -84 vlineto
          172 74 rmoveto
          35 callsubr
          endchar
        </CharString>
        <CharString name="napostrophe">
          89 21 -21 447 76 -10 -20 15 185 hstemhm
          89 88 235 88 hintmask 11001100
          89 hmoveto
          -47 callsubr
          hintmask 10101100
          44 -84 vlineto
          hintmask 10011100
          -125 -5 rmoveto
          -103 callsubr
          endchar
        </CharString>
        <CharString name="ncaron">
          63 21 -21 447 76 -10 -20 94 144 hstemhm
          63 88 235 88 hintmask 11011100
          63 hmoveto
          -47 callsubr
          hintmask 10111100
          44 -84 vlineto
          169 74 rmoveto
          -15 callsubr
          endchar
        </CharString>
        <CharString name="ncommaaccent">
          63 -182 140 63 -21 447 76 -10 -20 hstemhm
          63 88 235 88 hintmask 11101100
          63 hmoveto
          -47 callsubr
          hintmask 11011100
          44 -84 vlineto
          147 -695 rmoveto
          32 callsubr
          endchar
        </CharString>
        <CharString name="nine">
          119 -13 78 194 77 293 76 hstem
          45 96 301 98 vstem
          224 -13 rmoveto
          179 137 92 272 hvcurveto
          44 vlineto
          206 -108 104 -148 -158 -81 -107 -130 -137 89 -72 125 vhcurveto
          78 0 66 27 39 29 -6 -205 -90 -45 -138 0 -50 0 -52 12 -26 10 rrcurveto
          -72 vlineto
          29 -18 54 -10 61 0 rrcurveto
          61 349 rmoveto
          -84 -60 28 113 93 46 59 98 102 56 -87 -145 hvcurveto
          -15 vlineto
          -39 -25 -52 -21 -67 0 rrcurveto
          endchar
        </CharString>
        <CharString name="nine.den">
          -106 -7 59 103 54 161 55 hstem
          25 75 161 76 vstem
          142 -7 rmoveto
          58 callsubr
          35 216 rmoveto
          59 callsubr
          endchar
        </CharString>
        <CharString name="nine.num">
          -106 270 59 103 54 161 55 hstem
          25 75 161 76 vstem
          142 270 rmoveto
          58 callsubr
          35 216 rmoveto
          59 callsubr
          endchar
        </CharString>
        <CharString name="nine.old">
          78 -113 73 209 73 291 72 hstem
          35 89 295 91 vstem
          212 -113 rmoveto
          166 132 104 270 hvcurveto
          44 vlineto
          183 -92 117 -157 -147 -79 -107 -130 -137 86 -62 120 vhcurveto
          74 0 65 31 39 30 -10 -212 -96 -58 -117 0 -53 0 -53 13 -27 11 rrcurveto
          -66 vlineto
          30 -19 55 -12 64 0 rrcurveto
          53 355 rmoveto
          -80 -61 22 113 93 49 63 89 109 49 -94 -132 hvcurveto
          -17 vlineto
          -39 -25 -51 -23 -65 0 rrcurveto
          endchar
        </CharString>
        <CharString name="nine.sub">
          -106 -127 59 103 54 161 55 hstem
          25 75 161 76 vstem
          142 -127 rmoveto
          58 callsubr
          35 216 rmoveto
          59 callsubr
          endchar
        </CharString>
        <CharString name="nine.sup">
          -106 315 59 103 54 161 55 hstem
          25 75 161 76 vstem
          142 315 rmoveto
          58 callsubr
          35 216 rmoveto
          59 callsubr
          endchar
        </CharString>
        <CharString name="ntilde">
          63 21 -21 447 76 -10 -20 113 71 -36 71 hstemhm
          63 88 -30 60 178 60 -33 88 hintmask 1101010010000000
          63 hmoveto
          -47 callsubr
          hintmask 1011010010000000
          44 -84 vlineto
          hintmask 1100101010000000
          58 91 rmoveto
          -24 callsubr
          hintmask 1101010100000000
          -23 callsubr
          hintmask 1100101010000000
          -22 callsubr
          endchar
        </CharString>
        <CharString name="numbersign">
          54 21 -21 213 77 124 77 202 -20 hstem
          35 455 vstem
          61 414 rmoveto
          88 0 -20 -124 -94 0 0 -77 82 0 -34 -213 71 0 34 213 109 0 -34 -213 71 0 34 213 96 0 0 77 -84 0 rlineto
          20 124 90 0 0 77 -77 0 32 202 -71 0 -32 -202 -109 0 32 202 -71 0 -32 -202 -101 0 rlineto
          159 -77 rmoveto
          109 0 -20 -124 -109 0 rlineto
          endchar
        </CharString>
        <CharString name="numbersign.old">
          40 21 -21 188 77 124 77 hstem
          25 460 vstem
          78 hmoveto
          71 0 30 188 109 0 -30 -188 71 0 30 188 95 0 0 77 -83 0 19 124 95 0 0 77 -83 0 28 177 -71 0 rlineto
          -28 -177 -109 0 28 177 -71 0 -28 -177 -95 0 0 -77 83 0 -19 -124 -95 0 0 -77 83 0 rlineto
          83 77 rmoveto
          19 124 109 0 -19 -124 rlineto
          endchar
        </CharString>
        <CharString name="o">
          60 -10 72 389 72 hstem
          31 91 287 91 vstem
          265 -10 rmoveto
          -46 callsubr
          2 72 rmoveto
          -45 callsubr
          endchar
        </CharString>
        <CharString name="oacute">
          60 -10 72 389 72 64 145 hstem
          31 91 287 91 vstem
          265 -10 rmoveto
          -46 callsubr
          2 72 rmoveto
          -45 callsubr
          -49 525 rmoveto
          -26 callsubr
          endchar
        </CharString>
        <CharString name="oacute.pl">
          60 -10 72 389 72 64 145 hstem
          31 91 287 91 vstem
          265 -10 rmoveto
          -46 callsubr
          2 72 rmoveto
          -45 callsubr
          -37 525 rmoveto
          35 callsubr
          endchar
        </CharString>
        <CharString name="obreve">
          60 -10 72 389 72 70 66 hstem
          31 91 287 91 vstem
          265 -10 rmoveto
          -46 callsubr
          2 72 rmoveto
          -45 callsubr
          -2 531 rmoveto
          -20 callsubr
          endchar
        </CharString>
        <CharString name="ocircumflex">
          60 -10 72 389 72 64 144 hstem
          31 91 287 91 vstem
          265 -10 rmoveto
          -46 callsubr
          2 72 rmoveto
          -45 callsubr
          -142 525 rmoveto
          -25 callsubr
          endchar
        </CharString>
        <CharString name="odieresis">
          60 -10 72 389 72 92 89 hstem
          31 91 15 86 84 86 16 91 vstem
          265 -10 rmoveto
          -46 callsubr
          2 72 rmoveto
          -45 callsubr
          40 553 rmoveto
          86 89 -86 hlineto
          -170 -89 rmoveto
          86 89 -86 hlineto
          endchar
        </CharString>
        <CharString name="oe">
          403 -10 72 -72 76 166 68 151 72 hstemhm
          31 91 287 91 250 93 hintmask 10111110
          265 -10 rmoveto
          87 0 65 37 36 67 36 -66 65 -38 100 0 85 0 58 27 31 23 rrcurveto
          hintmask 01111110
          65 vlineto
          -47 -24 -44 -15 -69 0 -103 0 -59 43 -6 123 rrcurveto
          343 49 hlineto
          161 -67 81 -141 vhcurveto
          -76 0 -66 -33 -38 -70 -35 66 -64 37 -90 0 rrcurveto
          -141 -94 -99 -161 hvcurveto
          -17 vlineto
          -161 86 -95 148 vhcurveto
          2 72 rmoveto
          -45 callsubr
          364 390 rmoveto
          78 41 -42 -110 hvcurveto
          -250 hlineto
          7 120 67 32 57 0 rrcurveto
          endchar
        </CharString>
        <CharString name="ogonek">
          -200 60 hstem
          148 78 vstem
          255 -200 rmoveto
          25 0 17 5 14 5 rrcurveto
          54 vlineto
          -7 -2 -13 -2 -13 0 -29 0 -23 6 0 30 0 35 34 36 42 33 rrcurveto
          -68 hlineto
          -36 -19 -50 -40 0 -56 0 -52 39 -33 68 0 rrcurveto
          endchar
        </CharString>
        <CharString name="ograve">
          60 -10 72 389 72 64 145 hstem
          31 91 287 91 vstem
          265 -10 rmoveto
          -46 callsubr
          2 72 rmoveto
          -45 callsubr
          -36 525 rmoveto
          -27 callsubr
          endchar
        </CharString>
        <CharString name="ohungarumlaut">
          60 -10 72 389 72 64 145 hstem
          31 91 287 91 vstem
          265 -10 rmoveto
          -46 callsubr
          2 72 rmoveto
          -45 callsubr
          -119 525 rmoveto
          -17 callsubr
          110 -145 rmoveto
          -16 callsubr
          endchar
        </CharString>
        <CharString name="omacron">
          60 -10 72 389 72 97 73 hstem
          31 91 24 238 25 91 vstem
          265 -10 rmoveto
          -46 callsubr
          2 72 rmoveto
          -45 callsubr
          -121 558 rmoveto
          -21 callsubr
          endchar
        </CharString>
        <CharString name="one">
          -137 21 -21 699 -20 hstem
          154 91 vstem
          154 hmoveto
          91 699 -32 hlineto
          -186 -66 0 -52 127 12 rlineto
          endchar
        </CharString>
        <CharString name="one.den">
          -225 21 -21 hstem
          102 73 vstem
          102 hmoveto
          3 callsubr
          endchar
        </CharString>
        <CharString name="one.num">
          -225 696 -20 hstem
          102 73 vstem
          102 277 rmoveto
          3 callsubr
          endchar
        </CharString>
        <CharString name="one.old">
          -140 21 -21 599 -20 hstem
          154 88 vstem
          154 hmoveto
          88 599 -32 hlineto
          -187 -68 0 -52 131 14 rlineto
          endchar
        </CharString>
        <CharString name="one.sub">
          -225 -120 419 hstem
          102 73 vstem
          102 -120 rmoveto
          3 callsubr
          endchar
        </CharString>
        <CharString name="one.sup">
          -225 697 -20 64 -20 hstem
          102 73 vstem
          102 322 rmoveto
          3 callsubr
          endchar
        </CharString>
        <CharString name="oneeighth">
          322 -7 55 321 55 272 -20 hstemhm
          105 73 269 70 -57 72 147 69 -58 75 hintmask 11111001
          105 277 rmoveto
          3 callsubr
          -69 -659 rmoveto
          -32 callsubr
          58 -720 rmoveto
          23 callsubr
          hintmask 11110110
          24 callsubr
          hintmask 11111001
          25 callsubr
          -2 55 rmoveto
          26 callsubr
          hintmask 11110110
          18 194 rmoveto
          27 callsubr
          endchar
        </CharString>
        <CharString name="onehalf">
          342 0 58 306 59 273 -20 hstem
          105 73 511 78 vstem
          105 277 rmoveto
          3 callsubr
          -49 -659 rmoveto
          -32 callsubr
          -62 -713 rmoveto
          4 callsubr
          endchar
        </CharString>
        <CharString name="onequarter">
          300 0 164 -55 55 152 100 280 -20 hstemhm
          105 73 240 72 121 71 hintmask 01011010
          105 277 rmoveto
          3 callsubr
          -36 -659 rmoveto
          -32 callsubr
          hintmask 10011010
          30 -713 rmoveto
          72 hlineto
          hintmask 01111110
          5 callsubr
          -120 55 rmoveto
          6 callsubr
          endchar
        </CharString>
        <CharString name="onethird">
          329 -7 59 136 55 121 59 273 -20 hstemhm
          105 73 380 116 3 74 -62 77 hintmask 11111001
          105 277 rmoveto
          3 callsubr
          -54 -659 rmoveto
          -32 callsubr
          46 -720 rmoveto
          30 callsubr
          hintmask 11111010
          31 callsubr
          hintmask 11111101
          -34 -55 hlineto
          hintmask 11111001
          9 callsubr
          endchar
        </CharString>
        <CharString name="ordfeminine">
          -36 222 65 343 72 hstem
          29 87 174 85 vstem
          172 222 rmoveto
          61 0 37 22 22 26 rrcurveto
          6 0 8 -39 69 0 0 334 rlineto
          94 -60 43 -103 vhcurveto
          -57 0 -45 -9 -43 -16 rrcurveto
          -61 vlineto
          29 6 37 8 45 0 rrcurveto
          82 30 -16 -69 hvcurveto
          0 -41 -120 -14 rlineto
          -88 -11 -53 -44 0 -81 0 -89 60 -43 83 0 rrcurveto
          23 65 rmoveto
          -48 -31 22 48 hvcurveto
          0 49 27 20 50 6 rrcurveto
          97 11 0 -126 rlineto
          -19 -18 -38 -12 -38 0 rrcurveto
          endchar
        </CharString>
        <CharString name="ordmasculine">
          15 222 68 344 68 hstem
          30 87 251 88 vstem
          242 222 rmoveto
          128 86 88 146 hvcurveto
          15 vlineto
          145 -79 86 -134 -127 -86 -88 -146 vhcurveto
          -15 vlineto
          -145 78 -86 134 vhcurveto
          2 68 rmoveto
          -70 -57 38 123 hvcurveto
          25 vlineto
          102 46 56 78 70 57 -38 -123 vhcurveto
          -26 vlineto
          -102 -46 -55 -78 vhcurveto
          endchar
        </CharString>
        <CharString name="oslash">
          60 -10 71 -61 84 350 79 -61 71 hstemhm
          31 91 287 91 hintmask 10011100
          265 -10 rmoveto
          141 94 98 162 hvcurveto
          16 vlineto
          hintmask 10101100
          -4 callsubr
          hintmask 01011100
          -3 callsubr
          hintmask 10011100
          -2 callsubr
          2 71 rmoveto
          -1 callsubr
          -145 183 rmoveto
          0 callsubr
          endchar
        </CharString>
        <CharString name="oslashacute">
          60 -10 71 -61 84 350 79 -61 71 64 145 hstemhm
          31 91 287 91 hintmask 10011110
          265 -10 rmoveto
          141 94 98 162 hvcurveto
          16 vlineto
          hintmask 10101110
          -4 callsubr
          hintmask 01011110
          -3 callsubr
          hintmask 10011110
          -2 callsubr
          2 71 rmoveto
          -1 callsubr
          -145 183 rmoveto
          0 callsubr
          95 343 rmoveto
          -26 callsubr
          endchar
        </CharString>
        <CharString name="otilde">
          60 -10 72 389 72 83 71 -36 71 hstemhm
          31 91 -6 60 178 60 -5 91 hintmask 11001001
          265 -10 rmoveto
          -46 callsubr
          2 72 rmoveto
          -45 callsubr
          hintmask 11010101
          -151 542 rmoveto
          -24 callsubr
          hintmask 11101010
          -23 callsubr
          hintmask 11010101
          -22 callsubr
          endchar
        </CharString>
        <CharString name="p">
          73 -174 -21 185 72 386 75 -10 -20 hstemhm
          63 88 268 91 hintmask 11101100
          63 -195 rmoveto
          88 218 hlineto
          27 -16 43 -17 58 0 rrcurveto
          141 90 79 188 hvcurveto
          14 vlineto
          189 -99 63 -111 vhcurveto
          -63 0 -54 -22 -31 -29 rrcurveto
          -5 hlineto
          hintmask 11011100
          41 -84 vlineto
          208 -451 rmoveto
          -52 0 -46 17 -22 18 rrcurveto
          hintmask 11101100
          316 vlineto
          22 16 46 19 57 0 rrcurveto
          92 51 -42 -139 hvcurveto
          -22 vlineto
          -134 -55 -49 -93 vhcurveto
          endchar
        </CharString>
        <CharString name="paragraph">
          96 636 57 hstem
          276 65 83 65 vstem
          276 -120 rmoveto
          65 756 83 -756 65 813 -229 hlineto
          -170 -59 -83 -96 -116 93 -61 103 hvcurveto
          49 hlineto
          endchar
        </CharString>
        <CharString name="parenleft">
          -143 739 -20 hstem
          55 92 vstem
          238 -120 rmoveto
          -102 callsubr
          endchar
        </CharString>
        <CharString name="parenleft.uc">
          -143 -91 859 hstem
          55 92 vstem
          238 -91 rmoveto
          -102 callsubr
          endchar
        </CharString>
        <CharString name="parenright">
          -143 739 -20 hstem
          181 92 vstem
          12 -120 rmoveto
          -101 callsubr
          endchar
        </CharString>
        <CharString name="parenright.uc">
          -143 -91 859 hstem
          181 92 vstem
          12 -91 rmoveto
          -101 callsubr
          endchar
        </CharString>
        <CharString name="percent">
          386 -9 58 267 58 -52 58 267 58 hstemhm
          40 79 165 79 131 79 165 79 hintmask 10111111
          202 322 rmoveto
          -106 callsubr
          454 -331 rmoveto
          100 61 78 109 hvcurveto
          17 vlineto
          hintmask 11011111
          -105 callsubr
          -510 -31 rmoveto
          76 0 480 753 -76 0 rlineto
          30 -664 rmoveto
          -104 callsubr
          -454 331 rmoveto
          -104 callsubr
          endchar
        </CharString>
        <CharString name="percent.old">
          346 -7 56 238 56 236 56 hstem
          35 77 152 77 135 77 152 77 vstem
          188 287 rmoveto
          52 callsubr
          441 -294 rmoveto
          52 callsubr
          -480 -23 rmoveto
          76 0 435 673 -76 0 rlineto
          45 -594 rmoveto
          53 callsubr
          -441 294 rmoveto
          53 callsubr
          endchar
        </CharString>
        <CharString name="period">
          -219 0 101 hstem
          76 100 vstem
          76 hmoveto
          100 101 -100 hlineto
          endchar
        </CharString>
        <CharString name="periodcentered">
          -219 273 101 hstem
          76 100 vstem
          76 273 rmoveto
          100 101 -100 hlineto
          endchar
        </CharString>
        <CharString name="perthousand">
          766 -9 58 267 58 -52 58 267 58 hstemhm
          43 79 165 79 131 79 165 79 51 79 165 79 hintmask 1011110011000000
          205 322 rmoveto
          -106 callsubr
          -56 -362 rmoveto
          76 0 480 753 -76 0 rlineto
          404 -722 rmoveto
          100 61 78 109 hvcurveto
          17 vlineto
          hintmask 0100000011000000
          -105 callsubr
          hintmask 1100001100000000
          -374 hmoveto
          -106 callsubr
          hintmask 1011110011000000
          -454 389 rmoveto
          -104 callsubr
          828 -331 rmoveto
          -54 -29 37 85 hvcurveto
          25 vlineto
          hintmask 0100000011000000
          82 31 38 52 52 30 -39 -82 vhcurveto
          -25 vlineto
          -84 -28 -37 -54 vhcurveto
          hintmask 1100001100000000
          -374 hmoveto
          -104 callsubr
          endchar
        </CharString>
        <CharString name="perthousand.old">
          698 -7 56 236 56 238 56 hstem
          35 77 152 77 135 77 152 77 46 77 152 77 vstem
          188 287 rmoveto
          52 callsubr
          441 -294 rmoveto
          52 callsubr
          -480 -23 rmoveto
          76 0 435 673 -76 0 rlineto
          45 -594 rmoveto
          53 callsubr
          -441 294 rmoveto
          53 callsubr
          793 -350 rmoveto
          52 callsubr
          56 vmoveto
          53 callsubr
          endchar
        </CharString>
        <CharString name="plus">
          46 295 77 hstem
          218 81 vstem
          218 119 rmoveto
          -100 callsubr
          endchar
        </CharString>
        <CharString name="plus.old">
          84 267 77 176 -20 hstem
          237 81 vstem
          237 91 rmoveto
          -100 callsubr
          endchar
        </CharString>
        <CharString name="q">
          70 -174 -21 185 74 388 71 hstem
          34 91 268 88 vstem
          393 -195 rmoveto
          88 681 hlineto
          -43 21 -62 16 -89 0 rrcurveto
          -137 -116 -63 -206 hvcurveto
          -14 vlineto
          -189 113 -61 99 vhcurveto
          71 0 46 23 25 18 rrcurveto
          5 hlineto
          -119 33 rmoveto
          -91 -58 41 139 hvcurveto
          22 vlineto
          135 62 51 94 vhcurveto
          46 0 40 -9 26 -7 rrcurveto
          -333 vlineto
          -22 -18 -40 -21 -57 0 rrcurveto
          endchar
        </CharString>
        <CharString name="question">
          -57 0 101 528 76 hstemhm
          113 100 -93 83 83 96 hintmask 11011000
          120 208 rmoveto
          83 43 hlineto
          0 49 28 20 47 39 75 62 29 29 0 85 0 122 -90 48 -108 0 -64 0 -47 -10 -47 -20 rrcurveto
          -71 vlineto
          45 15 31 10 61 0 77 0 46 -24 0 -72 0 -59 -18 -26 -44 -36 -67 -56 -37 -28 0 -71 rrcurveto
          hintmask 11101000
          -7 -257 rmoveto
          100 101 -100 hlineto
          endchar
        </CharString>
        <CharString name="questiondown">
          -57 -132 76 528 101 hstemhm
          32 96 73 100 -90 83 hintmask 11110000
          230 -132 rmoveto
          -29 callsubr
          hintmask 11101000
          -28 callsubr
          -29 604 rmoveto
          100 101 -100 hlineto
          endchar
        </CharString>
        <CharString name="questiondown.uc">
          -57 -12 76 528 101 hstemhm
          32 96 73 100 -90 83 hintmask 11110000
          230 -12 rmoveto
          -29 callsubr
          hintmask 11101000
          -28 callsubr
          -29 604 rmoveto
          100 101 -100 hlineto
          endchar
        </CharString>
        <CharString name="quotedbl">
          -110 508 185 hstem
          58 87 71 87 vstem
          221 508 rmoveto
          -107 callsubr
          -148 -185 rmoveto
          -107 callsubr
          endchar
        </CharString>
        <CharString name="quotedblbase">
          -106 -75 185 hstem
          55 268 vstem
          213 -75 rmoveto
          -103 callsubr
          -171 -185 rmoveto
          -103 callsubr
          endchar
        </CharString>
        <CharString name="quotedblleft">
          -106 508 185 hstem
          42 268 vstem
          200 508 rmoveto
          -68 callsubr
          -191 -185 rmoveto
          -68 callsubr
          endchar
        </CharString>
        <CharString name="quotedblright">
          -106 508 185 hstem
          55 268 vstem
          213 508 rmoveto
          -103 callsubr
          -171 -185 rmoveto
          -103 callsubr
          endchar
        </CharString>
        <CharString name="quoteleft">
          -264 508 185 hstem
          42 110 vstem
          42 508 rmoveto
          -68 callsubr
          endchar
        </CharString>
        <CharString name="quoteright">
          -264 508 185 hstem
          55 110 vstem
          55 508 rmoveto
          -103 callsubr
          endchar
        </CharString>
        <CharString name="quotesinglbase">
          -264 -75 185 hstem
          55 110 vstem
          55 -75 rmoveto
          -103 callsubr
          endchar
        </CharString>
        <CharString name="quotesingle">
          -268 508 185 hstem
          58 87 vstem
          63 508 rmoveto
          -107 callsubr
          endchar
        </CharString>
        <CharString name="r">
          -133 21 -21 440 79 -6 -20 22 -20 hstemhm
          63 88 hintmask 11001000
          63 hmoveto
          -44 callsubr
          hintmask 10011000
          78 vlineto
          hintmask 11001000
          -43 callsubr
          hintmask 10101000
          57 -84 vlineto
          endchar
        </CharString>
        <CharString name="racute">
          -133 21 -21 440 79 -6 -20 22 -20 92 145 hstemhm
          63 88 hintmask 11001100
          63 hmoveto
          -44 callsubr
          hintmask 10011100
          78 vlineto
          hintmask 11001100
          -43 callsubr
          hintmask 10101100
          57 -84 vlineto
          96 74 rmoveto
          -26 callsubr
          endchar
        </CharString>
        <CharString name="rcaron">
          -133 21 -21 440 79 -6 -20 22 -20 92 144 hstemhm
          63 88 hintmask 11001100
          63 hmoveto
          -44 callsubr
          hintmask 10011100
          78 vlineto
          hintmask 11001100
          -43 callsubr
          hintmask 10101100
          57 -84 vlineto
          105 74 rmoveto
          -15 callsubr
          endchar
        </CharString>
        <CharString name="rcommaaccent">
          -133 -182 140 63 -21 440 79 -6 -20 22 -20 hstemhm
          63 88 hintmask 11100100
          63 hmoveto
          -44 callsubr
          hintmask 11001100
          78 vlineto
          hintmask 11100100
          -43 callsubr
          hintmask 11010100
          57 -84 vlineto
          -18 -695 rmoveto
          32 callsubr
          endchar
        </CharString>
        <CharString name="registered">
          -38 314 33 144 35 45 36 68 32 hstem
          21 40 90 47 49 48 77 40 vstem
          216 314 rmoveto
          110 86 89 108 109 -86 87 -110 -110 -85 -87 -109 -108 85 -89 110 hvcurveto
          33 vmoveto
          -93 -62 72 92 90 62 74 93 93 63 -74 -90 -92 -63 -72 -93 hvcurveto
          -65 73 rmoveto
          47 71 21 hlineto
          37 -71 49 0 -43 80 0 3 rlineto
          19 7 14 13 0 27 rrcurveto
          39 -27 18 -46 vhcurveto
          -71 hlineto
          47 -81 rmoveto
          45 21 vlineto
          21 7 -6 -16 -15 -6 -8 -22 hvcurveto
          endchar
        </CharString>
        <CharString name="registered.alt">
          329 -14 50 273 56 111 58 116 50 hstem
          45 60 168 75 120 77 150 60 vstem
          399 -14 rmoveto
          11 callsubr
          50 vmoveto
          12 callsubr
          -126 125 rmoveto
          75 148 49 hlineto
          86 -148 81 0 -95 159 0 4 rlineto
          46 12 30 31 0 55 rrcurveto
          77 -51 35 -93 vhcurveto
          -128 hlineto
          75 -169 rmoveto
          111 51 vlineto
          41 28 -10 -43 -41 -24 -17 -43 hvcurveto
          endchar
        </CharString>
        <CharString name="ring">
          576 43 98 43 hstem
          151 48 96 48 vstem
          247 576 rmoveto
          -19 callsubr
          43 vmoveto
          -18 callsubr
          endchar
        </CharString>
        <CharString name="ring.uc">
          729 43 98 43 hstem
          151 48 96 48 vstem
          247 729 rmoveto
          -19 callsubr
          43 vmoveto
          -18 callsubr
          endchar
        </CharString>
        <CharString name="s">
          -62 -9 74 384 74 hstem
          31 84 177 87 vstem
          195 -9 rmoveto
          -42 callsubr
          endchar
        </CharString>
        <CharString name="sacute">
          -62 -9 74 384 74 64 145 hstem
          31 84 177 87 vstem
          195 -9 rmoveto
          -42 callsubr
          -36 596 rmoveto
          -26 callsubr
          endchar
        </CharString>
        <CharString name="sacute.pl">
          -62 -9 74 384 74 64 145 hstem
          31 84 177 87 vstem
          195 -9 rmoveto
          -42 callsubr
          -24 596 rmoveto
          35 callsubr
          endchar
        </CharString>
        <CharString name="scaron">
          -62 -9 74 384 74 64 144 hstem
          31 84 177 87 vstem
          195 -9 rmoveto
          -42 callsubr
          -27 596 rmoveto
          -15 callsubr
          endchar
        </CharString>
        <CharString name="scedilla">
          -62 -217 52 72 45 39 74 384 74 hstemhm
          31 84 32 57 24 72 -8 87 hintmask 11111101
          126 -217 rmoveto
          hintmask 11111110
          130 9 44 31 0 59 rrcurveto
          hintmask 11111101
          0 44 -36 23 -60 3 rrcurveto
          39 vlineto
          107 3 68 51 0 99 0 91 -41 33 -100 27 rrcurveto
          -49 13 rlineto
          -52 14 -22 17 0 42 0 45 34 23 66 0 57 0 53 -15 26 -12 rrcurveto
          71 vlineto
          -29 15 -42 15 -69 0 -123 0 -57 -61 0 -90 0 -89 54 -34 74 -20 rrcurveto
          49 -13 rlineto
          63 -17 21 -21 0 -42 0 -45 -33 -26 -76 0 -73 0 -37 15 -44 17 rrcurveto
          -70 vlineto
          32 -18 40 -11 46 -5 rrcurveto
          -86 vlineto
          hintmask 11111110
          40 callsubr
          endchar
        </CharString>
        <CharString name="scircumflex">
          -62 -9 74 384 74 64 144 hstem
          31 84 177 87 vstem
          195 -9 rmoveto
          -42 callsubr
          -129 596 rmoveto
          -25 callsubr
          endchar
        </CharString>
        <CharString name="scommaaccent">
          -62 -182 140 33 74 384 74 hstem
          31 84 177 87 vstem
          195 -9 rmoveto
          -42 callsubr
          -57 -173 rmoveto
          32 callsubr
          endchar
        </CharString>
        <CharString name="section">
          19 -132 76 685 76 hstemhm
          26 86 -39 85 183 89 -47 88 hintmask 11010100
          229 -132 rmoveto
          hintmask 11011000
          126 75 59 107 hvcurveto
          0 52 -17 36 -36 26 rrcurveto
          hintmask 11010100
          58 21 36 38 0 70 0 98 -51 34 -97 30 rrcurveto
          -96 30 rlineto
          -56 18 -13 19 0 48 0 49 43 26 70 0 62 0 48 -16 30 -14 rrcurveto
          72 vlineto
          -32 16 -37 18 -73 0 -129 0 -67 -66 0 -94 0 -56 18 -37 30 -25 rrcurveto
          hintmask 11101000
          -60 -21 -35 -39 0 -67 0 -93 60 -42 81 -25 rrcurveto
          87 -27 rlineto
          70 -21 17 -18 0 -48 0 -52 -39 -30 -83 0 -73 0 -36 16 -47 19 rrcurveto
          -72 vlineto
          44 -25 51 -14 71 0 rrcurveto
          62 494 rmoveto
          69 -21 23 -22 0 -49 0 -43 -29 -31 -53 -12 rrcurveto
          -15 5 rlineto
          hintmask 11100100
          -92 28 rlineto
          -60 18 -22 25 0 48 0 44 28 31 53 9 rrcurveto
          endchar
        </CharString>
        <CharString name="semicolon">
          -209 -92 193 199 101 hstem
          81 100 vstem
          64 -92 rmoveto
          76 0 43 193 -103 0 rlineto
          1 199 rmoveto
          100 101 -100 hlineto
          endchar
        </CharString>
        <CharString name="seven">
          15 21 -21 616 77 hstemhm
          24 440 -90 90 hintmask 11100000
          89 hmoveto
          101 0 rlineto
          hintmask 11010000
          274 621 0 72 -440 0 0 -77 350 0 0 -4 rlineto
          endchar
        </CharString>
        <CharString name="seven.den">
          -136 21 -21 356 60 hstem
          27 276 vstem
          61 hmoveto
          29 callsubr
          endchar
        </CharString>
        <CharString name="seven.num">
          -136 633 60 hstem
          27 276 vstem
          61 277 rmoveto
          29 callsubr
          endchar
        </CharString>
        <CharString name="seven.old">
          -3 520 73 hstemhm
          27 416 -86 86 hintmask 11000000
          72 -100 rmoveto
          97 0 rlineto
          hintmask 10100000
          274 625 0 68 -416 0 0 -73 330 0 0 -4 rlineto
          endchar
        </CharString>
        <CharString name="seven.sub">
          -136 236 60 hstem
          27 276 vstem
          61 -120 rmoveto
          29 callsubr
          endchar
        </CharString>
        <CharString name="seven.sup">
          -136 678 60 hstem
          27 276 vstem
          61 322 rmoveto
          29 callsubr
          endchar
        </CharString>
        <CharString name="seveneighths">
          338 -7 55 321 55 209 60 hstemhm
          463 70 -57 72 147 69 -58 75 hintmask 11110010
          64 277 rmoveto
          29 callsubr
          -171 -671 rmoveto
          -32 callsubr
          51 -720 rmoveto
          23 callsubr
          hintmask 11101100
          24 callsubr
          hintmask 11110010
          25 callsubr
          -2 55 rmoveto
          26 callsubr
          hintmask 11101100
          18 194 rmoveto
          27 callsubr
          endchar
        </CharString>
        <CharString name="six">
          119 -13 76 293 77 194 78 hstem
          50 98 301 96 vstem
          307 -13 rmoveto
          153 85 107 130 137 -89 72 -125 hvcurveto
          -78 0 -66 -27 -39 -29 10 215 109 35 115 0 50 0 47 -10 26 -8 rrcurveto
          71 vlineto
          -29 16 -49 9 -61 0 rrcurveto
          -161 -155 -92 -272 hvcurveto
          -44 vlineto
          -183 93 -127 164 vhcurveto
          -1 76 rmoveto
          -114 -45 100 132 hvcurveto
          15 vlineto
          39 25 52 21 67 0 rrcurveto
          84 60 -28 -113 -93 -50 -59 -93 hvcurveto
          endchar
        </CharString>
        <CharString name="six.den">
          -106 -7 55 161 55 102 59 hstem
          28 76 162 74 vstem
          191 -7 rmoveto
          60 callsubr
          -1 55 rmoveto
          57 callsubr
          endchar
        </CharString>
        <CharString name="six.num">
          -106 270 55 161 55 -28 -20 150 59 hstemhm
          28 76 162 74 hintmask 10111100
          191 270 rmoveto
          98 51 65 79 hvcurveto
          hintmask 11011100
          83 -53 44 -77 vhcurveto
          -45 0 -37 -13 -23 -15 6 111 58 19 70 0 30 0 30 -6 16 -5 rrcurveto
          55 vlineto
          -19 10 -31 5 -41 0 rrcurveto
          -104 -92 -57 -161 hvcurveto
          -26 vlineto
          -114 59 -74 104 vhcurveto
          -1 55 rmoveto
          57 callsubr
          endchar
        </CharString>
        <CharString name="six.old">
          78 -13 72 291 73 209 73 hstem
          39 91 295 89 vstem
          288 -13 rmoveto
          147 79 107 130 137 -86 62 -120 hvcurveto
          -74 0 -65 -31 -39 -30 10 216 107 54 111 0 48 0 48 -11 26 -9 rrcurveto
          66 vlineto
          -29 17 -50 10 -59 0 rrcurveto
          -154 -149 -102 -272 hvcurveto
          -44 vlineto
          -183 92 -117 157 vhcurveto
          -1 72 rmoveto
          -109 -49 94 132 hvcurveto
          17 vlineto
          39 25 51 23 65 0 rrcurveto
          80 61 -22 -113 -93 -49 -63 -89 hvcurveto
          endchar
        </CharString>
        <CharString name="six.sub">
          -106 -127 55 161 55 102 59 hstem
          28 76 162 74 vstem
          191 -127 rmoveto
          60 callsubr
          -1 55 rmoveto
          57 callsubr
          endchar
        </CharString>
        <CharString name="six.sup">
          -106 315 55 161 55 102 59 hstem
          28 76 162 74 vstem
          191 315 rmoveto
          60 callsubr
          -1 55 rmoveto
          57 callsubr
          endchar
        </CharString>
        <CharString name="slash">
          -125 739 -20 hstem
          5 319 vstem
          5 -120 rmoveto
          79 0 240 859 -79 0 rlineto
          endchar
        </CharString>
        <CharString name="slash.uc">
          -125 -60 793 hstem
          22 302 vstem
          101 -60 rmoveto
          223 793 -79 0 -223 -793 rlineto
          endchar
        </CharString>
        <CharString name="space">
          -279 endchar
        </CharString>
        <CharString name="space_uni0326">
          17 -182 140 hstem
          182 111 vstem
          182 -182 rmoveto
          32 callsubr
          endchar
        </CharString>
        <CharString name="space_uni0326.alt">
          17 606 140 hstem
          189 111 vstem
          300 746 rmoveto
          34 callsubr
          endchar
        </CharString>
        <CharString name="sterling">
          50 0 77 233 68 249 78 hstem
          125 91 vstem
          46 310 rmoveto
          79 -63 hlineto
          0 -96 -29 -49 -59 -35 rrcurveto
          -67 451 77 -340 2 vlineto
          47 39 21 44 0 89 rrcurveto
          59 185 68 -185 98 vlineto
          122 73 29 73 vhcurveto
          52 0 29 -8 39 -14 rrcurveto
          69 vlineto
          -31 18 -47 13 -57 0 rrcurveto
          -111 -111 -64 -161 hvcurveto
          -102 -79 vlineto
          endchar
        </CharString>
        <CharString name="sterling.old">
          20 0 73 211 69 229 72 hstem
          116 88 vstem
          41 284 rmoveto
          75 -49 hlineto
          0 -92 -28 -46 -56 -33 rrcurveto
          -64 428 73 -331 2 vlineto
          51 37 24 41 0 85 rrcurveto
          46 174 69 -174 83 vlineto
          116 67 30 70 vhcurveto
          49 0 28 -8 37 -13 rrcurveto
          59 vlineto
          -30 19 -44 15 -55 0 rrcurveto
          -105 -105 -61 -153 hvcurveto
          -87 -75 vlineto
          endchar
        </CharString>
        <CharString name="t">
          -129 -6 72 374 73 hstem
          90 88 vstem
          229 -6 rmoveto
          -41 callsubr
          endchar
        </CharString>
        <CharString name="tbar">
          -129 -6 72 223 61 90 73 hstem
          90 88 vstem
          17 289 rmoveto
          73 -169 hlineto
          -91 57 -35 82 vhcurveto
          46 0 21 11 21 10 rrcurveto
          59 vlineto
          -20 -5 -24 -3 -21 0 rrcurveto
          -58 -16 18 49 hvcurveto
          156 129 61 -129 90 129 73 -129 122 -88 -122 -73 -73 73 -90 vlineto
          -73 hlineto
          endchar
        </CharString>
        <CharString name="tcaron">
          -129 -6 72 374 73 63 59 -59 163 hstemhm
          90 88 hintmask 11011000
          229 -6 rmoveto
          46 0 21 11 21 10 rrcurveto
          59 vlineto
          -20 -5 -24 -3 -21 0 rrcurveto
          -58 -16 18 49 hvcurveto
          307 129 73 -129 vlineto
          hintmask 11101000
          122 -88 -122 -73 -73 73 -320 vlineto
          -91 57 -35 82 vhcurveto
          75 582 rmoveto
          33 callsubr
          endchar
        </CharString>
        <CharString name="tcommaaccent">
          -129 -182 140 36 72 374 73 hstem
          90 88 vstem
          229 -6 rmoveto
          -41 callsubr
          -86 -176 rmoveto
          32 callsubr
          endchar
        </CharString>
        <CharString name="thorn">
          73 -174 -21 185 72 385 76 216 -20 hstem
          63 88 268 91 vstem
          63 -195 rmoveto
          88 218 hlineto
          27 -16 43 -17 58 0 rrcurveto
          141 90 79 188 hvcurveto
          14 vlineto
          189 -99 63 -111 vhcurveto
          -63 0 -51 -22 -30 -25 rrcurveto
          -5 263 -88 hlineto
          208 -677 rmoveto
          -52 0 -46 17 -22 18 rrcurveto
          316 vlineto
          22 16 46 18 57 0 rrcurveto
          92 51 -41 -139 hvcurveto
          -22 vlineto
          -134 -55 -49 -93 vhcurveto
          endchar
        </CharString>
        <CharString name="three">
          37 -11 78 255 77 228 78 hstemhm
          141 164 34 95 -70 96 hintmask 11110100
          209 -11 rmoveto
          -99 callsubr
          hintmask 11111000
          83 26 46 52 0 83 0 109 -81 64 -126 0 -62 0 -61 -11 -47 -23 rrcurveto
          -72 vlineto
          44 16 38 12 65 0 rrcurveto
          83 52 -25 -84 -81 -56 -38 -90 hvcurveto
          -52 -77 64 hlineto
          hintmask 11110100
          100 59 -36 -89 -91 -65 -39 -110 hvcurveto
          -55 0 -58 17 -48 21 rrcurveto
          -72 vlineto
          41 -24 56 -20 84 0 rrcurveto
          endchar
        </CharString>
        <CharString name="three.den">
          -138 -7 59 136 55 121 59 hstemhm
          94 116 3 74 -62 77 hintmask 11100100
          144 -7 rmoveto
          30 callsubr
          hintmask 11101000
          31 callsubr
          hintmask 11110100
          -34 -55 hlineto
          hintmask 11100100
          9 callsubr
          endchar
        </CharString>
        <CharString name="three.num">
          -138 270 59 136 55 0 -20 141 59 hstemhm
          94 116 3 74 -62 77 hintmask 11010010
          144 270 rmoveto
          96 62 45 78 hvcurveto
          hintmask 10110010
          7 callsubr
          hintmask 10110100
          8 callsubr
          hintmask 11010100
          -43 -34 -20 -51 vhcurveto
          hintmask 11011010
          -34 -55 hlineto
          hintmask 11010010
          9 callsubr
          endchar
        </CharString>
        <CharString name="three.old">
          22 -111 72 263 73 236 72 hstemhm
          138 159 37 90 -63 91 hintmask 11110100
          201 -111 rmoveto
          -99 callsubr
          hintmask 11111000
          83 26 44 52 0 83 0 109 -70 64 -126 0 -62 0 -60 -13 -47 -23 rrcurveto
          -66 vlineto
          44 16 37 14 65 0 rrcurveto
          83 46 -31 -84 -81 -54 -40 -90 hvcurveto
          -52 -73 64 hlineto
          hintmask 11110100
          100 59 -38 -89 -91 -70 -45 -110 hvcurveto
          -55 0 -55 17 -48 21 rrcurveto
          -66 vlineto
          41 -24 53 -20 84 0 rrcurveto
          endchar
        </CharString>
        <CharString name="three.sub">
          -138 -127 59 136 55 121 59 hstemhm
          94 116 3 74 -62 77 hintmask 11100100
          144 -127 rmoveto
          30 callsubr
          hintmask 11101000
          31 callsubr
          hintmask 11110100
          -34 -55 hlineto
          hintmask 11100100
          9 callsubr
          endchar
        </CharString>
        <CharString name="three.sup">
          -138 315 59 136 55 121 59 hstemhm
          94 116 3 74 -62 77 hintmask 11100100
          144 315 rmoveto
          30 callsubr
          hintmask 11101000
          31 callsubr
          hintmask 11110100
          -34 -55 hlineto
          hintmask 11100100
          9 callsubr
          endchar
        </CharString>
        <CharString name="threeeighths">
          380 -7 55 222 59 40 55 41 55 0 -20 141 59 hstemhm
          97 116 3 74 -62 77 200 70 -57 72 147 69 -58 75 hintmask 1111010011001000
          147 270 rmoveto
          96 62 45 78 hvcurveto
          hintmask 1110110011001000
          7 callsubr
          hintmask 1110110101001000
          8 callsubr
          hintmask 1111010101001000
          -43 -34 -20 -51 vhcurveto
          hintmask 1111011011001000
          -34 -55 hlineto
          hintmask 1111010011001000
          9 callsubr
          -37 -310 rmoveto
          -32 callsubr
          42 -720 rmoveto
          23 callsubr
          hintmask 1111010010110000
          24 callsubr
          hintmask 1111010011001000
          25 callsubr
          -2 55 rmoveto
          26 callsubr
          hintmask 1111010010110000
          18 194 rmoveto
          27 callsubr
          endchar
        </CharString>
        <CharString name="threequarters">
          330 0 164 -55 55 106 59 -13 100 49 55 0 -20 141 59 hstemhm
          97 116 3 74 -62 77 143 72 121 71 hintmask 0110101001010000
          147 270 rmoveto
          96 62 45 78 hvcurveto
          hintmask 0110011001010000
          7 callsubr
          hintmask 0110011010010000
          8 callsubr
          hintmask 0110101010010000
          -43 -34 -20 -51 vhcurveto
          hintmask 0110101101010000
          -34 -55 hlineto
          hintmask 0110101001010000
          9 callsubr
          -24 -313 rmoveto
          -32 callsubr
          hintmask 1010101001010000
          6 -710 rmoveto
          72 hlineto
          hintmask 0101101001110000
          5 callsubr
          -120 55 rmoveto
          6 callsubr
          endchar
        </CharString>
        <CharString name="tilde">
          606 71 -36 71 hstemhm
          95 60 178 60 hintmask 01100000
          95 604 rmoveto
          -24 callsubr
          hintmask 10010000
          -23 callsubr
          hintmask 01100000
          -22 callsubr
          endchar
        </CharString>
        <CharString name="tilde.uc">
          747 71 -40 71 hstemhm
          95 298 hintmask 01100000
          95 745 rmoveto
          16 callsubr
          hintmask 10100000
          17 callsubr
          hintmask 01100000
          36 callsubr
          endchar
        </CharString>
        <CharString name="trademark">
          179 404 77 160 52 hstem
          103 62 138 55 205 62 vstem
          303 404 rmoveto
          55 210 3 hlineto
          71 -210 56 0 72 210 3 0 0 -210 62 0 0 289 -84 0 -76 -212 -3 0 -73 212 -86 0 rlineto
          -200 -289 rmoveto
          62 237 87 52 -235 -52 86 hlineto
          endchar
        </CharString>
        <CharString name="two">
          45 0 77 550 78 hstem
          34 114 209 97 vstem
          34 hmoveto
          437 77 -323 3 hlineto
          112 107 rlineto
          124 119 70 82 0 119 0 124 -80 74 -141 0 -78 0 -57 -16 -50 -27 rrcurveto
          -73 vlineto
          43 21 54 17 64 0 95 0 53 -39 0 -89 0 -96 -60 -73 -99 -99 rrcurveto
          -164 -165 rlineto
          endchar
        </CharString>
        <CharString name="two.den">
          -134 0 58 306 59 hstem
          216 78 vstem
          32 hmoveto
          4 callsubr
          endchar
        </CharString>
        <CharString name="two.num">
          -134 277 58 306 59 hstem
          216 78 vstem
          32 277 rmoveto
          4 callsubr
          endchar
        </CharString>
        <CharString name="two.old">
          -9 0 73 460 72 hstem
          29 107 192 90 vstem
          29 hmoveto
          390 73 -283 3 hlineto
          111 92 rlineto
          115 95 56 72 0 94 0 110 -70 66 -120 0 -70 0 -52 -17 -44 -25 rrcurveto
          -62 vlineto
          41 17 48 15 56 0 78 0 43 -34 0 -77 0 -76 -43 -51 -96 -87 rrcurveto
          -160 -145 rlineto
          endchar
        </CharString>
        <CharString name="two.sub">
          -134 -120 58 306 59 hstem
          216 78 vstem
          32 -120 rmoveto
          4 callsubr
          endchar
        </CharString>
        <CharString name="two.sup">
          -134 322 58 306 59 hstem
          216 78 vstem
          32 322 rmoveto
          4 callsubr
          endchar
        </CharString>
        <CharString name="twothirds">
          395 -7 59 136 55 34 58 29 59 218 59 hstemhm
          219 78 327 116 3 74 -62 77 hintmask 1110110010000000
          35 277 rmoveto
          4 callsubr
          112 -367 rmoveto
          -32 callsubr
          16 -720 rmoveto
          30 callsubr
          hintmask 1111110100000000
          31 callsubr
          hintmask 1110111010000000
          -34 -55 hlineto
          hintmask 1110110010000000
          9 callsubr
          endchar
        </CharString>
        <CharString name="u">
          56 -10 76 -45 -21 513 -20 hstemhm
          60 88 228 88 hintmask 10111000
          217 -10 rmoveto
          -40 callsubr
          hintmask 01111000
          -39 callsubr
          hintmask 10111000
          -38 callsubr
          endchar
        </CharString>
        <CharString name="uacute">
          56 -10 76 -45 -21 513 -20 94 145 hstemhm
          60 88 228 88 hintmask 10111100
          217 -10 rmoveto
          -40 callsubr
          hintmask 01111100
          -39 callsubr
          hintmask 10111100
          -38 callsubr
          597 vmoveto
          -26 callsubr
          endchar
        </CharString>
        <CharString name="ubreve">
          56 -10 76 -45 -21 513 -20 100 66 hstemhm
          60 88 228 88 hintmask 10111100
          217 -10 rmoveto
          -40 callsubr
          hintmask 01111100
          -39 callsubr
          hintmask 10111100
          -38 callsubr
          47 603 rmoveto
          -20 callsubr
          endchar
        </CharString>
        <CharString name="ucircumflex">
          56 -10 76 -45 -21 513 -20 94 144 hstemhm
          60 88 228 88 hintmask 10111100
          217 -10 rmoveto
          -40 callsubr
          hintmask 01111100
          -39 callsubr
          hintmask 10111100
          -38 callsubr
          -93 597 rmoveto
          -25 callsubr
          endchar
        </CharString>
        <CharString name="udieresis">
          56 -10 76 -45 -21 513 -20 122 89 hstemhm
          60 88 -12 86 84 86 -16 88 hintmask 10111001
          217 -10 rmoveto
          -40 callsubr
          hintmask 01111001
          -39 callsubr
          hintmask 10111001
          -38 callsubr
          hintmask 10110110
          89 625 rmoveto
          86 89 -86 hlineto
          -170 -89 rmoveto
          86 89 -86 hlineto
          endchar
        </CharString>
        <CharString name="ugrave">
          56 -10 76 -45 -21 513 -20 94 145 hstemhm
          60 88 228 88 hintmask 10111100
          217 -10 rmoveto
          -40 callsubr
          hintmask 01111100
          -39 callsubr
          hintmask 10111100
          -38 callsubr
          13 597 rmoveto
          -27 callsubr
          endchar
        </CharString>
        <CharString name="uhungarumlaut">
          56 -10 76 -45 -21 513 -20 94 145 hstemhm
          60 88 228 88 hintmask 10111100
          217 -10 rmoveto
          -40 callsubr
          hintmask 01111100
          -39 callsubr
          hintmask 10111100
          -38 callsubr
          -70 597 rmoveto
          -17 callsubr
          110 -145 rmoveto
          -16 callsubr
          endchar
        </CharString>
        <CharString name="umacron">
          56 -10 76 -45 -21 513 -20 127 73 hstemhm
          60 88 -3 238 -7 88 hintmask 10111010
          217 -10 rmoveto
          -40 callsubr
          hintmask 01111010
          -39 callsubr
          hintmask 10111010
          -38 callsubr
          hintmask 10110100
          -72 630 rmoveto
          -21 callsubr
          endchar
        </CharString>
        <CharString name="underscore">
          -151 -120 59 hstem
          -5 330 vstem
          -5 -120 rmoveto
          330 59 -330 hlineto
          endchar
        </CharString>
        <CharString name="uni00A0">
          -279 endchar
        </CharString>
        <CharString name="uni0237">
          -251 -199 72 640 -20 hstem
          66 88 vstem
          12 -199 rmoveto
          -50 callsubr
          endchar
        </CharString>
        <CharString name="uni2009">
          -379 endchar
        </CharString>
        <CharString name="uni2032">
          -264 508 185 hstem
          55 110 vstem
          55 508 rmoveto
          -103 callsubr
          endchar
        </CharString>
        <CharString name="uni2033">
          -106 508 185 hstem
          55 268 vstem
          213 508 rmoveto
          -103 callsubr
          -171 -185 rmoveto
          -103 callsubr
          endchar
        </CharString>
        <CharString name="uni24C5">
          329 -14 50 261 56 123 58 116 50 hstem
          45 60 170 75 127 77 141 60 vstem
          399 -14 rmoveto
          11 callsubr
          50 vmoveto
          12 callsubr
          -124 125 rmoveto
          75 136 68 hlineto
          82 54 35 84 77 -49 41 -97 hvcurveto
          -133 hlineto
          75 -181 rmoveto
          123 56 vlineto
          41 30 -14 -45 -45 -24 -19 -43 hvcurveto
          endchar
        </CharString>
</ttFont>
